<svg width="1920" height="1200" viewBox="0 0 1920 1200" fill="none" xmlns="http://www.w3.org/2000/svg">
<path d="M0 0C0 0 584.914 32.4324 960 32.4324C1335.09 32.4324 1920 0 1920 0V1200C1920 1200 1335.09 1167.57 960 1167.57C584.914 1167.57 0 1200 0 1200L0 0Z" fill="#FFECEE"/>
<mask id="mask0_32_115" style="mask-type:alpha" maskUnits="userSpaceOnUse" x="0" y="0" width="1920" height="1200">
<path d="M0 0C0 0 584.914 32.4324 960 32.4324C1335.09 32.4324 1920 0 1920 0V1200C1920 1200 1335.09 1167.57 960 1167.57C584.914 1167.57 0 1200 0 1200L0 0Z" fill="#FFECEE"/>
</mask>
<g mask="url(#mask0_32_115)">
<circle cx="51.5" cy="1104.5" r="148.5" fill="#FC377E"/>
<circle cx="243.5" cy="978.5" r="26.5" fill="#18AFF0"/>
<ellipse opacity="0.05" cx="5.90453" cy="5.91099" rx="5.90453" ry="5.91099" transform="matrix(-0.707107 -0.707107 0.707352 -0.706861 1381.13 1192.76)" fill="#2F327D"/>
<ellipse opacity="0.05" cx="5.90453" cy="5.91099" rx="5.90453" ry="5.91099" transform="matrix(-0.707107 -0.707107 0.707352 -0.706861 1431.31 1142.62)" fill="#2F327D"/>
<ellipse opacity="0.05" cx="5.90453" cy="5.91099" rx="5.90453" ry="5.91099" transform="matrix(-0.707107 -0.707107 0.707352 -0.706861 1280.86 1192.8)" fill="#2F327D"/>
<ellipse opacity="0.05" cx="5.90453" cy="5.91099" rx="5.90453" ry="5.91099" transform="matrix(-0.707107 -0.707107 0.707352 -0.706861 1331.03 1142.66)" fill="#2F327D"/>
<ellipse opacity="0.05" cx="5.90453" cy="5.91099" rx="5.90453" ry="5.91099" transform="matrix(-0.707107 -0.707107 0.707352 -0.706861 1381.21 1092.52)" fill="#2F327D"/>
<ellipse opacity="0.05" cx="5.90453" cy="5.91099" rx="5.90453" ry="5.91099" transform="matrix(-0.707107 -0.707107 0.707352 -0.706861 1180.58 1192.84)" fill="#2F327D"/>
<ellipse opacity="0.05" cx="5.90453" cy="5.91099" rx="5.90453" ry="5.91099" transform="matrix(-0.707107 -0.707107 0.707352 -0.706861 1230.76 1142.7)" fill="#2F327D"/>
<ellipse opacity="0.05" cx="5.90453" cy="5.91099" rx="5.90453" ry="5.91099" transform="matrix(-0.707107 -0.707107 0.707352 -0.706861 1280.93 1092.56)" fill="#2F327D"/>
<ellipse opacity="0.05" cx="5.90453" cy="5.91099" rx="5.90453" ry="5.91099" transform="matrix(-0.707107 -0.707107 0.707352 -0.706861 1331.1 1042.42)" fill="#2F327D"/>
<ellipse opacity="0.05" cx="5.90453" cy="5.91099" rx="5.90453" ry="5.91099" transform="matrix(-0.707107 -0.707107 0.707352 -0.706861 1080.31 1192.87)" fill="#2F327D"/>
<ellipse opacity="0.05" cx="5.90453" cy="5.91099" rx="5.90453" ry="5.91099" transform="matrix(-0.707107 -0.707107 0.707352 -0.706861 1130.48 1142.73)" fill="#2F327D"/>
<ellipse opacity="0.05" cx="5.90453" cy="5.91099" rx="5.90453" ry="5.91099" transform="matrix(-0.707107 -0.707107 0.707352 -0.706861 1180.66 1092.59)" fill="#2F327D"/>
<ellipse opacity="0.05" cx="5.90453" cy="5.91099" rx="5.90453" ry="5.91099" transform="matrix(-0.707107 -0.707107 0.707352 -0.706861 1230.83 1042.46)" fill="#2F327D"/>
<ellipse opacity="0.05" cx="5.90453" cy="5.91099" rx="5.90453" ry="5.91099" transform="matrix(-0.707107 -0.707107 0.707352 -0.706861 1281 992.317)" fill="#2F327D"/>
<ellipse opacity="0.05" cx="5.90453" cy="5.91099" rx="5.90453" ry="5.91099" transform="matrix(-0.707107 -0.707107 0.707352 -0.706861 980.032 1192.91)" fill="#2F327D"/>
<ellipse opacity="0.05" cx="5.90453" cy="5.91099" rx="5.90453" ry="5.91099" transform="matrix(-0.707107 -0.707107 0.707352 -0.706861 1030.21 1142.77)" fill="#2F327D"/>
<ellipse opacity="0.05" cx="5.90453" cy="5.91099" rx="5.90453" ry="5.91099" transform="matrix(-0.707107 -0.707107 0.707352 -0.706861 1080.38 1092.63)" fill="#2F327D"/>
<ellipse opacity="0.05" cx="5.90453" cy="5.91099" rx="5.90453" ry="5.91099" transform="matrix(-0.707107 -0.707107 0.707352 -0.706861 1130.55 1042.49)" fill="#2F327D"/>
<ellipse opacity="0.05" cx="5.90453" cy="5.91099" rx="5.90453" ry="5.91099" transform="matrix(-0.707107 -0.707107 0.707352 -0.706861 1180.73 992.354)" fill="#2F327D"/>
<ellipse opacity="0.05" cx="5.90453" cy="5.91099" rx="5.90453" ry="5.91099" transform="matrix(-0.707107 -0.707107 0.707352 -0.706861 1230.9 942.215)" fill="#2F327D"/>
<ellipse opacity="0.05" cx="5.90453" cy="5.91099" rx="5.90453" ry="5.91099" transform="matrix(-0.707107 -0.707107 0.707352 -0.706861 879.757 1192.95)" fill="#2F327D"/>
<ellipse opacity="0.05" cx="5.90453" cy="5.91099" rx="5.90453" ry="5.91099" transform="matrix(-0.707107 -0.707107 0.707352 -0.706861 929.931 1142.81)" fill="#2F327D"/>
<ellipse opacity="0.05" cx="5.90453" cy="5.91099" rx="5.90453" ry="5.91099" transform="matrix(-0.707107 -0.707107 0.707352 -0.706861 980.105 1092.67)" fill="#2F327D"/>
<ellipse opacity="0.05" cx="5.90453" cy="5.91099" rx="5.90453" ry="5.91099" transform="matrix(-0.707107 -0.707107 0.707352 -0.706861 1030.28 1042.53)" fill="#2F327D"/>
<ellipse opacity="0.05" cx="5.90453" cy="5.91099" rx="5.90453" ry="5.91099" transform="matrix(-0.707107 -0.707107 0.707352 -0.706861 1080.45 992.391)" fill="#2F327D"/>
<ellipse opacity="0.05" cx="5.90453" cy="5.91099" rx="5.90453" ry="5.91099" transform="matrix(-0.707107 -0.707107 0.707352 -0.706861 1130.63 942.253)" fill="#2F327D"/>
<ellipse opacity="0.05" cx="5.90453" cy="5.91099" rx="5.90453" ry="5.91099" transform="matrix(-0.707107 -0.707107 0.707352 -0.706861 1180.8 892.114)" fill="#2F327D"/>
<ellipse opacity="0.05" cx="5.90453" cy="5.91099" rx="5.90453" ry="5.91099" transform="matrix(-0.707107 -0.707107 0.707352 -0.706861 829.655 1142.85)" fill="#2F327D"/>
<ellipse opacity="0.05" cx="5.90453" cy="5.91099" rx="5.90453" ry="5.91099" transform="matrix(-0.707107 -0.707107 0.707352 -0.706861 879.829 1092.71)" fill="#2F327D"/>
<ellipse opacity="0.05" cx="5.90453" cy="5.91099" rx="5.90453" ry="5.91099" transform="matrix(-0.707107 -0.707107 0.707352 -0.706861 930.003 1042.57)" fill="#2F327D"/>
<ellipse opacity="0.05" cx="5.90453" cy="5.91099" rx="5.90453" ry="5.91099" transform="matrix(-0.707107 -0.707107 0.707352 -0.706861 980.177 992.429)" fill="#2F327D"/>
<ellipse opacity="0.05" cx="5.90453" cy="5.91099" rx="5.90453" ry="5.91099" transform="matrix(-0.707107 -0.707107 0.707352 -0.706861 1030.35 942.29)" fill="#2F327D"/>
<ellipse opacity="0.05" cx="5.90453" cy="5.91099" rx="5.90453" ry="5.91099" transform="matrix(-0.707107 -0.707107 0.707352 -0.706861 1080.52 892.151)" fill="#2F327D"/>
<ellipse opacity="0.05" cx="5.90453" cy="5.91099" rx="5.90453" ry="5.91099" transform="matrix(-0.707107 -0.707107 0.707352 -0.706861 1130.7 842.012)" fill="#2F327D"/>
<ellipse opacity="0.05" cx="5.90453" cy="5.91099" rx="5.90453" ry="5.91099" transform="matrix(-0.707107 -0.707107 0.707352 -0.706861 779.553 1092.74)" fill="#2F327D"/>
<ellipse opacity="0.05" cx="5.90453" cy="5.91099" rx="5.90453" ry="5.91099" transform="matrix(-0.707107 -0.707107 0.707352 -0.706861 829.727 1042.61)" fill="#2F327D"/>
<ellipse opacity="0.05" cx="5.90453" cy="5.91099" rx="5.90453" ry="5.91099" transform="matrix(-0.707107 -0.707107 0.707352 -0.706861 879.901 992.466)" fill="#2F327D"/>
<ellipse opacity="0.05" cx="5.90453" cy="5.91099" rx="5.90453" ry="5.91099" transform="matrix(-0.707107 -0.707107 0.707352 -0.706861 930.075 942.327)" fill="#2F327D"/>
<ellipse opacity="0.05" cx="5.90453" cy="5.91099" rx="5.90453" ry="5.91099" transform="matrix(-0.707107 -0.707107 0.707352 -0.706861 980.249 892.188)" fill="#2F327D"/>
<ellipse opacity="0.05" cx="5.90453" cy="5.91099" rx="5.90453" ry="5.91099" transform="matrix(-0.707107 -0.707107 0.707352 -0.706861 1030.42 842.049)" fill="#2F327D"/>
<ellipse opacity="0.05" cx="5.90453" cy="5.91099" rx="5.90453" ry="5.91099" transform="matrix(-0.707107 -0.707107 0.707352 -0.706861 1080.6 791.91)" fill="#2F327D"/>
<ellipse opacity="0.05" cx="5.90453" cy="5.91099" rx="5.90453" ry="5.91099" transform="matrix(-0.707107 -0.707107 0.707352 -0.706861 729.452 1042.64)" fill="#2F327D"/>
<ellipse opacity="0.05" cx="5.90453" cy="5.91099" rx="5.90453" ry="5.91099" transform="matrix(-0.707107 -0.707107 0.707352 -0.706861 779.626 992.504)" fill="#2F327D"/>
<ellipse opacity="0.05" cx="5.90453" cy="5.91099" rx="5.90453" ry="5.91099" transform="matrix(-0.707107 -0.707107 0.707352 -0.706861 829.8 942.365)" fill="#2F327D"/>
<ellipse opacity="0.05" cx="5.90453" cy="5.91099" rx="5.90453" ry="5.91099" transform="matrix(-0.707107 -0.707107 0.707352 -0.706861 879.973 892.226)" fill="#2F327D"/>
<ellipse opacity="0.05" cx="5.90453" cy="5.91099" rx="5.90453" ry="5.91099" transform="matrix(-0.707107 -0.707107 0.707352 -0.706861 930.147 842.087)" fill="#2F327D"/>
<ellipse opacity="0.05" cx="5.90453" cy="5.91099" rx="5.90453" ry="5.91099" transform="matrix(-0.707107 -0.707107 0.707352 -0.706861 980.321 791.948)" fill="#2F327D"/>
<ellipse opacity="0.05" cx="5.90453" cy="5.91099" rx="5.90453" ry="5.91099" transform="matrix(-0.707107 -0.707107 0.707352 -0.706861 1030.5 741.809)" fill="#2F327D"/>
<ellipse opacity="0.05" cx="5.90453" cy="5.91099" rx="5.90453" ry="5.91099" transform="matrix(-0.707107 -0.707107 0.707352 -0.706861 679.35 992.541)" fill="#2F327D"/>
<ellipse opacity="0.05" cx="5.90453" cy="5.91099" rx="5.90453" ry="5.91099" transform="matrix(-0.707107 -0.707107 0.707352 -0.706861 729.524 942.402)" fill="#2F327D"/>
<ellipse opacity="0.05" cx="5.90453" cy="5.91099" rx="5.90453" ry="5.91099" transform="matrix(-0.707107 -0.707107 0.707352 -0.706861 779.698 892.263)" fill="#2F327D"/>
<ellipse opacity="0.05" cx="5.90453" cy="5.91099" rx="5.90453" ry="5.91099" transform="matrix(-0.707107 -0.707107 0.707352 -0.706861 829.872 842.124)" fill="#2F327D"/>
<ellipse opacity="0.05" cx="5.90453" cy="5.91099" rx="5.90453" ry="5.91099" transform="matrix(-0.707107 -0.707107 0.707352 -0.706861 880.046 791.985)" fill="#2F327D"/>
<ellipse opacity="0.05" cx="5.90453" cy="5.91099" rx="5.90453" ry="5.91099" transform="matrix(-0.707107 -0.707107 0.707352 -0.706861 930.22 741.846)" fill="#2F327D"/>
<ellipse opacity="0.05" cx="5.90453" cy="5.91099" rx="5.90453" ry="5.91099" transform="matrix(-0.707107 -0.707107 0.707352 -0.706861 980.394 691.707)" fill="#2F327D"/>
<g opacity="0.05">
<path d="M1368.23 139.352C1368.23 147.164 1367.71 154.911 1366.67 162.594C1365.63 170.146 1364.39 177.633 1362.96 185.055C1362.57 187.008 1361.98 190.198 1361.2 194.625C1360.42 198.922 1359.45 203.74 1358.27 209.078C1357.23 214.417 1355.93 219.951 1354.37 225.68C1352.8 231.409 1351.05 236.617 1349.09 241.305C1347.27 245.992 1345.19 249.898 1342.84 253.023C1340.63 256.018 1338.22 257.516 1335.62 257.516C1333.01 257.516 1330.47 256.214 1328 253.609C1325.66 251.005 1323.44 247.75 1321.36 243.844C1319.41 239.807 1317.58 235.315 1315.89 230.367C1314.2 225.419 1312.7 220.667 1311.4 216.109C1310.23 211.422 1309.18 207.19 1308.27 203.414C1307.49 199.508 1306.91 196.578 1306.52 194.625C1305.99 196.318 1305.15 199.052 1303.98 202.828C1302.93 206.474 1301.57 210.641 1299.88 215.328C1298.18 219.885 1296.29 224.573 1294.21 229.391C1292.13 234.208 1289.91 238.635 1287.57 242.672C1285.36 246.708 1283.01 250.029 1280.54 252.633C1278.07 255.237 1275.59 256.539 1273.12 256.539C1269.86 256.539 1267 255.107 1264.52 252.242C1262.05 249.378 1259.97 245.732 1258.27 241.305C1256.58 236.747 1255.15 231.734 1253.98 226.266C1252.8 220.667 1251.89 215.198 1251.24 209.859C1250.59 204.391 1250.07 199.312 1249.68 194.625C1249.29 189.938 1249.03 186.227 1248.9 183.492C1248.51 177.242 1248.12 171.122 1247.73 165.133C1247.47 159.143 1247.34 153.023 1247.34 146.773C1247.34 144.56 1247.4 141.565 1247.53 137.789C1247.66 133.883 1248.12 130.107 1248.9 126.461C1249.81 122.685 1251.11 119.43 1252.8 116.695C1254.63 113.831 1257.23 112.268 1260.62 112.008C1263.48 111.878 1265.96 113.049 1268.04 115.523C1270.12 117.997 1271.88 121.318 1273.31 125.484C1274.74 129.521 1275.85 134.078 1276.63 139.156C1277.54 144.104 1278.2 148.922 1278.59 153.609C1279.11 158.297 1279.43 162.594 1279.56 166.5C1279.69 170.406 1279.69 173.271 1279.56 175.094L1279.37 180.172C1279.76 178.479 1280.41 175.81 1281.32 172.164C1282.36 168.518 1283.6 164.417 1285.03 159.859C1286.46 155.172 1287.96 150.419 1289.52 145.602C1291.22 140.654 1292.97 136.161 1294.8 132.125C1296.62 128.089 1298.44 124.768 1300.27 122.164C1302.09 119.43 1303.85 117.997 1305.54 117.867C1307.75 117.737 1309.84 119.039 1311.79 121.773C1313.87 124.508 1315.7 128.089 1317.26 132.516C1318.95 136.812 1320.45 141.63 1321.75 146.969C1323.05 152.307 1324.16 157.516 1325.07 162.594C1326.11 167.542 1326.89 172.034 1327.41 176.07C1327.93 180.107 1328.33 182.971 1328.59 184.664C1328.72 182.581 1329.04 179.326 1329.56 174.898C1330.08 170.341 1330.8 165.328 1331.71 159.859C1332.62 154.26 1333.73 148.596 1335.03 142.867C1336.46 137.008 1338.09 131.669 1339.91 126.852C1341.74 122.034 1343.82 118.128 1346.16 115.133C1348.51 112.008 1351.11 110.445 1353.98 110.445C1357.23 110.445 1359.84 111.552 1361.79 113.766C1363.74 115.849 1365.17 118.453 1366.09 121.578C1367 124.573 1367.58 127.763 1367.84 131.148C1368.1 134.404 1368.23 137.138 1368.23 139.352Z" fill="#FC377E"/>
<path d="M1467.2 223.336C1467.2 225.81 1466.55 228.219 1465.25 230.562C1463.95 232.776 1460.89 235.38 1456.07 238.375C1451.25 241.37 1445.91 244.234 1440.05 246.969C1434.2 249.573 1428.53 251.852 1423.06 253.805C1417.59 255.628 1413.56 256.539 1410.95 256.539C1409.13 256.539 1406.98 256.083 1404.51 255.172C1402.03 254.391 1399.56 253.349 1397.09 252.047C1394.61 250.745 1392.33 249.247 1390.25 247.555C1388.3 245.862 1386.86 244.234 1385.95 242.672C1385.43 241.76 1384.91 239.938 1384.39 237.203C1384 234.469 1383.61 231.279 1383.22 227.633C1382.96 223.987 1382.7 220.146 1382.44 216.109C1382.18 211.943 1381.92 208.036 1381.66 204.391C1381.53 200.615 1381.4 197.294 1381.27 194.43C1381.27 191.565 1381.27 189.482 1381.27 188.18C1381.27 183.362 1381.4 177.828 1381.66 171.578C1382.05 165.328 1382.7 159.078 1383.61 152.828C1384.52 146.448 1385.82 140.393 1387.52 134.664C1389.34 128.805 1391.75 123.857 1394.74 119.82C1395.65 118.648 1397.48 117.411 1400.21 116.109C1402.95 114.807 1406.14 113.57 1409.78 112.398C1413.56 111.227 1417.59 110.12 1421.89 109.078C1426.19 108.036 1430.29 107.19 1434.2 106.539C1438.23 105.758 1441.88 105.172 1445.13 104.781C1448.39 104.26 1450.86 104 1452.55 104C1454.51 104 1456.33 104.456 1458.02 105.367C1459.85 106.148 1461.34 107.255 1462.52 108.688C1463.82 110.12 1464.79 111.747 1465.45 113.57C1466.23 115.263 1466.62 117.086 1466.62 119.039C1466.62 120.732 1466.36 122.164 1465.84 123.336C1465.45 124.508 1464.79 125.81 1463.88 127.242C1462.58 128.935 1459.85 130.953 1455.68 133.297C1451.51 135.641 1446.96 137.984 1442.01 140.328C1437.19 142.542 1432.5 144.56 1427.95 146.383C1423.52 148.206 1420.39 149.508 1418.57 150.289C1418.05 153.284 1417.46 156.344 1416.81 159.469C1416.29 162.464 1415.9 165.523 1415.64 168.648C1419.68 166.565 1424.23 164.612 1429.31 162.789C1434.39 160.966 1439.21 160.055 1443.77 160.055C1453.01 160.055 1457.63 164.612 1457.63 173.727C1457.63 175.94 1457.18 177.893 1456.27 179.586C1455.48 181.279 1454.38 182.776 1452.95 184.078C1451.64 185.38 1450.08 186.552 1448.26 187.594C1446.57 188.505 1444.87 189.417 1443.18 190.328C1439.01 192.542 1434.65 194.495 1430.09 196.188C1425.54 197.75 1420.98 199.312 1416.42 200.875C1416.16 201.917 1415.9 203.089 1415.64 204.391C1415.38 205.562 1415.25 206.734 1415.25 207.906C1415.25 209.729 1415.38 211.552 1415.64 213.375C1415.9 215.198 1416.16 217.021 1416.42 218.844C1417.98 218.323 1420.46 217.477 1423.84 216.305C1427.36 215.133 1431.01 213.961 1434.78 212.789C1438.56 211.617 1442.2 210.641 1445.72 209.859C1449.23 208.948 1451.84 208.492 1453.53 208.492C1455.48 208.492 1457.31 208.948 1459 209.859C1460.69 210.641 1462.12 211.747 1463.3 213.18C1464.47 214.482 1465.38 216.044 1466.03 217.867C1466.81 219.69 1467.2 221.513 1467.2 223.336Z" fill="#FC377E"/>
<path d="M1568.32 138.57C1568.32 147.555 1566.11 155.758 1561.68 163.18C1557.25 170.471 1551.33 176.591 1543.91 181.539C1547.81 182.32 1551.2 183.688 1554.06 185.641C1556.93 187.464 1559.27 189.742 1561.09 192.477C1563.05 195.211 1564.48 198.336 1565.39 201.852C1566.43 205.237 1566.95 208.818 1566.95 212.594C1566.95 220.016 1565.2 226.526 1561.68 232.125C1558.29 237.594 1553.87 242.151 1548.4 245.797C1542.93 249.312 1536.81 251.982 1530.04 253.805C1523.4 255.497 1516.76 256.344 1510.12 256.344C1506.47 256.344 1502.83 256.083 1499.18 255.562C1495.53 255.042 1492.08 254.13 1488.83 252.828C1487.66 252.438 1486.68 250.875 1485.9 248.141C1485.12 245.276 1484.47 241.826 1483.95 237.789C1483.55 233.753 1483.23 229.391 1482.97 224.703C1482.71 220.016 1482.51 215.523 1482.38 211.227C1482.25 206.93 1482.19 203.154 1482.19 199.898C1482.19 196.643 1482.19 194.365 1482.19 193.062C1482.19 188.505 1482.19 183.948 1482.19 179.391C1482.19 174.703 1482.32 170.081 1482.58 165.523C1482.58 164.352 1482.58 162.529 1482.58 160.055C1482.71 157.581 1482.77 154.846 1482.77 151.852C1482.9 148.727 1483.03 145.471 1483.16 142.086C1483.42 138.701 1483.68 135.576 1483.95 132.711C1484.34 129.716 1484.79 127.177 1485.31 125.094C1485.96 123.01 1486.68 121.708 1487.46 121.188C1490.46 119.234 1493.78 117.411 1497.42 115.719C1501.07 113.896 1504.84 112.333 1508.75 111.031C1512.66 109.729 1516.56 108.688 1520.47 107.906C1524.38 107.125 1528.09 106.734 1531.6 106.734C1536.42 106.734 1541.04 107.451 1545.47 108.883C1550.03 110.185 1553.93 112.203 1557.19 114.938C1560.57 117.672 1563.24 121.057 1565.2 125.094C1567.28 129 1568.32 133.492 1568.32 138.57ZM1535.9 148.922C1535.9 146.708 1535.18 145.081 1533.75 144.039C1532.45 142.997 1530.69 142.477 1528.48 142.477C1526.65 142.477 1524.7 142.867 1522.62 143.648C1520.66 144.43 1518.97 145.471 1517.54 146.773C1517.15 147.164 1516.76 148.271 1516.37 150.094C1516.11 151.917 1515.85 154 1515.59 156.344C1515.46 158.557 1515.33 160.706 1515.2 162.789C1515.2 164.742 1515.2 166.044 1515.2 166.695C1515.2 166.956 1515.2 167.411 1515.2 168.062C1515.2 168.583 1515.2 169.169 1515.2 169.82C1515.33 170.471 1515.46 171.057 1515.59 171.578C1515.72 172.099 1515.91 172.359 1516.17 172.359C1518.39 172.359 1520.66 171.578 1523.01 170.016C1525.35 168.323 1527.43 166.305 1529.26 163.961C1531.21 161.487 1532.77 158.883 1533.95 156.148C1535.25 153.414 1535.9 151.005 1535.9 148.922ZM1535.12 205.367C1535.12 203.154 1534.34 201.591 1532.77 200.68C1531.21 199.768 1529.45 199.312 1527.5 199.312C1525.68 199.312 1523.72 199.768 1521.64 200.68C1519.69 201.461 1518.06 202.438 1516.76 203.609C1516.37 203.87 1516.04 204.521 1515.78 205.562C1515.65 206.604 1515.52 207.776 1515.39 209.078C1515.39 210.25 1515.33 211.422 1515.2 212.594C1515.2 213.635 1515.2 214.352 1515.2 214.742C1515.2 215.003 1515.2 215.523 1515.2 216.305C1515.2 217.086 1515.2 217.932 1515.2 218.844C1515.33 219.625 1515.46 220.406 1515.59 221.188C1515.85 221.839 1516.11 222.164 1516.37 222.164C1518.19 222.164 1520.21 221.643 1522.42 220.602C1524.64 219.56 1526.65 218.258 1528.48 216.695C1530.43 215.133 1531.99 213.375 1533.16 211.422C1534.47 209.339 1535.12 207.32 1535.12 205.367Z" fill="#FC377E"/>
<path d="M1669.44 154.586C1669.44 157.06 1669.11 159.664 1668.46 162.398C1667.94 165.133 1667.03 167.672 1665.73 170.016C1664.42 172.359 1662.73 174.312 1660.65 175.875C1658.57 177.438 1656.03 178.219 1653.03 178.219C1648.47 178.219 1645.09 177.438 1642.88 175.875C1640.66 174.182 1639.1 172.099 1638.19 169.625C1637.28 167.151 1636.76 164.547 1636.62 161.812C1636.62 158.948 1636.56 156.279 1636.43 153.805C1636.3 151.331 1635.84 149.312 1635.06 147.75C1634.41 146.057 1632.91 145.211 1630.57 145.211C1627.97 145.211 1625.69 146.188 1623.73 148.141C1621.78 149.964 1620.09 152.372 1618.66 155.367C1617.22 158.362 1615.99 161.747 1614.95 165.523C1614.03 169.299 1613.25 173.076 1612.6 176.852C1612.08 180.497 1611.69 184.013 1611.43 187.398C1611.17 190.654 1611.04 193.323 1611.04 195.406C1611.04 198.141 1611.1 201.396 1611.23 205.172C1611.49 208.948 1612.15 212.594 1613.19 216.109C1614.23 219.495 1615.79 222.424 1617.88 224.898C1619.96 227.242 1622.95 228.414 1626.86 228.414C1629.46 228.414 1632 228.089 1634.48 227.438C1636.95 226.786 1639.42 226.07 1641.9 225.289C1644.37 224.378 1646.85 223.596 1649.32 222.945C1651.92 222.294 1654.53 221.969 1657.13 221.969C1660.13 221.969 1662.6 223.206 1664.55 225.68C1666.51 228.023 1667.48 230.693 1667.48 233.688C1667.48 237.854 1666.18 241.76 1663.58 245.406C1660.97 248.922 1657.72 252.047 1653.81 254.781C1650.04 257.516 1645.87 259.664 1641.31 261.227C1636.89 262.789 1632.85 263.57 1629.2 263.57C1619.83 263.57 1611.89 261.422 1605.38 257.125C1598.86 252.958 1593.59 247.555 1589.55 240.914C1585.52 234.143 1582.59 226.656 1580.77 218.453C1579.07 210.12 1578.23 201.852 1578.23 193.648C1578.23 188.18 1578.75 182.19 1579.79 175.68C1580.83 169.169 1582.39 162.659 1584.48 156.148C1586.56 149.508 1589.16 143.128 1592.29 137.008C1595.54 130.888 1599.32 125.484 1603.62 120.797C1607.91 116.109 1612.73 112.333 1618.07 109.469C1623.54 106.604 1629.53 105.172 1636.04 105.172C1642.42 105.172 1647.76 106.799 1652.05 110.055C1656.35 113.18 1659.8 117.216 1662.41 122.164C1665.01 126.982 1666.83 132.32 1667.88 138.18C1668.92 143.909 1669.44 149.378 1669.44 154.586Z" fill="#FC377E"/>
<path d="M1781.88 225.094C1781.88 227.698 1781.62 230.823 1781.1 234.469C1780.71 238.115 1779.86 241.63 1778.56 245.016C1777.26 248.271 1775.5 251.07 1773.29 253.414C1771.08 255.628 1768.15 256.734 1764.5 256.734C1759.68 256.734 1756.04 254.977 1753.56 251.461C1751.22 247.945 1749.53 243.779 1748.48 238.961C1747.44 234.013 1746.79 229 1746.53 223.922C1746.4 218.844 1746.27 214.807 1746.14 211.812C1736.77 213.375 1727.52 214.742 1718.41 215.914C1718.15 218.909 1717.56 222.62 1716.65 227.047C1715.87 231.474 1714.57 235.771 1712.74 239.938C1711.05 243.974 1708.77 247.49 1705.91 250.484C1703.17 253.479 1699.79 254.977 1695.75 254.977C1692.62 254.977 1690.15 253.87 1688.33 251.656C1686.64 249.312 1685.33 246.578 1684.42 243.453C1683.51 240.328 1682.92 237.138 1682.66 233.883C1682.53 230.497 1682.47 227.698 1682.47 225.484C1682.47 218.062 1683.05 210.771 1684.23 203.609C1685.4 196.318 1686.77 189.091 1688.33 181.93C1689.11 178.154 1690.15 173.727 1691.45 168.648C1692.76 163.57 1694.32 158.362 1696.14 153.023C1698.09 147.555 1700.31 142.216 1702.78 137.008C1705.39 131.669 1708.32 126.917 1711.57 122.75C1714.83 118.583 1718.54 115.198 1722.7 112.594C1726.87 109.99 1731.49 108.688 1736.57 108.688C1741.52 108.688 1745.82 109.794 1749.46 112.008C1753.11 114.221 1756.3 117.151 1759.03 120.797C1761.77 124.443 1764.04 128.609 1765.87 133.297C1767.69 137.854 1769.19 142.542 1770.36 147.359C1771.66 152.047 1772.7 156.669 1773.48 161.227C1774.4 165.784 1775.18 169.82 1775.83 173.336C1777.52 181.799 1778.95 190.393 1780.12 199.117C1781.3 207.711 1781.88 216.37 1781.88 225.094ZM1744.19 177.633C1744.19 176.07 1744.06 173.531 1743.8 170.016C1743.67 166.37 1743.28 162.789 1742.62 159.273C1741.97 155.628 1740.93 152.438 1739.5 149.703C1738.2 146.839 1736.38 145.406 1734.03 145.406C1732.73 145.406 1731.49 146.318 1730.32 148.141C1729.15 149.833 1728.11 152.047 1727.2 154.781C1726.28 157.385 1725.44 160.315 1724.66 163.57C1724.01 166.826 1723.42 169.951 1722.9 172.945C1722.38 175.94 1721.99 178.674 1721.73 181.148C1721.47 183.492 1721.27 185.185 1721.14 186.227C1728.95 185.576 1736.64 184.599 1744.19 183.297V177.633Z" fill="#FC377E"/>
<path d="M1934.17 232.711C1933.78 236.096 1933.2 239.417 1932.41 242.672C1931.76 245.927 1930.92 248.857 1929.88 251.461C1928.83 253.935 1927.47 255.888 1925.77 257.32C1924.21 258.883 1922.39 259.664 1920.3 259.664C1918.22 259.664 1916.33 258.036 1914.64 254.781C1912.95 251.656 1911.32 247.49 1909.76 242.281C1908.33 236.943 1906.96 230.953 1905.66 224.312C1904.48 217.672 1903.38 210.966 1902.34 204.195C1901.42 197.294 1900.64 190.589 1899.99 184.078C1899.34 177.568 1898.82 171.904 1898.43 167.086C1897.65 172.034 1896.74 177.568 1895.7 183.688C1894.65 189.807 1893.42 196.057 1891.98 202.438C1890.55 208.688 1888.99 214.872 1887.3 220.992C1885.6 226.982 1883.78 232.385 1881.83 237.203C1879.88 241.891 1877.79 245.667 1875.58 248.531C1873.36 251.396 1871.02 252.828 1868.55 252.828C1866.33 252.828 1864.12 251.331 1861.91 248.336C1859.69 245.341 1857.54 241.435 1855.46 236.617C1853.38 231.669 1851.42 226.201 1849.6 220.211C1847.78 214.221 1846.09 208.232 1844.52 202.242C1842.96 196.122 1841.59 190.393 1840.42 185.055C1839.25 179.586 1838.34 175.029 1837.69 171.383C1837.69 174.117 1837.62 177.177 1837.49 180.562C1837.49 183.818 1837.49 186.161 1837.49 187.594C1837.49 188.245 1837.43 190.393 1837.3 194.039C1837.3 197.685 1837.1 202.047 1836.71 207.125C1836.32 212.203 1835.73 217.672 1834.95 223.531C1834.17 229.26 1833 234.599 1831.44 239.547C1830.01 244.495 1828.18 248.661 1825.97 252.047C1823.76 255.432 1821.02 257.255 1817.77 257.516C1815.16 256.344 1812.95 254.391 1811.12 251.656C1809.43 248.792 1808 245.471 1806.83 241.695C1805.66 237.919 1804.74 233.883 1804.09 229.586C1803.44 225.289 1802.92 221.122 1802.53 217.086C1802.14 212.919 1801.88 209.078 1801.75 205.562C1801.75 202.047 1801.75 199.182 1801.75 196.969C1801.75 193.062 1801.95 188.18 1802.34 182.32C1802.86 176.331 1803.64 170.081 1804.68 163.57C1805.72 157.06 1807.09 150.549 1808.78 144.039C1810.47 137.529 1812.49 131.734 1814.84 126.656C1817.31 121.448 1820.11 117.216 1823.23 113.961C1826.49 110.706 1830.2 109.078 1834.37 109.078C1836.32 109.078 1838.4 110.185 1840.62 112.398C1842.83 114.612 1845.04 117.542 1847.26 121.188C1849.47 124.703 1851.62 128.674 1853.7 133.102C1855.79 137.529 1857.74 142.021 1859.56 146.578C1861.52 151.005 1863.21 155.302 1864.64 159.469C1866.07 163.505 1867.24 166.956 1868.16 169.82C1869.2 166.695 1870.5 163.049 1872.06 158.883C1873.62 154.716 1875.32 150.419 1877.14 145.992C1879.09 141.435 1881.18 137.008 1883.39 132.711C1885.73 128.284 1888.14 124.378 1890.62 120.992C1893.09 117.477 1895.57 114.677 1898.04 112.594C1900.64 110.38 1903.25 109.273 1905.85 109.273C1910.41 109.273 1914.32 110.966 1917.57 114.352C1920.83 117.737 1923.56 122.164 1925.77 127.633C1927.99 132.971 1929.74 139.026 1931.05 145.797C1932.35 152.438 1933.33 159.078 1933.98 165.719C1934.76 172.229 1935.21 178.349 1935.34 184.078C1935.6 189.807 1935.73 194.43 1935.73 197.945C1935.73 199.378 1935.73 201.331 1935.73 203.805C1935.73 206.279 1935.67 209.078 1935.54 212.203C1935.54 215.328 1935.41 218.648 1935.15 222.164C1934.89 225.68 1934.56 229.195 1934.17 232.711Z" fill="#FC377E"/>
</g>
</g>
</svg>
