<svg width="516" height="515" viewBox="0 0 516 515" fill="none" xmlns="http://www.w3.org/2000/svg">
<g filter="url(#filter0_d_28_376)">
<rect x="258" y="16" width="320" height="320" rx="32" transform="rotate(45 258 16)" fill="white"/>
</g>
<path d="M232 154C230.409 154 228.883 154.632 227.757 155.757C226.632 156.883 226 158.409 226 160V196C226 197.591 226.632 199.117 227.757 200.243C228.883 201.368 230.409 202 232 202H270V200.584C268.273 198.622 267.052 196.268 266.443 193.726C265.833 191.184 265.854 188.532 266.504 186H264C263.47 186 262.961 185.789 262.586 185.414C262.211 185.039 262 184.53 262 184C262 183.47 262.211 182.961 262.586 182.586C262.961 182.211 263.47 182 264 182H268.14C269.19 180.179 270.588 178.582 272.255 177.302C273.922 176.022 275.825 175.082 277.855 174.538C279.885 173.994 282.003 173.855 284.087 174.13C286.171 174.405 288.18 175.088 290 176.14V160C290 158.409 289.368 156.883 288.243 155.757C287.117 154.632 285.591 154 284 154H232ZM244 178C242.409 178 240.883 177.368 239.757 176.243C238.632 175.117 238 173.591 238 172C238 170.409 238.632 168.883 239.757 167.757C240.883 166.632 242.409 166 244 166C245.591 166 247.117 166.632 248.243 167.757C249.368 168.883 250 170.409 250 172C250 173.591 249.368 175.117 248.243 176.243C247.117 177.368 245.591 178 244 178ZM250.204 181C251.21 181.001 252.175 181.401 252.887 182.113C253.599 182.825 253.999 183.79 254 184.796C254 188.184 251.692 191.136 248.404 191.96L248.168 192.02C245.432 192.7 242.568 192.7 239.832 192.02L239.592 191.96C237.995 191.56 236.577 190.638 235.563 189.34C234.55 188.042 234 186.443 234 184.796C234.001 183.79 234.401 182.825 235.113 182.113C235.825 181.401 236.79 181.001 237.796 181H250.204ZM262 172C262 171.47 262.211 170.961 262.586 170.586C262.961 170.211 263.47 170 264 170H276C276.53 170 277.039 170.211 277.414 170.586C277.789 170.961 278 171.47 278 172C278 172.53 277.789 173.039 277.414 173.414C277.039 173.789 276.53 174 276 174H264C263.47 174 262.961 173.789 262.586 173.414C262.211 173.039 262 172.53 262 172ZM294 190C294 193.183 292.736 196.235 290.485 198.485C288.235 200.736 285.183 202 282 202C278.817 202 275.765 200.736 273.515 198.485C271.264 196.235 270 193.183 270 190C270 186.817 271.264 183.765 273.515 181.515C275.765 179.264 278.817 178 282 178C285.183 178 288.235 179.264 290.485 181.515C292.736 183.765 294 186.817 294 190ZM290 203.86C287.569 205.266 284.809 206.004 282 206C279.191 206.004 276.431 205.266 274 203.86V213C274 213.177 274.047 213.35 274.135 213.503C274.224 213.656 274.352 213.783 274.506 213.87C274.659 213.958 274.833 214.003 275.01 214.001C275.187 213.999 275.36 213.951 275.512 213.86L282 210L288.488 213.86C288.64 213.951 288.813 213.999 288.99 214.001C289.167 214.003 289.341 213.958 289.494 213.87C289.648 213.783 289.776 213.656 289.865 213.503C289.953 213.35 290 213.177 290 213V203.86Z" fill="#18AFF0"/>
<mask id="mask0_28_376" style="mask-type:alpha" maskUnits="userSpaceOnUse" x="226" y="154" width="68" height="61">
<path d="M232 154C230.409 154 228.883 154.632 227.757 155.757C226.632 156.883 226 158.409 226 160V196C226 197.591 226.632 199.117 227.757 200.243C228.883 201.368 230.409 202 232 202H270V200.584C268.273 198.622 267.052 196.268 266.443 193.726C265.833 191.184 265.854 188.532 266.504 186H264C263.47 186 262.961 185.789 262.586 185.414C262.211 185.039 262 184.53 262 184C262 183.47 262.211 182.961 262.586 182.586C262.961 182.211 263.47 182 264 182H268.14C269.19 180.179 270.588 178.582 272.255 177.302C273.922 176.022 275.825 175.082 277.855 174.538C279.885 173.994 282.003 173.855 284.087 174.13C286.171 174.405 288.18 175.088 290 176.14V160C290 158.409 289.368 156.883 288.243 155.757C287.117 154.632 285.591 154 284 154H232ZM244 178C242.409 178 240.883 177.368 239.757 176.243C238.632 175.117 238 173.591 238 172C238 170.409 238.632 168.883 239.757 167.757C240.883 166.632 242.409 166 244 166C245.591 166 247.117 166.632 248.243 167.757C249.368 168.883 250 170.409 250 172C250 173.591 249.368 175.117 248.243 176.243C247.117 177.368 245.591 178 244 178ZM250.204 181C251.21 181.001 252.175 181.401 252.887 182.113C253.599 182.825 253.999 183.79 254 184.796C254 188.184 251.692 191.136 248.404 191.96L248.168 192.02C245.432 192.7 242.568 192.7 239.832 192.02L239.592 191.96C237.995 191.56 236.577 190.638 235.563 189.34C234.55 188.042 234 186.443 234 184.796C234.001 183.79 234.401 182.825 235.113 182.113C235.825 181.401 236.79 181.001 237.796 181H250.204ZM262 172C262 171.47 262.211 170.961 262.586 170.586C262.961 170.211 263.47 170 264 170H276C276.53 170 277.039 170.211 277.414 170.586C277.789 170.961 278 171.47 278 172C278 172.53 277.789 173.039 277.414 173.414C277.039 173.789 276.53 174 276 174H264C263.47 174 262.961 173.789 262.586 173.414C262.211 173.039 262 172.53 262 172ZM294 190C294 193.183 292.736 196.235 290.485 198.485C288.235 200.736 285.183 202 282 202C278.817 202 275.765 200.736 273.515 198.485C271.264 196.235 270 193.183 270 190C270 186.817 271.264 183.765 273.515 181.515C275.765 179.264 278.817 178 282 178C285.183 178 288.235 179.264 290.485 181.515C292.736 183.765 294 186.817 294 190ZM290 203.86C287.569 205.266 284.809 206.004 282 206C279.191 206.004 276.431 205.266 274 203.86V213C274 213.177 274.047 213.35 274.135 213.503C274.224 213.656 274.352 213.783 274.506 213.87C274.659 213.958 274.833 214.003 275.01 214.001C275.187 213.999 275.36 213.951 275.512 213.86L282 210L288.488 213.86C288.64 213.951 288.813 213.999 288.99 214.001C289.167 214.003 289.341 213.958 289.494 213.87C289.648 213.783 289.776 213.656 289.865 213.503C289.953 213.35 290 213.177 290 213V203.86Z" fill="#18AFF0"/>
</mask>
<g mask="url(#mask0_28_376)">
<path d="M269 188.5C269 181.596 274.596 176 281.5 176C288.404 176 294 181.596 294 188.5V214H269L272 202.5L269 194.5V188.5Z" fill="#FC377E"/>
</g>
<path d="M123.99 253.2H125.67V270H123.99V262.152H114.87V270H113.19V253.2H114.87V260.568H123.99V253.2ZM139.582 258H141.166V270H139.582V267.648C138.478 269.408 136.862 270.288 134.734 270.288C133.022 270.288 131.558 269.68 130.342 268.464C129.142 267.248 128.542 265.76 128.542 264C128.542 262.24 129.142 260.752 130.342 259.536C131.558 258.32 133.022 257.712 134.734 257.712C136.862 257.712 138.478 258.592 139.582 260.352V258ZM131.494 267.384C132.406 268.296 133.526 268.752 134.854 268.752C136.182 268.752 137.302 268.296 138.214 267.384C139.126 266.456 139.582 265.328 139.582 264C139.582 262.672 139.126 261.552 138.214 260.64C137.302 259.712 136.182 259.248 134.854 259.248C133.526 259.248 132.406 259.712 131.494 260.64C130.582 261.552 130.126 262.672 130.126 264C130.126 265.328 130.582 266.456 131.494 267.384ZM153.16 258H154.84L149.704 271.104C149.24 272.288 148.576 273.216 147.712 273.888C146.864 274.576 145.912 274.88 144.856 274.8V273.312C146.296 273.472 147.392 272.64 148.144 270.816L148.456 270.072L143.08 258H144.76L149.272 268.056L153.16 258ZM164.53 258H166.114V270H164.53V265.44C163.602 265.92 162.458 266.16 161.098 266.16C159.53 266.16 158.33 265.8 157.498 265.08C156.682 264.344 156.274 263.264 156.274 261.84V258H157.858V261.84C157.858 262.848 158.122 263.576 158.65 264.024C159.178 264.456 159.978 264.672 161.05 264.672C162.298 264.672 163.458 264.44 164.53 263.976V258ZM178.217 258H179.561V270H177.977V260.76L170.825 270H169.481V258H171.065V267.24L178.217 258ZM194.67 258V270H193.086V260.424L188.886 267.24H188.694L184.494 260.424V270H182.91V258H184.734L188.79 264.576L192.846 258H194.67ZM210.46 257.712C212.172 257.712 213.628 258.32 214.828 259.536C216.044 260.752 216.652 262.24 216.652 264C216.652 265.76 216.044 267.248 214.828 268.464C213.628 269.68 212.172 270.288 210.46 270.288C208.332 270.288 206.716 269.408 205.612 267.648V274.8H204.028V258H205.612V260.352C206.716 258.592 208.332 257.712 210.46 257.712ZM206.98 267.384C207.892 268.296 209.012 268.752 210.34 268.752C211.668 268.752 212.788 268.296 213.7 267.384C214.612 266.456 215.068 265.328 215.068 264C215.068 262.672 214.612 261.552 213.7 260.64C212.788 259.712 211.668 259.248 210.34 259.248C209.012 259.248 207.892 259.712 206.98 260.64C206.068 261.552 205.612 262.672 205.612 264C205.612 265.328 206.068 266.456 206.98 267.384ZM229.605 258H231.189V270H229.605V267.648C228.501 269.408 226.885 270.288 224.757 270.288C223.045 270.288 221.581 269.68 220.365 268.464C219.165 267.248 218.565 265.76 218.565 264C218.565 262.24 219.165 260.752 220.365 259.536C221.581 258.32 223.045 257.712 224.757 257.712C226.885 257.712 228.501 258.592 229.605 260.352V258ZM221.517 267.384C222.429 268.296 223.549 268.752 224.877 268.752C226.205 268.752 227.325 268.296 228.237 267.384C229.149 266.456 229.605 265.328 229.605 264C229.605 262.672 229.149 261.552 228.237 260.64C227.325 259.712 226.205 259.248 224.877 259.248C223.549 259.248 222.429 259.712 221.517 260.64C220.605 261.552 220.149 262.672 220.149 264C220.149 265.328 220.605 266.456 221.517 267.384ZM240.135 270.288C238.327 270.288 236.823 269.688 235.623 268.488C234.423 267.272 233.823 265.776 233.823 264C233.823 262.224 234.423 260.736 235.623 259.536C236.823 258.32 238.327 257.712 240.135 257.712C241.319 257.712 242.383 258 243.327 258.576C244.271 259.136 244.959 259.896 245.391 260.856L244.095 261.6C243.775 260.88 243.255 260.312 242.535 259.896C241.831 259.464 241.031 259.248 240.135 259.248C238.807 259.248 237.687 259.712 236.775 260.64C235.863 261.552 235.407 262.672 235.407 264C235.407 265.328 235.863 266.456 236.775 267.384C237.687 268.296 238.807 268.752 240.135 268.752C241.031 268.752 241.831 268.544 242.535 268.128C243.239 267.696 243.791 267.12 244.191 266.4L245.511 267.168C245.015 268.128 244.287 268.888 243.327 269.448C242.367 270.008 241.303 270.288 240.135 270.288ZM257.481 270H255.369L249.369 264.216V270H247.785V258H249.369V263.304L255.081 258H257.241L251.049 263.76L257.481 270ZM266.077 257.712C267.789 257.712 269.245 258.32 270.445 259.536C271.661 260.752 272.269 262.24 272.269 264C272.269 265.76 271.661 267.248 270.445 268.464C269.245 269.68 267.789 270.288 266.077 270.288C263.949 270.288 262.333 269.408 261.229 267.648V274.8H259.645V258H261.229V260.352C262.333 258.592 263.949 257.712 266.077 257.712ZM262.597 267.384C263.509 268.296 264.629 268.752 265.957 268.752C267.285 268.752 268.405 268.296 269.317 267.384C270.229 266.456 270.685 265.328 270.685 264C270.685 262.672 270.229 261.552 269.317 260.64C268.405 259.712 267.285 259.248 265.957 259.248C264.629 259.248 263.509 259.712 262.597 260.64C261.685 261.552 261.229 262.672 261.229 264C261.229 265.328 261.685 266.456 262.597 267.384ZM280.447 257.712C282.223 257.712 283.655 258.344 284.743 259.608C285.847 260.856 286.399 262.336 286.399 264.048C286.399 264.224 286.383 264.472 286.351 264.792H275.815C275.975 266.008 276.487 266.976 277.351 267.696C278.231 268.4 279.311 268.752 280.591 268.752C281.503 268.752 282.287 268.568 282.943 268.2C283.615 267.816 284.119 267.32 284.455 266.712L285.847 267.528C285.319 268.376 284.599 269.048 283.687 269.544C282.775 270.04 281.735 270.288 280.567 270.288C278.679 270.288 277.143 269.696 275.959 268.512C274.775 267.328 274.183 265.824 274.183 264C274.183 262.208 274.767 260.712 275.935 259.512C277.103 258.312 278.607 257.712 280.447 257.712ZM280.447 259.248C279.199 259.248 278.151 259.624 277.303 260.376C276.471 261.112 275.975 262.072 275.815 263.256H284.767C284.607 261.992 284.119 261.008 283.303 260.304C282.487 259.6 281.535 259.248 280.447 259.248ZM298.998 258V270H297.414V259.536H290.502V270H288.918V258H298.998ZM312.404 268.488C311.188 269.688 309.7 270.288 307.94 270.288C306.18 270.288 304.684 269.688 303.452 268.488C302.236 267.272 301.628 265.776 301.628 264C301.628 262.224 302.236 260.736 303.452 259.536C304.684 258.32 306.18 257.712 307.94 257.712C309.7 257.712 311.188 258.32 312.404 259.536C313.636 260.736 314.252 262.224 314.252 264C314.252 265.776 313.636 267.272 312.404 268.488ZM304.58 267.384C305.492 268.296 306.612 268.752 307.94 268.752C309.268 268.752 310.388 268.296 311.3 267.384C312.212 266.456 312.668 265.328 312.668 264C312.668 262.672 312.212 261.552 311.3 260.64C310.388 259.712 309.268 259.248 307.94 259.248C306.612 259.248 305.492 259.712 304.58 260.64C303.668 261.552 303.212 262.672 303.212 264C303.212 265.328 303.668 266.456 304.58 267.384ZM322.495 270.288C320.687 270.288 319.183 269.688 317.983 268.488C316.783 267.272 316.183 265.776 316.183 264C316.183 262.224 316.783 260.736 317.983 259.536C319.183 258.32 320.687 257.712 322.495 257.712C323.679 257.712 324.743 258 325.687 258.576C326.631 259.136 327.319 259.896 327.751 260.856L326.455 261.6C326.135 260.88 325.615 260.312 324.895 259.896C324.191 259.464 323.391 259.248 322.495 259.248C321.167 259.248 320.047 259.712 319.135 260.64C318.223 261.552 317.767 262.672 317.767 264C317.767 265.328 318.223 266.456 319.135 267.384C320.047 268.296 321.167 268.752 322.495 268.752C323.391 268.752 324.191 268.544 324.895 268.128C325.599 267.696 326.151 267.12 326.551 266.4L327.871 267.168C327.375 268.128 326.647 268.888 325.687 269.448C324.727 270.008 323.663 270.288 322.495 270.288ZM338.55 258V259.536H334.302V270H332.718V259.536H328.47V258H338.55ZM349.217 258H350.561V270H348.977V260.76L341.825 270H340.481V258H342.065V267.24L349.217 258ZM362.55 258V259.536H358.302V270H356.718V259.536H352.47V258H362.55ZM369.353 262.56C370.473 262.56 371.417 262.912 372.185 263.616C372.969 264.304 373.361 265.192 373.361 266.28C373.361 267.368 372.969 268.264 372.185 268.968C371.417 269.656 370.473 270 369.353 270H364.481V258H366.065V262.56H369.353ZM369.353 268.464C370.025 268.464 370.593 268.264 371.057 267.864C371.537 267.464 371.777 266.936 371.777 266.28C371.777 265.624 371.537 265.096 371.057 264.696C370.593 264.296 370.025 264.096 369.353 264.096H366.065V268.464H369.353ZM381.229 270.288C379.421 270.288 377.917 269.688 376.717 268.488C375.517 267.272 374.917 265.776 374.917 264C374.917 262.224 375.517 260.736 376.717 259.536C377.917 258.32 379.421 257.712 381.229 257.712C382.413 257.712 383.477 258 384.421 258.576C385.365 259.136 386.053 259.896 386.485 260.856L385.189 261.6C384.869 260.88 384.349 260.312 383.629 259.896C382.925 259.464 382.125 259.248 381.229 259.248C379.901 259.248 378.781 259.712 377.869 260.64C376.957 261.552 376.501 262.672 376.501 264C376.501 265.328 376.957 266.456 377.869 267.384C378.781 268.296 379.901 268.752 381.229 268.752C382.125 268.752 382.925 268.544 383.629 268.128C384.333 267.696 384.885 267.12 385.285 266.4L386.605 267.168C386.109 268.128 385.381 268.888 384.421 269.448C383.461 270.008 382.397 270.288 381.229 270.288ZM397.285 258V270H395.701V265.392H393.637L389.941 270H387.925L391.717 265.344C390.757 265.2 389.965 264.8 389.341 264.144C388.717 263.488 388.405 262.68 388.405 261.72C388.405 260.632 388.789 259.744 389.557 259.056C390.341 258.352 391.293 258 392.413 258H397.285ZM392.413 263.904H395.701V259.536H392.413C391.741 259.536 391.165 259.736 390.685 260.136C390.221 260.536 389.989 261.064 389.989 261.72C389.989 262.376 390.221 262.904 390.685 263.304C391.165 263.704 391.741 263.904 392.413 263.904ZM403.285 267.96L401.845 273.36H400.405L401.365 267.96H403.285ZM129.955 298V310H128.371V299.536H121.459V310H119.875V298H129.955ZM139.737 297.712C141.449 297.712 142.905 298.32 144.105 299.536C145.321 300.752 145.929 302.24 145.929 304C145.929 305.76 145.321 307.248 144.105 308.464C142.905 309.68 141.449 310.288 139.737 310.288C137.609 310.288 135.993 309.408 134.889 307.648V314.8H133.305V298H134.889V300.352C135.993 298.592 137.609 297.712 139.737 297.712ZM136.257 307.384C137.169 308.296 138.289 308.752 139.617 308.752C140.945 308.752 142.065 308.296 142.977 307.384C143.889 306.456 144.345 305.328 144.345 304C144.345 302.672 143.889 301.552 142.977 300.64C142.065 299.712 140.945 299.248 139.617 299.248C138.289 299.248 137.169 299.712 136.257 300.64C135.345 301.552 134.889 302.672 134.889 304C134.889 305.328 135.345 306.456 136.257 307.384ZM158.619 308.488C157.403 309.688 155.915 310.288 154.155 310.288C152.395 310.288 150.899 309.688 149.667 308.488C148.451 307.272 147.843 305.776 147.843 304C147.843 302.224 148.451 300.736 149.667 299.536C150.899 298.32 152.395 297.712 154.155 297.712C155.915 297.712 157.403 298.32 158.619 299.536C159.851 300.736 160.467 302.224 160.467 304C160.467 305.776 159.851 307.272 158.619 308.488ZM150.795 307.384C151.707 308.296 152.827 308.752 154.155 308.752C155.483 308.752 156.603 308.296 157.515 307.384C158.427 306.456 158.883 305.328 158.883 304C158.883 302.672 158.427 301.552 157.515 300.64C156.603 299.712 155.483 299.248 154.155 299.248C152.827 299.248 151.707 299.712 150.795 300.64C149.883 301.552 149.427 302.672 149.427 304C149.427 305.328 149.883 306.456 150.795 307.384ZM165.038 296.08V294.688H171.278V296.08H165.038ZM171.854 298H173.198V310H171.614V300.76L164.462 310H163.118V298H164.702V307.24L171.854 298ZM186.627 308.464H188.307V313.216H186.723V310H176.931V313.216H175.347V308.464H176.811C177.627 307.392 178.035 305.88 178.035 303.928V298H186.627V308.464ZM178.731 308.464H185.043V299.536H179.619V303.928C179.619 305.768 179.323 307.28 178.731 308.464ZM199.439 298H200.783V310H199.199V300.76L192.047 310H190.703V298H192.287V307.24L199.439 298ZM212.773 298V299.536H208.525V310H206.941V299.536H202.693V298H212.773ZM219.779 297.712C221.555 297.712 222.987 298.344 224.075 299.608C225.179 300.856 225.731 302.336 225.731 304.048C225.731 304.224 225.715 304.472 225.683 304.792H215.147C215.307 306.008 215.819 306.976 216.683 307.696C217.563 308.4 218.643 308.752 219.923 308.752C220.835 308.752 221.619 308.568 222.275 308.2C222.947 307.816 223.451 307.32 223.787 306.712L225.179 307.528C224.651 308.376 223.931 309.048 223.019 309.544C222.107 310.04 221.067 310.288 219.899 310.288C218.011 310.288 216.475 309.696 215.291 308.512C214.107 307.328 213.515 305.824 213.515 304C213.515 302.208 214.099 300.712 215.267 299.512C216.435 298.312 217.939 297.712 219.779 297.712ZM219.779 299.248C218.531 299.248 217.483 299.624 216.635 300.376C215.803 301.112 215.307 302.072 215.147 303.256H224.099C223.939 301.992 223.451 301.008 222.635 300.304C221.819 299.6 220.867 299.248 219.779 299.248ZM244.69 310H241.594L236.674 304.456V310H234.082V298H236.674V303.304L241.33 298H244.498L239.218 303.88L244.69 310ZM254.288 298H257.048L252.44 310.384C251.88 311.904 251.096 313.04 250.088 313.792C249.08 314.544 247.912 314.88 246.584 314.8V312.376C247.4 312.424 248.056 312.256 248.552 311.872C249.064 311.504 249.472 310.904 249.776 310.072L249.848 309.904L244.808 298H247.568L251.216 306.736L254.288 298ZM265.46 297.688C267.108 297.688 268.516 298.304 269.684 299.536C270.852 300.752 271.436 302.24 271.436 304C271.436 305.776 270.852 307.272 269.684 308.488C268.516 309.704 267.108 310.312 265.46 310.312C263.636 310.312 262.236 309.64 261.26 308.296V314.8H258.668V298H261.26V299.728C262.236 298.368 263.636 297.688 265.46 297.688ZM262.34 306.76C263.06 307.48 263.964 307.84 265.052 307.84C266.14 307.84 267.044 307.48 267.764 306.76C268.484 306.024 268.844 305.104 268.844 304C268.844 302.896 268.484 301.984 267.764 301.264C267.044 300.528 266.14 300.16 265.052 300.16C263.964 300.16 263.06 300.528 262.34 301.264C261.62 301.984 261.26 302.896 261.26 304C261.26 305.104 261.62 306.024 262.34 306.76ZM279.449 310.312C277.641 310.312 276.129 309.704 274.913 308.488C273.713 307.272 273.113 305.776 273.113 304C273.113 302.208 273.713 300.712 274.913 299.512C276.129 298.296 277.641 297.688 279.449 297.688C280.617 297.688 281.681 297.968 282.641 298.528C283.601 299.088 284.321 299.84 284.801 300.784L282.569 302.08C282.297 301.504 281.881 301.056 281.321 300.736C280.777 300.4 280.145 300.232 279.425 300.232C278.369 300.232 277.481 300.592 276.761 301.312C276.057 302.032 275.705 302.928 275.705 304C275.705 305.072 276.057 305.968 276.761 306.688C277.481 307.408 278.369 307.768 279.425 307.768C280.129 307.768 280.761 307.6 281.321 307.264C281.897 306.928 282.329 306.48 282.617 305.92L284.849 307.192C284.337 308.152 283.601 308.912 282.641 309.472C281.681 310.032 280.617 310.312 279.449 310.312ZM298.457 310.312C296.697 310.312 295.201 309.704 293.969 308.488C292.737 307.272 292.121 305.776 292.121 304C292.121 302.224 292.737 300.728 293.969 299.512C295.201 298.296 296.697 297.688 298.457 297.688C300.233 297.688 301.729 298.296 302.945 299.512C304.177 300.728 304.793 302.224 304.793 304C304.793 305.776 304.177 307.272 302.945 308.488C301.729 309.704 300.233 310.312 298.457 310.312ZM295.793 306.712C296.513 307.432 297.401 307.792 298.457 307.792C299.513 307.792 300.401 307.432 301.121 306.712C301.841 305.992 302.201 305.088 302.201 304C302.201 302.912 301.841 302.008 301.121 301.288C300.401 300.568 299.513 300.208 298.457 300.208C297.401 300.208 296.513 300.568 295.793 301.288C295.073 302.008 294.713 302.912 294.713 304C294.713 305.088 295.073 305.992 295.793 306.712ZM312.705 310.312C310.865 310.312 309.361 309.72 308.193 308.536C307.041 307.336 306.465 305.808 306.465 303.952C306.465 301.92 306.769 300.352 307.377 299.248C307.985 298.128 309.217 297.112 311.073 296.2C311.377 296.056 311.825 295.848 312.417 295.576C313.025 295.304 313.441 295.112 313.665 295C313.889 294.872 314.169 294.696 314.505 294.472C314.841 294.232 315.089 293.984 315.249 293.728C315.409 293.456 315.537 293.136 315.633 292.768L317.745 293.992C317.681 294.344 317.577 294.672 317.433 294.976C317.289 295.264 317.081 295.536 316.809 295.792C316.537 296.048 316.297 296.256 316.089 296.416C315.897 296.576 315.569 296.768 315.105 296.992C314.641 297.216 314.297 297.376 314.073 297.472C313.865 297.568 313.465 297.736 312.873 297.976C311.817 298.392 311.041 298.824 310.545 299.272C310.065 299.704 309.729 300.248 309.537 300.904C310.497 299.816 311.801 299.272 313.449 299.272C314.857 299.272 316.081 299.776 317.121 300.784C318.177 301.792 318.705 303.096 318.705 304.696C318.705 306.328 318.145 307.672 317.025 308.728C315.921 309.784 314.481 310.312 312.705 310.312ZM312.681 307.888C313.689 307.888 314.513 307.592 315.153 307C315.793 306.392 316.113 305.624 316.113 304.696C316.113 303.752 315.793 302.976 315.153 302.368C314.529 301.76 313.713 301.456 312.705 301.456C311.809 301.456 311.001 301.744 310.281 302.32C309.561 302.88 309.201 303.632 309.201 304.576C309.201 305.536 309.537 306.328 310.209 306.952C310.881 307.576 311.705 307.888 312.681 307.888ZM328.373 298H331.133L326.525 310.384C325.965 311.904 325.181 313.04 324.173 313.792C323.165 314.544 321.997 314.88 320.669 314.8V312.376C321.485 312.424 322.141 312.256 322.637 311.872C323.149 311.504 323.557 310.904 323.861 310.072L323.933 309.904L318.893 298H321.653L325.301 306.736L328.373 298ZM340.05 298H342.642V310H340.05V305.944C339.09 306.296 338.082 306.472 337.026 306.472C335.538 306.472 334.362 306.104 333.498 305.368C332.634 304.632 332.202 303.552 332.202 302.128V298H334.794V301.888C334.794 303.328 335.65 304.048 337.362 304.048C338.37 304.048 339.266 303.864 340.05 303.496V298ZM347.708 305.104C347.9 306.016 348.34 306.72 349.028 307.216C349.716 307.696 350.556 307.936 351.548 307.936C352.924 307.936 353.956 307.44 354.644 306.448L356.78 307.696C355.596 309.44 353.844 310.312 351.524 310.312C349.572 310.312 347.996 309.72 346.796 308.536C345.596 307.336 344.996 305.824 344.996 304C344.996 302.208 345.588 300.712 346.772 299.512C347.956 298.296 349.476 297.688 351.332 297.688C353.092 297.688 354.532 298.304 355.652 299.536C356.788 300.768 357.356 302.264 357.356 304.024C357.356 304.296 357.324 304.656 357.26 305.104H347.708ZM347.684 302.992H354.74C354.564 302.016 354.156 301.28 353.516 300.784C352.892 300.288 352.156 300.04 351.308 300.04C350.348 300.04 349.548 300.304 348.908 300.832C348.268 301.36 347.86 302.08 347.684 302.992ZM367.725 298H370.317V310H367.725V305.224H362.229V310H359.637V298H362.229V302.776H367.725V298ZM382.013 298H384.005V310H381.461V302.368L375.317 310H373.325V298H375.869V305.608L382.013 298ZM396.3 298V310H393.756V305.968H392.316L389.268 310H386.22L389.46 305.728C388.628 305.456 387.956 304.976 387.444 304.288C386.948 303.6 386.7 302.832 386.7 301.984C386.7 300.88 387.092 299.944 387.876 299.176C388.676 298.392 389.7 298 390.948 298H396.3ZM391.092 303.736H393.756V300.352H391.092C390.564 300.352 390.124 300.504 389.772 300.808C389.42 301.112 389.244 301.528 389.244 302.056C389.244 302.568 389.42 302.976 389.772 303.28C390.124 303.584 390.564 303.736 391.092 303.736ZM204.365 350.312C202.525 350.312 201.021 349.72 199.853 348.536C198.701 347.336 198.125 345.808 198.125 343.952C198.125 341.92 198.429 340.352 199.037 339.248C199.645 338.128 200.877 337.112 202.733 336.2C203.037 336.056 203.485 335.848 204.077 335.576C204.685 335.304 205.101 335.112 205.325 335C205.549 334.872 205.829 334.696 206.165 334.472C206.501 334.232 206.749 333.984 206.909 333.728C207.069 333.456 207.197 333.136 207.293 332.768L209.405 333.992C209.341 334.344 209.237 334.672 209.093 334.976C208.949 335.264 208.741 335.536 208.469 335.792C208.197 336.048 207.957 336.256 207.749 336.416C207.557 336.576 207.229 336.768 206.765 336.992C206.301 337.216 205.957 337.376 205.733 337.472C205.525 337.568 205.125 337.736 204.533 337.976C203.477 338.392 202.701 338.824 202.205 339.272C201.725 339.704 201.389 340.248 201.197 340.904C202.157 339.816 203.461 339.272 205.109 339.272C206.517 339.272 207.741 339.776 208.781 340.784C209.837 341.792 210.365 343.096 210.365 344.696C210.365 346.328 209.805 347.672 208.685 348.728C207.581 349.784 206.141 350.312 204.365 350.312ZM204.341 347.888C205.349 347.888 206.173 347.592 206.813 347C207.453 346.392 207.773 345.624 207.773 344.696C207.773 343.752 207.453 342.976 206.813 342.368C206.189 341.76 205.373 341.456 204.365 341.456C203.469 341.456 202.661 341.744 201.941 342.32C201.221 342.88 200.861 343.632 200.861 344.576C200.861 345.536 201.197 346.328 201.869 346.952C202.541 347.576 203.365 347.888 204.341 347.888ZM214.454 345.104C214.646 346.016 215.086 346.72 215.774 347.216C216.462 347.696 217.302 347.936 218.294 347.936C219.67 347.936 220.702 347.44 221.39 346.448L223.526 347.696C222.342 349.44 220.59 350.312 218.27 350.312C216.318 350.312 214.742 349.72 213.542 348.536C212.342 347.336 211.742 345.824 211.742 344C211.742 342.208 212.334 340.712 213.518 339.512C214.702 338.296 216.222 337.688 218.078 337.688C219.838 337.688 221.278 338.304 222.398 339.536C223.534 340.768 224.102 342.264 224.102 344.024C224.102 344.296 224.07 344.656 224.006 345.104H214.454ZM214.43 342.992H221.486C221.31 342.016 220.902 341.28 220.262 340.784C219.638 340.288 218.902 340.04 218.054 340.04C217.094 340.04 216.294 340.304 215.654 340.832C215.014 341.36 214.606 342.08 214.43 342.992ZM231.977 350.312C230.169 350.312 228.657 349.704 227.441 348.488C226.241 347.272 225.641 345.776 225.641 344C225.641 342.208 226.241 340.712 227.441 339.512C228.657 338.296 230.169 337.688 231.977 337.688C233.145 337.688 234.209 337.968 235.169 338.528C236.129 339.088 236.849 339.84 237.329 340.784L235.097 342.08C234.825 341.504 234.409 341.056 233.849 340.736C233.305 340.4 232.673 340.232 231.953 340.232C230.897 340.232 230.009 340.592 229.289 341.312C228.585 342.032 228.233 342.928 228.233 344C228.233 345.072 228.585 345.968 229.289 346.688C230.009 347.408 230.897 347.768 231.953 347.768C232.657 347.768 233.289 347.6 233.849 347.264C234.425 346.928 234.857 346.48 235.145 345.92L237.377 347.192C236.865 348.152 236.129 348.912 235.169 349.472C234.209 350.032 233.145 350.312 231.977 350.312ZM250.001 338V350H247.409V340.448H241.913V350H239.321V338H250.001ZM263.136 338V350H260.544V340.496H256.536V344.96C256.536 346.864 256.12 348.216 255.288 349.016C254.456 349.816 253.272 350.144 251.736 350V347.576C252.472 347.704 253.024 347.552 253.392 347.12C253.76 346.688 253.944 345.928 253.944 344.84V338H263.136ZM275.661 338H278.253V350H275.661V348.272C274.685 349.632 273.285 350.312 271.461 350.312C269.813 350.312 268.405 349.704 267.237 348.488C266.069 347.256 265.485 345.76 265.485 344C265.485 342.224 266.069 340.728 267.237 339.512C268.405 338.296 269.813 337.688 271.461 337.688C273.285 337.688 274.685 338.36 275.661 339.704V338ZM269.157 346.76C269.877 347.48 270.781 347.84 271.869 347.84C272.957 347.84 273.861 347.48 274.581 346.76C275.301 346.024 275.661 345.104 275.661 344C275.661 342.896 275.301 341.984 274.581 341.264C273.861 340.528 272.957 340.16 271.869 340.16C270.781 340.16 269.877 340.528 269.157 341.264C268.437 341.984 268.077 342.896 268.077 344C268.077 345.104 268.437 346.024 269.157 346.76ZM290.442 338V340.496H286.53V350H283.938V340.496H280.002V338H290.442ZM300.284 338H302.876V350H300.284V345.224H294.788V350H292.196V338H294.788V342.776H300.284V338ZM311.547 350.312C309.787 350.312 308.291 349.704 307.059 348.488C305.827 347.272 305.211 345.776 305.211 344C305.211 342.224 305.827 340.728 307.059 339.512C308.291 338.296 309.787 337.688 311.547 337.688C313.323 337.688 314.819 338.296 316.035 339.512C317.267 340.728 317.883 342.224 317.883 344C317.883 345.776 317.267 347.272 316.035 348.488C314.819 349.704 313.323 350.312 311.547 350.312ZM308.883 346.712C309.603 347.432 310.491 347.792 311.547 347.792C312.603 347.792 313.491 347.432 314.211 346.712C314.931 345.992 315.291 345.088 315.291 344C315.291 342.912 314.931 342.008 314.211 341.288C313.491 340.568 312.603 340.208 311.547 340.208C310.491 340.208 309.603 340.568 308.883 341.288C308.163 342.008 307.803 342.912 307.803 344C307.803 345.088 308.163 345.992 308.883 346.712Z" fill="#5B5B87"/>
<defs>
<filter id="filter0_d_28_376" x="0.980671" y="0.254883" width="514.039" height="514.039" filterUnits="userSpaceOnUse" color-interpolation-filters="sRGB">
<feFlood flood-opacity="0" result="BackgroundImageFix"/>
<feColorMatrix in="SourceAlpha" type="matrix" values="0 0 0 0 0 0 0 0 0 0 0 0 0 0 0 0 0 0 127 0" result="hardAlpha"/>
<feOffset dy="15"/>
<feGaussianBlur stdDeviation="22"/>
<feColorMatrix type="matrix" values="0 0 0 0 0.0509804 0 0 0 0 0.0588235 0 0 0 0 0.109804 0 0 0 0.06 0"/>
<feBlend mode="normal" in2="BackgroundImageFix" result="effect1_dropShadow_28_376"/>
<feBlend mode="normal" in="SourceGraphic" in2="effect1_dropShadow_28_376" result="shape"/>
</filter>
</defs>
</svg>
