<svg width="516" height="515" viewBox="0 0 516 515" fill="none" xmlns="http://www.w3.org/2000/svg">
<g filter="url(#filter0_d_28_366)">
<rect x="258" y="16" width="320" height="320" rx="32" transform="rotate(45 258 16)" fill="white"/>
</g>
<path d="M111.369 241.288C113.081 242.104 113.937 243.456 113.937 245.344C113.937 246.816 113.377 248.016 112.257 248.944C111.153 249.856 109.705 250.312 107.913 250.312C104.841 250.312 102.809 249.016 101.817 246.424L104.193 245.056C104.689 246.832 105.929 247.72 107.913 247.72C108.969 247.72 109.777 247.496 110.337 247.048C110.897 246.584 111.177 245.968 111.177 245.2C111.177 244.448 110.905 243.848 110.361 243.4C109.833 242.936 109.081 242.704 108.105 242.704H106.065V240.208H107.553C108.497 240.208 109.233 239.992 109.761 239.56C110.289 239.128 110.553 238.552 110.553 237.832C110.553 237.112 110.313 236.544 109.833 236.128C109.353 235.696 108.665 235.48 107.769 235.48C106.105 235.48 104.985 236.24 104.409 237.76L102.057 236.392C103.145 234.056 105.049 232.888 107.769 232.888C109.417 232.888 110.753 233.336 111.777 234.232C112.801 235.112 113.313 236.264 113.313 237.688C113.313 239.272 112.665 240.472 111.369 241.288ZM125.684 238H128.276V250H125.684V248.272C124.708 249.632 123.308 250.312 121.484 250.312C119.836 250.312 118.428 249.704 117.26 248.488C116.092 247.256 115.508 245.76 115.508 244C115.508 242.224 116.092 240.728 117.26 239.512C118.428 238.296 119.836 237.688 121.484 237.688C123.308 237.688 124.708 238.36 125.684 239.704V238ZM119.18 246.76C119.9 247.48 120.804 247.84 121.892 247.84C122.98 247.84 123.884 247.48 124.604 246.76C125.324 246.024 125.684 245.104 125.684 244C125.684 242.896 125.324 241.984 124.604 241.264C123.884 240.528 122.98 240.16 121.892 240.16C120.804 240.16 119.9 240.528 119.18 241.264C118.46 241.984 118.1 242.896 118.1 244C118.1 245.104 118.46 246.024 119.18 246.76ZM138.089 237.688C139.737 237.688 141.145 238.304 142.313 239.536C143.481 240.752 144.065 242.24 144.065 244C144.065 245.776 143.481 247.272 142.313 248.488C141.145 249.704 139.737 250.312 138.089 250.312C136.265 250.312 134.865 249.64 133.889 248.296V254.8H131.297V238H133.889V239.728C134.865 238.368 136.265 237.688 138.089 237.688ZM134.969 246.76C135.689 247.48 136.593 247.84 137.681 247.84C138.769 247.84 139.673 247.48 140.393 246.76C141.113 246.024 141.473 245.104 141.473 244C141.473 242.896 141.113 241.984 140.393 241.264C139.673 240.528 138.769 240.16 137.681 240.16C136.593 240.16 135.689 240.528 134.969 241.264C134.249 241.984 133.889 242.896 133.889 244C133.889 245.104 134.249 246.024 134.969 246.76ZM155.918 238H158.51V250H155.918V248.272C154.942 249.632 153.542 250.312 151.718 250.312C150.07 250.312 148.662 249.704 147.494 248.488C146.326 247.256 145.742 245.76 145.742 244C145.742 242.224 146.326 240.728 147.494 239.512C148.662 238.296 150.07 237.688 151.718 237.688C153.542 237.688 154.942 238.36 155.918 239.704V238ZM149.414 246.76C150.134 247.48 151.038 247.84 152.126 247.84C153.214 247.84 154.118 247.48 154.838 246.76C155.558 246.024 155.918 245.104 155.918 244C155.918 242.896 155.558 241.984 154.838 241.264C154.118 240.528 153.214 240.16 152.126 240.16C151.038 240.16 150.134 240.528 149.414 241.264C148.694 241.984 148.334 242.896 148.334 244C148.334 245.104 148.694 246.024 149.414 246.76ZM167.1 250.312C165.26 250.312 163.756 249.72 162.588 248.536C161.436 247.336 160.86 245.808 160.86 243.952C160.86 241.92 161.164 240.352 161.772 239.248C162.38 238.128 163.612 237.112 165.468 236.2C165.772 236.056 166.22 235.848 166.812 235.576C167.42 235.304 167.836 235.112 168.06 235C168.284 234.872 168.564 234.696 168.9 234.472C169.236 234.232 169.484 233.984 169.644 233.728C169.804 233.456 169.932 233.136 170.028 232.768L172.14 233.992C172.076 234.344 171.972 234.672 171.828 234.976C171.684 235.264 171.476 235.536 171.204 235.792C170.932 236.048 170.692 236.256 170.484 236.416C170.292 236.576 169.964 236.768 169.5 236.992C169.036 237.216 168.692 237.376 168.468 237.472C168.26 237.568 167.86 237.736 167.268 237.976C166.212 238.392 165.436 238.824 164.94 239.272C164.46 239.704 164.124 240.248 163.932 240.904C164.892 239.816 166.196 239.272 167.844 239.272C169.252 239.272 170.476 239.776 171.516 240.784C172.572 241.792 173.1 243.096 173.1 244.696C173.1 246.328 172.54 247.672 171.42 248.728C170.316 249.784 168.876 250.312 167.1 250.312ZM167.076 247.888C168.084 247.888 168.908 247.592 169.548 247C170.188 246.392 170.508 245.624 170.508 244.696C170.508 243.752 170.188 242.976 169.548 242.368C168.924 241.76 168.108 241.456 167.1 241.456C166.204 241.456 165.396 241.744 164.676 242.32C163.956 242.88 163.596 243.632 163.596 244.576C163.596 245.536 163.932 246.328 164.604 246.952C165.276 247.576 166.1 247.888 167.076 247.888ZM184.653 238H187.245V250H184.653V248.272C183.677 249.632 182.277 250.312 180.453 250.312C178.805 250.312 177.397 249.704 176.229 248.488C175.061 247.256 174.477 245.76 174.477 244C174.477 242.224 175.061 240.728 176.229 239.512C177.397 238.296 178.805 237.688 180.453 237.688C182.277 237.688 183.677 238.36 184.653 239.704V238ZM178.149 246.76C178.869 247.48 179.773 247.84 180.861 247.84C181.949 247.84 182.853 247.48 183.573 246.76C184.293 246.024 184.653 245.104 184.653 244C184.653 242.896 184.293 241.984 183.573 241.264C182.853 240.528 181.949 240.16 180.861 240.16C179.773 240.16 178.869 240.528 178.149 241.264C177.429 241.984 177.069 242.896 177.069 244C177.069 245.104 177.429 246.024 178.149 246.76ZM199.434 238V240.496H195.522V250H192.93V240.496H188.994V238H199.434ZM206.42 242.08C207.7 242.08 208.748 242.448 209.564 243.184C210.38 243.904 210.788 244.856 210.788 246.04C210.788 247.208 210.38 248.16 209.564 248.896C208.748 249.632 207.7 250 206.42 250H201.188V238H203.78V242.08H206.42ZM212.228 238H214.82V250H212.228V238ZM206.444 247.672C206.956 247.672 207.38 247.52 207.716 247.216C208.068 246.912 208.244 246.52 208.244 246.04C208.244 245.544 208.068 245.152 207.716 244.864C207.38 244.56 206.956 244.408 206.444 244.408H203.78V247.672H206.444ZM226.132 243.832C227.316 244.376 227.908 245.296 227.908 246.592C227.908 247.6 227.564 248.424 226.876 249.064C226.204 249.688 225.236 250 223.972 250H217.828V238H223.492C224.724 238 225.676 238.312 226.348 238.936C227.036 239.544 227.38 240.336 227.38 241.312C227.38 242.448 226.964 243.288 226.132 243.832ZM223.3 240.208H220.3V242.872H223.3C224.356 242.872 224.884 242.424 224.884 241.528C224.884 240.648 224.356 240.208 223.3 240.208ZM223.732 247.744C224.82 247.744 225.364 247.272 225.364 246.328C225.364 245.912 225.22 245.592 224.932 245.368C224.644 245.128 224.244 245.008 223.732 245.008H220.3V247.744H223.732ZM239.52 238H242.112V250H239.52V248.272C238.544 249.632 237.144 250.312 235.32 250.312C233.672 250.312 232.264 249.704 231.096 248.488C229.928 247.256 229.344 245.76 229.344 244C229.344 242.224 229.928 240.728 231.096 239.512C232.264 238.296 233.672 237.688 235.32 237.688C237.144 237.688 238.544 238.36 239.52 239.704V238ZM233.016 246.76C233.736 247.48 234.64 247.84 235.728 247.84C236.816 247.84 237.72 247.48 238.44 246.76C239.16 246.024 239.52 245.104 239.52 244C239.52 242.896 239.16 241.984 238.44 241.264C237.72 240.528 236.816 240.16 235.728 240.16C234.64 240.16 233.736 240.528 233.016 241.264C232.296 241.984 231.936 242.896 231.936 244C231.936 245.104 232.296 246.024 233.016 246.76ZM247.101 236.32V234.064H253.821V236.32H247.101ZM253.821 238H255.813V250H253.269V242.368L247.125 250H245.133V238H247.677V245.608L253.821 238ZM267.989 238V240.496H264.077V250H261.485V240.496H257.549V238H267.989ZM271.314 245.104C271.506 246.016 271.946 246.72 272.634 247.216C273.322 247.696 274.162 247.936 275.154 247.936C276.53 247.936 277.562 247.44 278.25 246.448L280.386 247.696C279.202 249.44 277.45 250.312 275.13 250.312C273.178 250.312 271.602 249.72 270.402 248.536C269.202 247.336 268.602 245.824 268.602 244C268.602 242.208 269.194 240.712 270.378 239.512C271.562 238.296 273.082 237.688 274.938 237.688C276.698 237.688 278.138 238.304 279.258 239.536C280.394 240.768 280.962 242.264 280.962 244.024C280.962 244.296 280.93 244.656 280.866 245.104H271.314ZM271.29 242.992H278.346C278.17 242.016 277.762 241.28 277.122 240.784C276.498 240.288 275.762 240.04 274.914 240.04C273.954 240.04 273.154 240.304 272.514 240.832C271.874 241.36 271.466 242.08 271.29 242.992ZM299.85 250H296.754L291.834 244.456V250H289.242V238H291.834V243.304L296.49 238H299.658L294.378 243.88L299.85 250ZM308.386 237.688C310.034 237.688 311.442 238.304 312.61 239.536C313.778 240.752 314.362 242.24 314.362 244C314.362 245.776 313.778 247.272 312.61 248.488C311.442 249.704 310.034 250.312 308.386 250.312C306.562 250.312 305.162 249.64 304.186 248.296V254.8H301.594V238H304.186V239.728C305.162 238.368 306.562 237.688 308.386 237.688ZM305.266 246.76C305.986 247.48 306.89 247.84 307.978 247.84C309.066 247.84 309.97 247.48 310.69 246.76C311.41 246.024 311.77 245.104 311.77 244C311.77 242.896 311.41 241.984 310.69 241.264C309.97 240.528 309.066 240.16 307.978 240.16C306.89 240.16 305.986 240.528 305.266 241.264C304.546 241.984 304.186 242.896 304.186 244C304.186 245.104 304.546 246.024 305.266 246.76ZM326.215 238H328.807V250H326.215V248.272C325.239 249.632 323.839 250.312 322.015 250.312C320.367 250.312 318.959 249.704 317.791 248.488C316.623 247.256 316.039 245.76 316.039 244C316.039 242.224 316.623 240.728 317.791 239.512C318.959 238.296 320.367 237.688 322.015 237.688C323.839 237.688 325.239 238.36 326.215 239.704V238ZM319.711 246.76C320.431 247.48 321.335 247.84 322.423 247.84C323.511 247.84 324.415 247.48 325.135 246.76C325.855 246.024 326.215 245.104 326.215 244C326.215 242.896 325.855 241.984 325.135 241.264C324.415 240.528 323.511 240.16 322.423 240.16C321.335 240.16 320.431 240.528 319.711 241.264C318.991 241.984 318.631 242.896 318.631 244C318.631 245.104 318.991 246.024 319.711 246.76ZM337.492 250.312C335.684 250.312 334.172 249.704 332.956 248.488C331.756 247.272 331.156 245.776 331.156 244C331.156 242.208 331.756 240.712 332.956 239.512C334.172 238.296 335.684 237.688 337.492 237.688C338.66 237.688 339.724 237.968 340.684 238.528C341.644 239.088 342.364 239.84 342.844 240.784L340.612 242.08C340.34 241.504 339.924 241.056 339.364 240.736C338.82 240.4 338.188 240.232 337.468 240.232C336.412 240.232 335.524 240.592 334.804 241.312C334.1 242.032 333.748 242.928 333.748 244C333.748 245.072 334.1 245.968 334.804 246.688C335.524 247.408 336.412 247.768 337.468 247.768C338.172 247.768 338.804 247.6 339.364 247.264C339.94 246.928 340.372 246.48 340.66 245.92L342.892 247.192C342.38 248.152 341.644 248.912 340.684 249.472C339.724 250.032 338.66 250.312 337.492 250.312ZM350.242 250.312C348.482 250.312 346.986 249.704 345.754 248.488C344.522 247.272 343.906 245.776 343.906 244C343.906 242.224 344.522 240.728 345.754 239.512C346.986 238.296 348.482 237.688 350.242 237.688C352.018 237.688 353.514 238.296 354.73 239.512C355.962 240.728 356.578 242.224 356.578 244C356.578 245.776 355.962 247.272 354.73 248.488C353.514 249.704 352.018 250.312 350.242 250.312ZM347.578 246.712C348.298 247.432 349.186 247.792 350.242 247.792C351.298 247.792 352.186 247.432 352.906 246.712C353.626 245.992 353.986 245.088 353.986 244C353.986 242.912 353.626 242.008 352.906 241.288C352.186 240.568 351.298 240.208 350.242 240.208C349.186 240.208 348.298 240.568 347.578 241.288C346.858 242.008 346.498 242.912 346.498 244C346.498 245.088 346.858 245.992 347.578 246.712ZM367.621 238V240.496H363.709V250H361.117V240.496H357.181V238H367.621ZM374.571 250.312C372.811 250.312 371.315 249.704 370.083 248.488C368.851 247.272 368.235 245.776 368.235 244C368.235 242.224 368.851 240.728 370.083 239.512C371.315 238.296 372.811 237.688 374.571 237.688C376.347 237.688 377.843 238.296 379.059 239.512C380.291 240.728 380.907 242.224 380.907 244C380.907 245.776 380.291 247.272 379.059 248.488C377.843 249.704 376.347 250.312 374.571 250.312ZM371.907 246.712C372.627 247.432 373.515 247.792 374.571 247.792C375.627 247.792 376.515 247.432 377.235 246.712C377.955 245.992 378.315 245.088 378.315 244C378.315 242.912 377.955 242.008 377.235 241.288C376.515 240.568 375.627 240.208 374.571 240.208C373.515 240.208 372.627 240.568 371.907 241.288C371.187 242.008 370.827 242.912 370.827 244C370.827 245.088 371.187 245.992 371.907 246.712ZM385.218 236.32V234.064H391.938V236.32H385.218ZM391.938 238H393.93V250H391.386V242.368L385.242 250H383.25V238H385.794V245.608L391.938 238ZM411.842 238H413.186V250H411.602V240.76L404.45 250H403.106V238H404.69V247.24L411.842 238ZM150.115 278H151.459V290H149.875V280.76L142.723 290H141.379V278H142.963V287.24L150.115 278ZM161.001 283.832C162.393 284.36 163.089 285.32 163.089 286.712C163.089 287.704 162.697 288.552 161.913 289.256C161.145 289.944 160.041 290.288 158.601 290.288C156.185 290.288 154.601 289.328 153.849 287.408L155.193 286.616C155.689 288.04 156.825 288.752 158.601 288.752C159.529 288.752 160.241 288.552 160.737 288.152C161.249 287.752 161.505 287.24 161.505 286.616C161.505 286.056 161.297 285.6 160.881 285.248C160.465 284.896 159.905 284.72 159.201 284.72H157.449V283.184H158.721C159.409 283.184 159.945 283.016 160.329 282.68C160.729 282.328 160.929 281.848 160.929 281.24C160.929 280.664 160.697 280.192 160.233 279.824C159.769 279.44 159.145 279.248 158.361 279.248C156.857 279.248 155.857 279.848 155.361 281.048L154.041 280.28C154.841 278.568 156.281 277.712 158.361 277.712C159.625 277.712 160.633 278.048 161.385 278.72C162.137 279.376 162.513 280.184 162.513 281.144C162.513 282.376 162.009 283.272 161.001 283.832ZM175.552 288.488C174.336 289.688 172.848 290.288 171.088 290.288C169.328 290.288 167.832 289.688 166.6 288.488C165.384 287.272 164.776 285.776 164.776 284C164.776 282.224 165.384 280.736 166.6 279.536C167.832 278.32 169.328 277.712 171.088 277.712C172.848 277.712 174.336 278.32 175.552 279.536C176.784 280.736 177.4 282.224 177.4 284C177.4 285.776 176.784 287.272 175.552 288.488ZM167.728 287.384C168.64 288.296 169.76 288.752 171.088 288.752C172.416 288.752 173.536 288.296 174.448 287.384C175.36 286.456 175.816 285.328 175.816 284C175.816 282.672 175.36 281.552 174.448 280.64C173.536 279.712 172.416 279.248 171.088 279.248C169.76 279.248 168.64 279.712 167.728 280.64C166.816 281.552 166.36 282.672 166.36 284C166.36 285.328 166.816 286.456 167.728 287.384ZM185.379 290.288C183.651 290.288 182.211 289.72 181.059 288.584C179.907 287.432 179.331 285.944 179.331 284.12C179.331 282.072 179.635 280.504 180.243 279.416C180.851 278.312 182.083 277.312 183.939 276.416C184.291 276.24 184.755 276.032 185.331 275.792C185.923 275.552 186.363 275.36 186.651 275.216C186.955 275.072 187.283 274.888 187.635 274.664C187.987 274.424 188.251 274.16 188.427 273.872C188.603 273.584 188.715 273.24 188.763 272.84L190.011 273.56C189.947 273.944 189.819 274.304 189.627 274.64C189.435 274.976 189.235 275.248 189.027 275.456C188.835 275.664 188.523 275.896 188.091 276.152C187.675 276.392 187.347 276.568 187.107 276.68C186.883 276.776 186.483 276.944 185.907 277.184C185.347 277.424 184.971 277.584 184.779 277.664C183.659 278.144 182.835 278.648 182.307 279.176C181.779 279.688 181.403 280.36 181.179 281.192C181.723 280.472 182.411 279.944 183.243 279.608C184.091 279.256 184.915 279.08 185.715 279.08C187.315 279.08 188.635 279.608 189.675 280.664C190.731 281.704 191.259 283.04 191.259 284.672C191.259 286.288 190.699 287.632 189.579 288.704C188.475 289.76 187.075 290.288 185.379 290.288ZM185.379 288.704C186.627 288.704 187.651 288.328 188.451 287.576C189.267 286.808 189.675 285.84 189.675 284.672C189.675 283.488 189.291 282.52 188.523 281.768C187.771 281 186.763 280.616 185.499 280.616C184.363 280.616 183.331 280.976 182.403 281.696C181.475 282.4 181.011 283.344 181.011 284.528C181.011 285.744 181.427 286.744 182.259 287.528C183.107 288.312 184.147 288.704 185.379 288.704ZM200.1 277.712C201.812 277.712 203.268 278.32 204.468 279.536C205.684 280.752 206.292 282.24 206.292 284C206.292 285.76 205.684 287.248 204.468 288.464C203.268 289.68 201.812 290.288 200.1 290.288C197.972 290.288 196.356 289.408 195.252 287.648V294.8H193.668V278H195.252V280.352C196.356 278.592 197.972 277.712 200.1 277.712ZM196.62 287.384C197.532 288.296 198.652 288.752 199.98 288.752C201.308 288.752 202.428 288.296 203.34 287.384C204.252 286.456 204.708 285.328 204.708 284C204.708 282.672 204.252 281.552 203.34 280.64C202.428 279.712 201.308 279.248 199.98 279.248C198.652 279.248 197.532 279.712 196.62 280.64C195.708 281.552 195.252 282.672 195.252 284C195.252 285.328 195.708 286.456 196.62 287.384ZM214.47 277.712C216.246 277.712 217.678 278.344 218.766 279.608C219.87 280.856 220.422 282.336 220.422 284.048C220.422 284.224 220.406 284.472 220.374 284.792H209.838C209.998 286.008 210.51 286.976 211.374 287.696C212.254 288.4 213.334 288.752 214.614 288.752C215.526 288.752 216.31 288.568 216.966 288.2C217.638 287.816 218.142 287.32 218.478 286.712L219.87 287.528C219.342 288.376 218.622 289.048 217.71 289.544C216.798 290.04 215.758 290.288 214.59 290.288C212.702 290.288 211.166 289.696 209.982 288.512C208.798 287.328 208.206 285.824 208.206 284C208.206 282.208 208.79 280.712 209.958 279.512C211.126 278.312 212.63 277.712 214.47 277.712ZM214.47 279.248C213.222 279.248 212.174 279.624 211.326 280.376C210.494 281.112 209.998 282.072 209.838 283.256H218.79C218.63 281.992 218.142 281.008 217.326 280.304C216.51 279.6 215.558 279.248 214.47 279.248ZM231.113 278V279.536H226.865V290H225.281V279.536H221.033V278H231.113ZM242.895 278H244.479V290H242.895V287.648C241.791 289.408 240.175 290.288 238.047 290.288C236.335 290.288 234.871 289.68 233.655 288.464C232.455 287.248 231.855 285.76 231.855 284C231.855 282.24 232.455 280.752 233.655 279.536C234.871 278.32 236.335 277.712 238.047 277.712C240.175 277.712 241.791 278.592 242.895 280.352V278ZM234.807 287.384C235.719 288.296 236.839 288.752 238.167 288.752C239.495 288.752 240.615 288.296 241.527 287.384C242.439 286.456 242.895 285.328 242.895 284C242.895 282.672 242.439 281.552 241.527 280.64C240.615 279.712 239.495 279.248 238.167 279.248C236.839 279.248 235.719 279.712 234.807 280.64C233.895 281.552 233.439 282.672 233.439 284C233.439 285.328 233.895 286.456 234.807 287.384ZM256.472 278V279.536H252.224V290H250.64V279.536H246.392V278H256.472ZM263.478 277.712C265.254 277.712 266.686 278.344 267.774 279.608C268.878 280.856 269.43 282.336 269.43 284.048C269.43 284.224 269.414 284.472 269.382 284.792H258.846C259.006 286.008 259.518 286.976 260.382 287.696C261.262 288.4 262.342 288.752 263.622 288.752C264.534 288.752 265.318 288.568 265.974 288.2C266.646 287.816 267.15 287.32 267.486 286.712L268.878 287.528C268.35 288.376 267.63 289.048 266.718 289.544C265.806 290.04 264.766 290.288 263.598 290.288C261.71 290.288 260.174 289.696 258.99 288.512C257.806 287.328 257.214 285.824 257.214 284C257.214 282.208 257.798 280.712 258.966 279.512C260.134 278.312 261.638 277.712 263.478 277.712ZM263.478 279.248C262.23 279.248 261.182 279.624 260.334 280.376C259.502 281.112 259.006 282.072 258.846 283.256H267.798C267.638 281.992 267.15 281.008 266.334 280.304C265.518 279.6 264.566 279.248 263.478 279.248ZM281.321 278V290H279.737V279.536H274.313V284.888C274.313 286.888 273.929 288.264 273.161 289.016C272.409 289.768 271.369 290.096 270.041 290V288.512C270.953 288.608 271.625 288.392 272.057 287.864C272.505 287.336 272.729 286.344 272.729 284.888V278H281.321ZM289.548 282.56C290.668 282.56 291.612 282.912 292.38 283.616C293.164 284.304 293.556 285.192 293.556 286.28C293.556 287.368 293.164 288.264 292.38 288.968C291.612 289.656 290.668 290 289.548 290H284.676V278H286.26V282.56H289.548ZM289.548 288.464C290.22 288.464 290.788 288.264 291.252 287.864C291.732 287.464 291.972 286.936 291.972 286.28C291.972 285.624 291.732 285.096 291.252 284.696C290.788 284.296 290.22 284.096 289.548 284.096H286.26V288.464H289.548ZM304.446 278H306.03V290H304.446V284.768H297.534V290H295.95V278H297.534V283.232H304.446V278ZM319.435 288.488C318.219 289.688 316.731 290.288 314.971 290.288C313.211 290.288 311.715 289.688 310.483 288.488C309.267 287.272 308.659 285.776 308.659 284C308.659 282.224 309.267 280.736 310.483 279.536C311.715 278.32 313.211 277.712 314.971 277.712C316.731 277.712 318.219 278.32 319.435 279.536C320.667 280.736 321.283 282.224 321.283 284C321.283 285.776 320.667 287.272 319.435 288.488ZM311.611 287.384C312.523 288.296 313.643 288.752 314.971 288.752C316.299 288.752 317.419 288.296 318.331 287.384C319.243 286.456 319.699 285.328 319.699 284C319.699 282.672 319.243 281.552 318.331 280.64C317.419 279.712 316.299 279.248 314.971 279.248C313.643 279.248 312.523 279.712 311.611 280.64C310.699 281.552 310.243 282.672 310.243 284C310.243 285.328 310.699 286.456 311.611 287.384ZM329.526 290.288C327.718 290.288 326.214 289.688 325.014 288.488C323.814 287.272 323.214 285.776 323.214 284C323.214 282.224 323.814 280.736 325.014 279.536C326.214 278.32 327.718 277.712 329.526 277.712C330.71 277.712 331.774 278 332.718 278.576C333.662 279.136 334.35 279.896 334.782 280.856L333.486 281.6C333.166 280.88 332.646 280.312 331.926 279.896C331.222 279.464 330.422 279.248 329.526 279.248C328.198 279.248 327.078 279.712 326.166 280.64C325.254 281.552 324.798 282.672 324.798 284C324.798 285.328 325.254 286.456 326.166 287.384C327.078 288.296 328.198 288.752 329.526 288.752C330.422 288.752 331.222 288.544 331.926 288.128C332.63 287.696 333.182 287.12 333.582 286.4L334.902 287.168C334.406 288.128 333.678 288.888 332.718 289.448C331.758 290.008 330.694 290.288 329.526 290.288ZM345.582 278V279.536H341.334V290H339.75V279.536H335.502V278H345.582ZM352.384 282.56C353.504 282.56 354.448 282.912 355.216 283.616C356 284.304 356.392 285.192 356.392 286.28C356.392 287.368 356 288.264 355.216 288.968C354.448 289.656 353.504 290 352.384 290H347.512V278H349.096V282.56H352.384ZM352.384 288.464C353.056 288.464 353.624 288.264 354.088 287.864C354.568 287.464 354.808 286.936 354.808 286.28C354.808 285.624 354.568 285.096 354.088 284.696C353.624 284.296 353.056 284.096 352.384 284.096H349.096V288.464H352.384ZM369.033 277.712C370.793 277.712 372.281 278.32 373.497 279.536C374.729 280.736 375.345 282.224 375.345 284C375.345 285.776 374.729 287.272 373.497 288.488C372.281 289.688 370.793 290.288 369.033 290.288C367.417 290.288 366.025 289.768 364.857 288.728C363.705 287.672 363.041 286.352 362.865 284.768H360.369V290H358.785V278H360.369V283.232H362.865C363.041 281.648 363.705 280.336 364.857 279.296C366.025 278.24 367.417 277.712 369.033 277.712ZM365.673 287.384C366.585 288.296 367.705 288.752 369.033 288.752C370.361 288.752 371.481 288.296 372.393 287.384C373.305 286.456 373.761 285.328 373.761 284C373.761 282.672 373.305 281.552 372.393 280.64C371.481 279.712 370.361 279.248 369.033 279.248C367.705 279.248 366.585 279.712 365.673 280.64C364.761 281.552 364.305 282.672 364.305 284C364.305 285.328 364.761 286.456 365.673 287.384Z" fill="#5B5B87"/>
<path d="M246 126H237C234.083 126 231.285 127.159 229.222 129.222C227.159 131.285 226 134.083 226 137V146H235.072C234.192 144.475 233.839 142.702 234.069 140.956C234.299 139.21 235.098 137.589 236.344 136.344C237.589 135.098 239.21 134.299 240.956 134.069C242.702 133.839 244.475 134.192 246 135.072V126ZM250 142V146H254C254.791 146 255.564 145.765 256.222 145.326C256.88 144.886 257.393 144.262 257.696 143.531C257.998 142.8 258.077 141.996 257.923 141.22C257.769 140.444 257.388 139.731 256.828 139.172C256.269 138.612 255.556 138.231 254.78 138.077C254.004 137.923 253.2 138.002 252.469 138.304C251.738 138.607 251.114 139.12 250.674 139.778C250.235 140.436 250 141.209 250 142ZM260.928 146C261.808 144.475 262.161 142.702 261.931 140.956C261.701 139.21 260.902 137.589 259.656 136.344C258.411 135.098 256.79 134.299 255.044 134.069C253.298 133.839 251.525 134.192 250 135.072V126H279C281.917 126 284.715 127.159 286.778 129.222C288.841 131.285 290 134.083 290 137V146H260.928ZM252.828 150L259.416 156.584C259.792 156.96 260.003 157.469 260.003 158C260.003 158.531 259.792 159.04 259.416 159.416C259.04 159.792 258.531 160.003 258 160.003C257.469 160.003 256.96 159.792 256.584 159.416L250 152.828V174H254V172C254 169.348 255.054 166.804 256.929 164.929C258.804 163.054 261.348 162 264 162H288C288.684 162 289.352 162.068 290 162.2V150H252.828ZM246 174V152.828L239.416 159.416C239.04 159.792 238.531 160.003 238 160.003C237.469 160.003 236.96 159.792 236.584 159.416C236.208 159.04 235.997 158.531 235.997 158C235.997 157.469 236.208 156.96 236.584 156.584L243.172 150H226V163C226 165.917 227.159 168.715 229.222 170.778C231.285 172.841 234.083 174 237 174H246ZM246 142C246 141.209 245.765 140.436 245.326 139.778C244.886 139.12 244.262 138.607 243.531 138.304C242.8 138.002 241.996 137.923 241.22 138.077C240.444 138.231 239.731 138.612 239.172 139.172C238.612 139.731 238.231 140.444 238.077 141.22C237.923 141.996 238.002 142.8 238.304 143.531C238.607 144.262 239.12 144.886 239.778 145.326C240.436 145.765 241.209 146 242 146H246V142ZM294 172V184C294 185.591 293.368 187.117 292.243 188.243C291.117 189.368 289.591 190 288 190H264C262.409 190 260.883 189.368 259.757 188.243C258.632 187.117 258 185.591 258 184V172C258 170.409 258.632 168.883 259.757 167.757C260.883 166.632 262.409 166 264 166H288C289.591 166 291.117 166.632 292.243 167.757C293.368 168.883 294 170.409 294 172ZM290 184V180C288.409 180 286.883 180.632 285.757 181.757C284.632 182.883 284 184.409 284 186H288C288 185.47 288.211 184.961 288.586 184.586C288.961 184.211 289.47 184 290 184ZM288 170H284C284 171.591 284.632 173.117 285.757 174.243C286.883 175.368 288.409 176 290 176V172C289.47 172 288.961 171.789 288.586 171.414C288.211 171.039 288 170.53 288 170ZM264 170C264 170.53 263.789 171.039 263.414 171.414C263.039 171.789 262.53 172 262 172V176C263.591 176 265.117 175.368 266.243 174.243C267.368 173.117 268 171.591 268 170H264ZM262 184C262.53 184 263.039 184.211 263.414 184.586C263.789 184.961 264 185.47 264 186H268C268 184.409 267.368 182.883 266.243 181.757C265.117 180.632 263.591 180 262 180V184ZM276 172C274.409 172 272.883 172.632 271.757 173.757C270.632 174.883 270 176.409 270 178C270 179.591 270.632 181.117 271.757 182.243C272.883 183.368 274.409 184 276 184C277.591 184 279.117 183.368 280.243 182.243C281.368 181.117 282 179.591 282 178C282 176.409 281.368 174.883 280.243 173.757C279.117 172.632 277.591 172 276 172Z" fill="#FC377E"/>
<mask id="mask0_28_366" style="mask-type:alpha" maskUnits="userSpaceOnUse" x="226" y="126" width="68" height="64">
<path d="M246 126H237C234.083 126 231.285 127.159 229.222 129.222C227.159 131.285 226 134.083 226 137V146H235.072C234.192 144.475 233.839 142.702 234.069 140.956C234.299 139.21 235.098 137.589 236.344 136.344C237.589 135.098 239.21 134.299 240.956 134.069C242.702 133.839 244.475 134.192 246 135.072V126ZM250 142V146H254C254.791 146 255.564 145.765 256.222 145.326C256.88 144.886 257.393 144.262 257.696 143.531C257.998 142.8 258.077 141.996 257.923 141.22C257.769 140.444 257.388 139.731 256.828 139.172C256.269 138.612 255.556 138.231 254.78 138.077C254.004 137.923 253.2 138.002 252.469 138.304C251.738 138.607 251.114 139.12 250.674 139.778C250.235 140.436 250 141.209 250 142ZM260.928 146C261.808 144.475 262.161 142.702 261.931 140.956C261.701 139.21 260.902 137.589 259.656 136.344C258.411 135.098 256.79 134.299 255.044 134.069C253.298 133.839 251.525 134.192 250 135.072V126H279C281.917 126 284.715 127.159 286.778 129.222C288.841 131.285 290 134.083 290 137V146H260.928ZM252.828 150L259.416 156.584C259.792 156.96 260.003 157.469 260.003 158C260.003 158.531 259.792 159.04 259.416 159.416C259.04 159.792 258.531 160.003 258 160.003C257.469 160.003 256.96 159.792 256.584 159.416L250 152.828V174H254V172C254 169.348 255.054 166.804 256.929 164.929C258.804 163.054 261.348 162 264 162H288C288.684 162 289.352 162.068 290 162.2V150H252.828ZM246 174V152.828L239.416 159.416C239.04 159.792 238.531 160.003 238 160.003C237.469 160.003 236.96 159.792 236.584 159.416C236.208 159.04 235.997 158.531 235.997 158C235.997 157.469 236.208 156.96 236.584 156.584L243.172 150H226V163C226 165.917 227.159 168.715 229.222 170.778C231.285 172.841 234.083 174 237 174H246ZM246 142C246 141.209 245.765 140.436 245.326 139.778C244.886 139.12 244.262 138.607 243.531 138.304C242.8 138.002 241.996 137.923 241.22 138.077C240.444 138.231 239.731 138.612 239.172 139.172C238.612 139.731 238.231 140.444 238.077 141.22C237.923 141.996 238.002 142.8 238.304 143.531C238.607 144.262 239.12 144.886 239.778 145.326C240.436 145.765 241.209 146 242 146H246V142ZM294 172V184C294 185.591 293.368 187.117 292.243 188.243C291.117 189.368 289.591 190 288 190H264C262.409 190 260.883 189.368 259.757 188.243C258.632 187.117 258 185.591 258 184V172C258 170.409 258.632 168.883 259.757 167.757C260.883 166.632 262.409 166 264 166H288C289.591 166 291.117 166.632 292.243 167.757C293.368 168.883 294 170.409 294 172ZM290 184V180C288.409 180 286.883 180.632 285.757 181.757C284.632 182.883 284 184.409 284 186H288C288 185.47 288.211 184.961 288.586 184.586C288.961 184.211 289.47 184 290 184ZM288 170H284C284 171.591 284.632 173.117 285.757 174.243C286.883 175.368 288.409 176 290 176V172C289.47 172 288.961 171.789 288.586 171.414C288.211 171.039 288 170.53 288 170ZM264 170C264 170.53 263.789 171.039 263.414 171.414C263.039 171.789 262.53 172 262 172V176C263.591 176 265.117 175.368 266.243 174.243C267.368 173.117 268 171.591 268 170H264ZM262 184C262.53 184 263.039 184.211 263.414 184.586C263.789 184.961 264 185.47 264 186H268C268 184.409 267.368 182.883 266.243 181.757C265.117 180.632 263.591 180 262 180V184ZM276 172C274.409 172 272.883 172.632 271.757 173.757C270.632 174.883 270 176.409 270 178C270 179.591 270.632 181.117 271.757 182.243C272.883 183.368 274.409 184 276 184C277.591 184 279.117 183.368 280.243 182.243C281.368 181.117 282 179.591 282 178C282 176.409 281.368 174.883 280.243 173.757C279.117 172.632 277.591 172 276 172Z" fill="#18AFF0"/>
</mask>
<g mask="url(#mask0_28_366)">
<rect x="256" y="165" width="40" height="27" rx="4" fill="#18AFF0"/>
</g>
<defs>
<filter id="filter0_d_28_366" x="0.980652" y="0.254883" width="514.039" height="514.039" filterUnits="userSpaceOnUse" color-interpolation-filters="sRGB">
<feFlood flood-opacity="0" result="BackgroundImageFix"/>
<feColorMatrix in="SourceAlpha" type="matrix" values="0 0 0 0 0 0 0 0 0 0 0 0 0 0 0 0 0 0 127 0" result="hardAlpha"/>
<feOffset dy="15"/>
<feGaussianBlur stdDeviation="22"/>
<feColorMatrix type="matrix" values="0 0 0 0 0.0509804 0 0 0 0 0.0588235 0 0 0 0 0.109804 0 0 0 0.06 0"/>
<feBlend mode="normal" in2="BackgroundImageFix" result="effect1_dropShadow_28_366"/>
<feBlend mode="normal" in="SourceGraphic" in2="effect1_dropShadow_28_366" result="shape"/>
</filter>
</defs>
</svg>
