<svg width="515" height="515" viewBox="0 0 515 515" fill="none" xmlns="http://www.w3.org/2000/svg">
<g filter="url(#filter0_d_28_373)">
<rect x="257.274" y="16" width="320" height="320" rx="32" transform="rotate(45 257.274 16)" fill="white"/>
</g>
<path d="M248.25 125.5C233.753 125.5 222 137.253 222 151.75C221.996 155.818 222.939 159.83 224.755 163.47L222.13 173.265C221.96 173.901 221.96 174.571 222.13 175.207C222.301 175.843 222.635 176.423 223.101 176.888C223.567 177.354 224.147 177.688 224.783 177.859C225.419 178.029 226.089 178.028 226.725 177.858L236.513 175.235C240.156 177.058 244.176 178.005 248.25 178C262.75 178 274.5 166.247 274.5 151.75C274.5 137.253 262.75 125.5 248.25 125.5ZM253.138 181.355C250.818 181.735 248.462 181.842 246.118 181.675C248.578 184.453 251.6 186.677 254.985 188.198C258.37 189.719 262.039 190.504 265.75 190.5C269.824 190.505 273.844 189.559 277.488 187.735L287.275 190.36C287.911 190.53 288.581 190.53 289.217 190.36C289.853 190.19 290.433 189.855 290.898 189.389C291.364 188.923 291.698 188.343 291.869 187.707C292.039 187.071 292.038 186.401 291.868 185.765L289.243 175.97C291.063 172.332 292.007 168.318 292 164.25C292.001 159.072 290.47 154.009 287.601 149.698C284.731 145.387 280.65 142.022 275.873 140.025C276.778 142.158 277.448 144.417 277.84 146.772C280.668 148.726 282.979 151.338 284.575 154.382C286.17 157.426 287.002 160.813 287 164.25C287.006 167.823 286.106 171.339 284.385 174.47C284.074 175.035 283.994 175.697 284.16 176.32L286.478 184.97L277.838 182.653C277.215 182.486 276.552 182.567 275.988 182.878C272.852 184.605 269.33 185.508 265.75 185.502C261.209 185.509 256.787 184.056 253.138 181.355ZM247.198 143.938L248.238 144.975L249.263 143.95C250.666 142.558 252.564 141.779 254.54 141.784C256.517 141.789 258.411 142.577 259.808 143.975C260.5 144.662 261.05 145.478 261.427 146.378C261.803 147.278 261.998 148.243 262.001 149.218C262.003 150.193 261.813 151.159 261.442 152.061C261.07 152.963 260.524 153.782 259.835 154.472L249.103 165.165C248.887 165.379 248.596 165.499 248.293 165.499C247.989 165.499 247.698 165.379 247.483 165.165L236.695 154.41C236.002 153.723 235.451 152.907 235.075 152.006C234.698 151.106 234.503 150.141 234.501 149.165C234.498 148.19 234.689 147.223 235.061 146.321C235.433 145.419 235.98 144.6 236.67 143.91C238.072 142.522 239.967 141.746 241.939 141.751C243.912 141.756 245.803 142.542 247.198 143.938Z" fill="#FC377E"/>
<mask id="mask0_28_373" style="mask-type:alpha" maskUnits="userSpaceOnUse" x="222" y="125" width="70" height="66">
<path d="M248.25 125.5C233.753 125.5 222 137.253 222 151.75C221.996 155.818 222.939 159.83 224.755 163.47L222.13 173.265C221.96 173.901 221.96 174.571 222.13 175.207C222.301 175.843 222.635 176.423 223.101 176.888C223.567 177.354 224.147 177.688 224.783 177.859C225.419 178.029 226.089 178.028 226.725 177.858L236.513 175.235C240.156 177.058 244.176 178.005 248.25 178C262.75 178 274.5 166.247 274.5 151.75C274.5 137.253 262.75 125.5 248.25 125.5ZM253.138 181.355C250.818 181.735 248.462 181.842 246.118 181.675C248.578 184.453 251.6 186.677 254.985 188.198C258.37 189.719 262.039 190.504 265.75 190.5C269.824 190.505 273.844 189.559 277.488 187.735L287.275 190.36C287.911 190.53 288.581 190.53 289.217 190.36C289.853 190.19 290.433 189.855 290.898 189.389C291.364 188.923 291.698 188.343 291.869 187.707C292.039 187.071 292.038 186.401 291.868 185.765L289.243 175.97C291.063 172.332 292.007 168.318 292 164.25C292.001 159.072 290.47 154.009 287.601 149.698C284.731 145.387 280.65 142.022 275.873 140.025C276.778 142.158 277.448 144.417 277.84 146.772C280.668 148.726 282.979 151.338 284.575 154.382C286.17 157.426 287.002 160.813 287 164.25C287.006 167.823 286.106 171.339 284.385 174.47C284.074 175.035 283.994 175.697 284.16 176.32L286.478 184.97L277.838 182.653C277.215 182.486 276.552 182.567 275.988 182.878C272.852 184.605 269.33 185.508 265.75 185.502C261.209 185.509 256.787 184.056 253.138 181.355ZM247.198 143.938L248.238 144.975L249.263 143.95C250.666 142.558 252.564 141.779 254.54 141.784C256.517 141.789 258.411 142.577 259.808 143.975C260.5 144.662 261.05 145.478 261.427 146.378C261.803 147.278 261.998 148.243 262.001 149.218C262.003 150.193 261.813 151.159 261.442 152.061C261.07 152.963 260.524 153.782 259.835 154.472L249.103 165.165C248.887 165.379 248.596 165.499 248.293 165.499C247.989 165.499 247.698 165.379 247.483 165.165L236.695 154.41C236.002 153.723 235.451 152.907 235.075 152.006C234.698 151.106 234.503 150.141 234.501 149.165C234.498 148.19 234.689 147.223 235.061 146.321C235.433 145.419 235.98 144.6 236.67 143.91C238.072 142.522 239.967 141.746 241.939 141.751C243.912 141.756 245.803 142.542 247.198 143.938Z" fill="#FC377E"/>
</mask>
<g mask="url(#mask0_28_373)">
<path d="M274.5 136H294V194H241V180.5L265.5 178.5L278 170V154L274.5 136Z" fill="#18AFF0"/>
</g>
<path d="M105.847 247.768C104.167 249.448 102.111 250.288 99.6793 250.288C97.2473 250.288 95.1913 249.448 93.5113 247.768C91.8313 246.072 90.9913 244.016 90.9913 241.6C90.9913 239.184 91.8313 237.136 93.5113 235.456C95.1913 233.76 97.2473 232.912 99.6793 232.912C102.111 232.912 104.167 233.76 105.847 235.456C107.527 237.136 108.367 239.184 108.367 241.6C108.367 244.016 107.527 246.072 105.847 247.768ZM94.6873 246.616C96.0313 247.976 97.6953 248.656 99.6793 248.656C101.663 248.656 103.327 247.976 104.671 246.616C106.015 245.24 106.687 243.568 106.687 241.6C106.687 239.632 106.015 237.968 104.671 236.608C103.327 235.232 101.663 234.544 99.6793 234.544C97.6953 234.544 96.0313 235.232 94.6873 236.608C93.3433 237.968 92.6713 239.632 92.6713 241.6C92.6713 243.568 93.3433 245.24 94.6873 246.616ZM116.328 250.288C114.6 250.288 113.16 249.72 112.008 248.584C110.856 247.432 110.28 245.944 110.28 244.12C110.28 242.072 110.584 240.504 111.192 239.416C111.8 238.312 113.032 237.312 114.888 236.416C115.24 236.24 115.704 236.032 116.28 235.792C116.872 235.552 117.312 235.36 117.6 235.216C117.904 235.072 118.232 234.888 118.584 234.664C118.936 234.424 119.2 234.16 119.376 233.872C119.552 233.584 119.664 233.24 119.712 232.84L120.96 233.56C120.896 233.944 120.768 234.304 120.576 234.64C120.384 234.976 120.184 235.248 119.976 235.456C119.784 235.664 119.472 235.896 119.04 236.152C118.624 236.392 118.296 236.568 118.056 236.68C117.832 236.776 117.432 236.944 116.856 237.184C116.296 237.424 115.92 237.584 115.728 237.664C114.608 238.144 113.784 238.648 113.256 239.176C112.728 239.688 112.352 240.36 112.128 241.192C112.672 240.472 113.36 239.944 114.192 239.608C115.04 239.256 115.864 239.08 116.664 239.08C118.264 239.08 119.584 239.608 120.624 240.664C121.68 241.704 122.208 243.04 122.208 244.672C122.208 246.288 121.648 247.632 120.528 248.704C119.424 249.76 118.024 250.288 116.328 250.288ZM116.328 248.704C117.576 248.704 118.6 248.328 119.4 247.576C120.216 246.808 120.624 245.84 120.624 244.672C120.624 243.488 120.24 242.52 119.472 241.768C118.72 241 117.712 240.616 116.448 240.616C115.312 240.616 114.28 240.976 113.352 241.696C112.424 242.4 111.96 243.344 111.96 244.528C111.96 245.744 112.376 246.744 113.208 247.528C114.056 248.312 115.096 248.704 116.328 248.704ZM140.698 248.464H142.378V253.216H140.794V250H124.618V238H126.202V248.464H131.866V238H133.45V248.464H139.114V238H140.698V248.464ZM149.849 237.712C151.625 237.712 153.057 238.344 154.145 239.608C155.249 240.856 155.801 242.336 155.801 244.048C155.801 244.224 155.785 244.472 155.753 244.792H145.217C145.377 246.008 145.889 246.976 146.753 247.696C147.633 248.4 148.713 248.752 149.993 248.752C150.905 248.752 151.689 248.568 152.345 248.2C153.017 247.816 153.521 247.32 153.857 246.712L155.249 247.528C154.721 248.376 154.001 249.048 153.089 249.544C152.177 250.04 151.137 250.288 149.969 250.288C148.081 250.288 146.545 249.696 145.361 248.512C144.177 247.328 143.585 245.824 143.585 244C143.585 242.208 144.169 240.712 145.337 239.512C146.505 238.312 148.009 237.712 149.849 237.712ZM149.849 239.248C148.601 239.248 147.553 239.624 146.705 240.376C145.873 241.112 145.377 242.072 145.217 243.256H154.169C154.009 241.992 153.521 241.008 152.705 240.304C151.889 239.6 150.937 239.248 149.849 239.248ZM166.817 238H168.401V250H166.817V244.768H159.905V250H158.321V238H159.905V243.232H166.817V238ZM180.486 238H181.83V250H180.246V240.76L173.094 250H171.75V238H173.334V247.24L180.486 238ZM190.724 237.712C192.5 237.712 193.932 238.344 195.02 239.608C196.124 240.856 196.676 242.336 196.676 244.048C196.676 244.224 196.66 244.472 196.628 244.792H186.092C186.252 246.008 186.764 246.976 187.628 247.696C188.508 248.4 189.588 248.752 190.868 248.752C191.78 248.752 192.564 248.568 193.22 248.2C193.892 247.816 194.396 247.32 194.732 246.712L196.124 247.528C195.596 248.376 194.876 249.048 193.964 249.544C193.052 250.04 192.012 250.288 190.844 250.288C188.956 250.288 187.42 249.696 186.236 248.512C185.052 247.328 184.46 245.824 184.46 244C184.46 242.208 185.044 240.712 186.212 239.512C187.38 238.312 188.884 237.712 190.724 237.712ZM190.724 239.248C189.476 239.248 188.428 239.624 187.58 240.376C186.748 241.112 186.252 242.072 186.092 243.256H195.044C194.884 241.992 194.396 241.008 193.58 240.304C192.764 239.6 191.812 239.248 190.724 239.248ZM212.828 243.832C214.14 244.312 214.796 245.248 214.796 246.64C214.796 247.616 214.468 248.424 213.812 249.064C213.172 249.688 212.244 250 211.028 250H205.196V238H210.548C211.716 238 212.62 238.304 213.26 238.912C213.9 239.504 214.22 240.272 214.22 241.216C214.22 242.416 213.756 243.288 212.828 243.832ZM210.548 239.536H206.78V243.184H210.548C211.94 243.184 212.636 242.56 212.636 241.312C212.636 240.752 212.452 240.32 212.084 240.016C211.732 239.696 211.22 239.536 210.548 239.536ZM211.028 248.464C211.732 248.464 212.268 248.296 212.636 247.96C213.02 247.624 213.212 247.152 213.212 246.544C213.212 245.984 213.02 245.544 212.636 245.224C212.268 244.888 211.732 244.72 211.028 244.72H206.78V248.464H211.028ZM229.628 237.712C231.34 237.712 232.796 238.32 233.996 239.536C235.212 240.752 235.82 242.24 235.82 244C235.82 245.76 235.212 247.248 233.996 248.464C232.796 249.68 231.34 250.288 229.628 250.288C227.5 250.288 225.884 249.408 224.78 247.648V254.8H223.196V238H224.78V240.352C225.884 238.592 227.5 237.712 229.628 237.712ZM226.148 247.384C227.06 248.296 228.18 248.752 229.508 248.752C230.836 248.752 231.956 248.296 232.868 247.384C233.78 246.456 234.236 245.328 234.236 244C234.236 242.672 233.78 241.552 232.868 240.64C231.956 239.712 230.836 239.248 229.508 239.248C228.18 239.248 227.06 239.712 226.148 240.64C225.236 241.552 224.78 242.672 224.78 244C224.78 245.328 225.236 246.456 226.148 247.384ZM248.773 238H250.357V250H248.773V247.648C247.669 249.408 246.053 250.288 243.925 250.288C242.213 250.288 240.749 249.68 239.533 248.464C238.333 247.248 237.733 245.76 237.733 244C237.733 242.24 238.333 240.752 239.533 239.536C240.749 238.32 242.213 237.712 243.925 237.712C246.053 237.712 247.669 238.592 248.773 240.352V238ZM240.685 247.384C241.597 248.296 242.717 248.752 244.045 248.752C245.373 248.752 246.493 248.296 247.405 247.384C248.317 246.456 248.773 245.328 248.773 244C248.773 242.672 248.317 241.552 247.405 240.64C246.493 239.712 245.373 239.248 244.045 239.248C242.717 239.248 241.597 239.712 240.685 240.64C239.773 241.552 239.317 242.672 239.317 244C239.317 245.328 239.773 246.456 240.685 247.384ZM265.471 238V250H263.887V240.424L259.687 247.24H259.495L255.295 240.424V250H253.711V238H255.535L259.591 244.576L263.647 238H265.471ZM278.524 250H276.412L270.412 244.216V250H268.828V238H270.412V243.304L276.124 238H278.284L272.092 243.76L278.524 250ZM289.812 238H291.397V250H289.812V247.648C288.709 249.408 287.093 250.288 284.965 250.288C283.253 250.288 281.789 249.68 280.573 248.464C279.373 247.248 278.773 245.76 278.773 244C278.773 242.24 279.373 240.752 280.573 239.536C281.789 238.32 283.253 237.712 284.965 237.712C287.093 237.712 288.709 238.592 289.812 240.352V238ZM281.725 247.384C282.637 248.296 283.757 248.752 285.085 248.752C286.413 248.752 287.533 248.296 288.445 247.384C289.357 246.456 289.812 245.328 289.812 244C289.812 242.672 289.357 241.552 288.445 240.64C287.533 239.712 286.413 239.248 285.085 239.248C283.757 239.248 282.637 239.712 281.725 240.64C280.813 241.552 280.357 242.672 280.357 244C280.357 245.328 280.813 246.456 281.725 247.384ZM304.83 250H302.934L299.19 245.056L295.446 250H293.55L298.254 243.784L293.862 238H295.758L299.19 242.536L302.622 238H304.518L300.15 243.784L304.83 250ZM323.065 238V250H321.481V239.536H314.569V250H312.985V238H323.065ZM332.846 237.712C334.558 237.712 336.014 238.32 337.214 239.536C338.43 240.752 339.038 242.24 339.038 244C339.038 245.76 338.43 247.248 337.214 248.464C336.014 249.68 334.558 250.288 332.846 250.288C330.718 250.288 329.102 249.408 327.998 247.648V254.8H326.414V238H327.998V240.352C329.102 238.592 330.718 237.712 332.846 237.712ZM329.366 247.384C330.278 248.296 331.398 248.752 332.726 248.752C334.054 248.752 335.174 248.296 336.086 247.384C336.998 246.456 337.454 245.328 337.454 244C337.454 242.672 336.998 241.552 336.086 240.64C335.174 239.712 334.054 239.248 332.726 239.248C331.398 239.248 330.278 239.712 329.366 240.64C328.454 241.552 327.998 242.672 327.998 244C327.998 245.328 328.454 246.456 329.366 247.384ZM350.408 238H351.752V250H350.168V240.76L343.016 250H341.672V238H343.256V247.24L350.408 238ZM364.942 238V250H363.358V239.536H357.934V244.888C357.934 246.888 357.55 248.264 356.782 249.016C356.03 249.768 354.99 250.096 353.662 250V248.512C354.574 248.608 355.246 248.392 355.678 247.864C356.126 247.336 356.35 246.344 356.35 244.888V238H364.942ZM377.033 238H378.377V250H376.793V240.76L369.641 250H368.297V238H369.881V247.24L377.033 238ZM389.503 238H391.087V250H389.503V245.44C388.575 245.92 387.431 246.16 386.071 246.16C384.503 246.16 383.303 245.8 382.471 245.08C381.655 244.344 381.247 243.264 381.247 241.84V238H382.831V241.84C382.831 242.848 383.095 243.576 383.623 244.024C384.151 244.456 384.951 244.672 386.023 244.672C387.271 244.672 388.431 244.44 389.503 243.976V238ZM403.189 238H404.533V250H402.949V240.76L395.797 250H394.453V238H396.037V247.24L403.189 238ZM416.523 238V250H414.939V245.392H412.875L409.179 250H407.163L410.955 245.344C409.995 245.2 409.203 244.8 408.579 244.144C407.955 243.488 407.643 242.68 407.643 241.72C407.643 240.632 408.027 239.744 408.795 239.056C409.579 238.352 410.531 238 411.651 238H416.523ZM411.651 243.904H414.939V239.536H411.651C410.979 239.536 410.403 239.736 409.923 240.136C409.459 240.536 409.227 241.064 409.227 241.72C409.227 242.376 409.459 242.904 409.923 243.304C410.403 243.704 410.979 243.904 411.651 243.904ZM422.523 247.96L421.083 253.36H419.643L420.603 247.96H422.523ZM154.276 278H156.868V290H154.276V285.224H148.78V290H146.188V278H148.78V282.776H154.276V278ZM168.563 278H170.555V290H168.011V282.368L161.867 290H159.875V278H162.419V285.608L168.563 278ZM184.171 290H181.075L176.155 284.456V290H173.563V278H176.155V283.304L180.811 278H183.979L178.699 283.88L184.171 290ZM194.457 278H197.049V290H194.457V288.272C193.481 289.632 192.081 290.312 190.257 290.312C188.609 290.312 187.201 289.704 186.033 288.488C184.865 287.256 184.281 285.76 184.281 284C184.281 282.224 184.865 280.728 186.033 279.512C187.201 278.296 188.609 277.688 190.257 277.688C192.081 277.688 193.481 278.36 194.457 279.704V278ZM187.953 286.76C188.673 287.48 189.577 287.84 190.665 287.84C191.753 287.84 192.657 287.48 193.377 286.76C194.097 286.024 194.457 285.104 194.457 284C194.457 282.896 194.097 281.984 193.377 281.264C192.657 280.528 191.753 280.16 190.665 280.16C189.577 280.16 188.673 280.528 187.953 281.264C187.233 281.984 186.873 282.896 186.873 284C186.873 285.104 187.233 286.024 187.953 286.76ZM210.679 290H207.583L202.663 284.456V290H200.071V278H202.663V283.304L207.319 278H210.487L205.207 283.88L210.679 290ZM221.11 278H223.102V290H220.558V282.368L214.414 290H212.422V278H214.966V285.608L221.11 278ZM236.838 290H233.838L230.862 285.896L227.862 290H224.838L229.35 283.832L225.078 278H228.078L230.838 281.792L233.598 278H236.622L232.35 283.856L236.838 290ZM255.258 278V290H252.666V280.448H247.17V290H244.578V278H255.258ZM263.93 290.312C262.17 290.312 260.674 289.704 259.442 288.488C258.21 287.272 257.594 285.776 257.594 284C257.594 282.224 258.21 280.728 259.442 279.512C260.674 278.296 262.17 277.688 263.93 277.688C265.706 277.688 267.202 278.296 268.418 279.512C269.65 280.728 270.266 282.224 270.266 284C270.266 285.776 269.65 287.272 268.418 288.488C267.202 289.704 265.706 290.312 263.93 290.312ZM261.266 286.712C261.986 287.432 262.874 287.792 263.93 287.792C264.986 287.792 265.874 287.432 266.594 286.712C267.314 285.992 267.674 285.088 267.674 284C267.674 282.912 267.314 282.008 266.594 281.288C265.874 280.568 264.986 280.208 263.93 280.208C262.874 280.208 261.986 280.568 261.266 281.288C260.546 282.008 260.186 282.912 260.186 284C260.186 285.088 260.546 285.992 261.266 286.712ZM286.818 278H289.41V290H272.61V278H275.202V287.552H279.714V278H282.306V287.552H286.818V278ZM302.542 278V290H299.95V280.496H295.942V284.96C295.942 286.864 295.526 288.216 294.694 289.016C293.862 289.816 292.678 290.144 291.142 290V287.576C291.878 287.704 292.43 287.552 292.798 287.12C293.166 286.688 293.35 285.928 293.35 284.84V278H302.542ZM311.227 290.312C309.467 290.312 307.971 289.704 306.739 288.488C305.507 287.272 304.891 285.776 304.891 284C304.891 282.224 305.507 280.728 306.739 279.512C307.971 278.296 309.467 277.688 311.227 277.688C313.003 277.688 314.499 278.296 315.715 279.512C316.947 280.728 317.563 282.224 317.563 284C317.563 285.776 316.947 287.272 315.715 288.488C314.499 289.704 313.003 290.312 311.227 290.312ZM308.563 286.712C309.283 287.432 310.171 287.792 311.227 287.792C312.283 287.792 313.171 287.432 313.891 286.712C314.611 285.992 314.971 285.088 314.971 284C314.971 282.912 314.611 282.008 313.891 281.288C313.171 280.568 312.283 280.208 311.227 280.208C310.171 280.208 309.283 280.568 308.563 281.288C307.843 282.008 307.483 282.912 307.483 284C307.483 285.088 307.843 285.992 308.563 286.712ZM325.571 290.312C323.763 290.312 322.251 289.704 321.035 288.488C319.835 287.272 319.235 285.776 319.235 284C319.235 282.208 319.835 280.712 321.035 279.512C322.251 278.296 323.763 277.688 325.571 277.688C326.739 277.688 327.803 277.968 328.763 278.528C329.723 279.088 330.443 279.84 330.923 280.784L328.691 282.08C328.419 281.504 328.003 281.056 327.443 280.736C326.899 280.4 326.267 280.232 325.547 280.232C324.491 280.232 323.603 280.592 322.883 281.312C322.179 282.032 321.827 282.928 321.827 284C321.827 285.072 322.179 285.968 322.883 286.688C323.603 287.408 324.491 287.768 325.547 287.768C326.251 287.768 326.883 287.6 327.443 287.264C328.019 286.928 328.451 286.48 328.739 285.92L330.971 287.192C330.459 288.152 329.723 288.912 328.763 289.472C327.803 290.032 326.739 290.312 325.571 290.312ZM341.895 278V280.496H337.983V290H335.391V280.496H331.455V278H341.895ZM345.22 285.104C345.412 286.016 345.852 286.72 346.54 287.216C347.228 287.696 348.068 287.936 349.06 287.936C350.436 287.936 351.468 287.44 352.156 286.448L354.292 287.696C353.108 289.44 351.356 290.312 349.036 290.312C347.084 290.312 345.508 289.72 344.308 288.536C343.108 287.336 342.508 285.824 342.508 284C342.508 282.208 343.1 280.712 344.284 279.512C345.468 278.296 346.988 277.688 348.844 277.688C350.604 277.688 352.044 278.304 353.164 279.536C354.3 280.768 354.868 282.264 354.868 284.024C354.868 284.296 354.836 284.656 354.772 285.104H345.22ZM345.196 282.992H352.252C352.076 282.016 351.668 281.28 351.028 280.784C350.404 280.288 349.668 280.04 348.82 280.04C347.86 280.04 347.06 280.304 346.42 280.832C345.78 281.36 345.372 282.08 345.196 282.992ZM359.117 276.32V274.064H365.837V276.32H359.117ZM365.837 278H367.829V290H365.285V282.368L359.141 290H357.149V278H359.693V285.608L365.837 278ZM199.527 323.832C200.839 324.312 201.495 325.248 201.495 326.64C201.495 327.616 201.167 328.424 200.511 329.064C199.871 329.688 198.943 330 197.727 330H191.895V318H197.247C198.415 318 199.319 318.304 199.959 318.912C200.599 319.504 200.919 320.272 200.919 321.216C200.919 322.416 200.455 323.288 199.527 323.832ZM197.247 319.536H193.479V323.184H197.247C198.639 323.184 199.335 322.56 199.335 321.312C199.335 320.752 199.151 320.32 198.783 320.016C198.431 319.696 197.919 319.536 197.247 319.536ZM197.727 328.464C198.431 328.464 198.967 328.296 199.335 327.96C199.719 327.624 199.911 327.152 199.911 326.544C199.911 325.984 199.719 325.544 199.335 325.224C198.967 324.888 198.431 324.72 197.727 324.72H193.479V328.464H197.727ZM219.951 328.488C218.735 329.688 217.247 330.288 215.487 330.288C213.727 330.288 212.231 329.688 210.999 328.488C209.783 327.272 209.175 325.776 209.175 324C209.175 322.224 209.783 320.736 210.999 319.536C212.231 318.32 213.727 317.712 215.487 317.712C217.247 317.712 218.735 318.32 219.951 319.536C221.183 320.736 221.799 322.224 221.799 324C221.799 325.776 221.183 327.272 219.951 328.488ZM212.127 327.384C213.039 328.296 214.159 328.752 215.487 328.752C216.815 328.752 217.935 328.296 218.847 327.384C219.759 326.456 220.215 325.328 220.215 324C220.215 322.672 219.759 321.552 218.847 320.64C217.935 319.712 216.815 319.248 215.487 319.248C214.159 319.248 213.039 319.712 212.127 320.64C211.215 321.552 210.759 322.672 210.759 324C210.759 325.328 211.215 326.456 212.127 327.384ZM236.162 319.728C237.314 320.896 237.89 322.32 237.89 324C237.89 325.68 237.314 327.104 236.162 328.272C235.01 329.44 233.49 330.104 231.602 330.264V334.8H230.018V330.264C228.13 330.104 226.61 329.44 225.458 328.272C224.306 327.104 223.73 325.68 223.73 324C223.73 322.32 224.306 320.896 225.458 319.728C226.61 318.56 228.13 317.896 230.018 317.736V313.2H231.602V317.736C233.49 317.896 235.01 318.56 236.162 319.728ZM226.586 320.832C225.738 321.696 225.314 322.752 225.314 324C225.314 325.248 225.738 326.312 226.586 327.192C227.434 328.056 228.578 328.56 230.018 328.704V319.296C228.578 319.44 227.434 319.952 226.586 320.832ZM231.602 328.704C233.042 328.56 234.186 328.056 235.034 327.192C235.882 326.312 236.306 325.248 236.306 324C236.306 322.752 235.882 321.696 235.034 320.832C234.186 319.952 233.042 319.44 231.602 319.296V328.704ZM252.24 319.728C253.392 320.896 253.968 322.32 253.968 324C253.968 325.68 253.392 327.104 252.24 328.272C251.088 329.44 249.568 330.104 247.68 330.264V334.8H246.096V330.264C244.208 330.104 242.688 329.44 241.536 328.272C240.384 327.104 239.808 325.68 239.808 324C239.808 322.32 240.384 320.896 241.536 319.728C242.688 318.56 244.208 317.896 246.096 317.736V313.2H247.68V317.736C249.568 317.896 251.088 318.56 252.24 319.728ZM242.664 320.832C241.816 321.696 241.392 322.752 241.392 324C241.392 325.248 241.816 326.312 242.664 327.192C243.512 328.056 244.656 328.56 246.096 328.704V319.296C244.656 319.44 243.512 319.952 242.664 320.832ZM247.68 328.704C249.12 328.56 250.264 328.056 251.112 327.192C251.96 326.312 252.384 325.248 252.384 324C252.384 322.752 251.96 321.696 251.112 320.832C250.264 319.952 249.12 319.44 247.68 319.296V328.704ZM265.977 318V330H264.393V319.536H258.969V324.888C258.969 326.888 258.585 328.264 257.817 329.016C257.065 329.768 256.025 330.096 254.697 330V328.512C255.609 328.608 256.281 328.392 256.713 327.864C257.161 327.336 257.385 326.344 257.385 324.888V318H265.977ZM279.652 318H281.236V330H279.652V327.648C278.548 329.408 276.932 330.288 274.804 330.288C273.092 330.288 271.628 329.68 270.412 328.464C269.212 327.248 268.612 325.76 268.612 324C268.612 322.24 269.212 320.752 270.412 319.536C271.628 318.32 273.092 317.712 274.804 317.712C276.932 317.712 278.548 318.592 279.652 320.352V318ZM271.564 327.384C272.476 328.296 273.596 328.752 274.924 328.752C276.252 328.752 277.372 328.296 278.284 327.384C279.196 326.456 279.652 325.328 279.652 324C279.652 322.672 279.196 321.552 278.284 320.64C277.372 319.712 276.252 319.248 274.924 319.248C273.596 319.248 272.476 319.712 271.564 320.64C270.652 321.552 270.196 322.672 270.196 324C270.196 325.328 270.652 326.456 271.564 327.384ZM286.51 316.08V314.688H292.75V316.08H286.51ZM293.326 318H294.67V330H293.086V320.76L285.934 330H284.59V318H286.174V327.24L293.326 318ZM306.516 318H308.1V330H306.516V324.768H299.604V330H298.02V318H299.604V323.232H306.516V318ZM316.994 317.712C318.77 317.712 320.202 318.344 321.29 319.608C322.394 320.856 322.946 322.336 322.946 324.048C322.946 324.224 322.93 324.472 322.898 324.792H312.362C312.522 326.008 313.034 326.976 313.898 327.696C314.778 328.4 315.858 328.752 317.138 328.752C318.05 328.752 318.834 328.568 319.49 328.2C320.162 327.816 320.666 327.32 321.002 326.712L322.394 327.528C321.866 328.376 321.146 329.048 320.234 329.544C319.322 330.04 318.282 330.288 317.114 330.288C315.226 330.288 313.69 329.696 312.506 328.512C311.322 327.328 310.73 325.824 310.73 324C310.73 322.208 311.314 320.712 312.482 319.512C313.65 318.312 315.154 317.712 316.994 317.712ZM316.994 319.248C315.746 319.248 314.698 319.624 313.85 320.376C313.018 321.112 312.522 322.072 312.362 323.256H321.314C321.154 321.992 320.666 321.008 319.85 320.304C319.034 319.6 318.082 319.248 316.994 319.248Z" fill="#5B5B87"/>
<defs>
<filter id="filter0_d_28_373" x="0.254852" y="0.254883" width="514.039" height="514.039" filterUnits="userSpaceOnUse" color-interpolation-filters="sRGB">
<feFlood flood-opacity="0" result="BackgroundImageFix"/>
<feColorMatrix in="SourceAlpha" type="matrix" values="0 0 0 0 0 0 0 0 0 0 0 0 0 0 0 0 0 0 127 0" result="hardAlpha"/>
<feOffset dy="15"/>
<feGaussianBlur stdDeviation="22"/>
<feColorMatrix type="matrix" values="0 0 0 0 0.0509804 0 0 0 0 0.0588235 0 0 0 0 0.109804 0 0 0 0.06 0"/>
<feBlend mode="normal" in2="BackgroundImageFix" result="effect1_dropShadow_28_373"/>
<feBlend mode="normal" in="SourceGraphic" in2="effect1_dropShadow_28_373" result="shape"/>
</filter>
</defs>
</svg>
