<svg width="516" height="515" viewBox="0 0 516 515" fill="none" xmlns="http://www.w3.org/2000/svg">
<g filter="url(#filter0_d_28_367)">
<rect x="258" y="16" width="320" height="320" rx="32" transform="rotate(45 258 16)" fill="white"/>
</g>
<path d="M247.683 173H254.67V189.75C251.903 187.13 249.403 181.43 247.877 173.983L247.683 173ZM246.917 168H254.833C255.218 166.118 256.24 164.426 257.728 163.211C259.217 161.996 261.079 161.333 263 161.333H269.61C269.738 157.998 269.673 154.658 269.417 151.33H246.587L246.477 152.96C246.187 157.977 246.334 163.009 246.917 168ZM290.227 163.617C290.457 163.463 290.693 163.333 290.93 163.223C291.551 159.275 291.463 155.248 290.67 151.33H274.437L274.57 153.517C274.69 156.121 274.704 158.728 274.61 161.333H279.667C281.179 161.333 282.663 161.744 283.96 162.523C285.256 163.301 286.316 164.418 287.027 165.753L290.227 163.617ZM228.227 173H242.573C243.79 179.943 245.85 185.847 248.55 189.98C240.076 187.464 232.943 181.693 228.713 173.93L228.223 173H228.227ZM225.333 151.333H241.567C241.218 156.24 241.255 161.166 241.677 166.067L241.867 168H226.193C224.505 162.606 224.209 156.873 225.333 151.333ZM267.817 126.587L267.457 126.02C272.411 127.491 276.957 130.091 280.736 133.616C284.516 137.14 287.427 141.494 289.24 146.333H273.94C272.887 138.277 270.75 131.357 267.817 126.587ZM248.143 126.143L248.547 126.02C245.613 130.52 243.43 137.12 242.273 144.867L242.067 146.333H226.767C228.555 141.561 231.411 137.261 235.116 133.762C238.821 130.262 243.277 127.657 248.143 126.143ZM258 124.667C262.393 124.667 266.817 133.14 268.71 145.28L268.867 146.33H247.133C248.927 133.63 253.477 124.667 258 124.667ZM258 169.667C258 168.341 258.527 167.069 259.464 166.131C260.402 165.194 261.674 164.667 263 164.667H279.667C280.993 164.667 282.265 165.194 283.202 166.131C284.14 167.069 284.667 168.341 284.667 169.667V171.333L292.073 166.39C292.325 166.223 292.616 166.127 292.918 166.113C293.219 166.099 293.519 166.166 293.785 166.309C294.051 166.452 294.273 166.664 294.428 166.923C294.582 167.182 294.664 167.478 294.663 167.78V191.553C294.663 191.855 294.581 192.151 294.426 192.409C294.271 192.668 294.049 192.88 293.783 193.022C293.518 193.164 293.218 193.232 292.917 193.217C292.616 193.203 292.324 193.107 292.073 192.94L284.667 188V189.667C284.667 190.993 284.14 192.265 283.202 193.202C282.265 194.14 280.993 194.667 279.667 194.667H263C261.674 194.666 260.404 194.139 259.467 193.201C258.53 192.264 258.003 190.992 258.003 189.667V169.667H258Z" fill="#18AFF0"/>
<mask id="mask0_28_367" style="mask-type:alpha" maskUnits="userSpaceOnUse" x="224" y="124" width="71" height="71">
<path d="M247.683 173H254.67V189.75C251.903 187.13 249.403 181.43 247.877 173.983L247.683 173ZM246.917 168H254.833C255.218 166.118 256.24 164.426 257.728 163.211C259.217 161.996 261.079 161.333 263 161.333H269.61C269.738 157.998 269.673 154.658 269.417 151.33H246.587L246.477 152.96C246.187 157.977 246.334 163.009 246.917 168ZM290.227 163.617C290.457 163.463 290.693 163.333 290.93 163.223C291.551 159.275 291.463 155.248 290.67 151.33H274.437L274.57 153.517C274.69 156.121 274.704 158.728 274.61 161.333H279.667C281.179 161.333 282.663 161.744 283.96 162.523C285.256 163.301 286.316 164.418 287.027 165.753L290.227 163.617ZM228.227 173H242.573C243.79 179.943 245.85 185.847 248.55 189.98C240.076 187.464 232.943 181.693 228.713 173.93L228.223 173H228.227ZM225.333 151.333H241.567C241.218 156.24 241.255 161.166 241.677 166.067L241.867 168H226.193C224.505 162.606 224.209 156.873 225.333 151.333ZM267.817 126.587L267.457 126.02C272.411 127.491 276.957 130.091 280.736 133.616C284.516 137.14 287.427 141.494 289.24 146.333H273.94C272.887 138.277 270.75 131.357 267.817 126.587ZM248.143 126.143L248.547 126.02C245.613 130.52 243.43 137.12 242.273 144.867L242.067 146.333H226.767C228.555 141.561 231.411 137.261 235.116 133.762C238.821 130.262 243.277 127.657 248.143 126.143ZM258 124.667C262.393 124.667 266.817 133.14 268.71 145.28L268.867 146.33H247.133C248.927 133.63 253.477 124.667 258 124.667ZM258 169.667C258 168.341 258.527 167.069 259.464 166.131C260.402 165.194 261.674 164.667 263 164.667H279.667C280.993 164.667 282.265 165.194 283.202 166.131C284.14 167.069 284.667 168.341 284.667 169.667V171.333L292.073 166.39C292.325 166.223 292.616 166.127 292.918 166.113C293.219 166.099 293.519 166.166 293.785 166.309C294.051 166.452 294.273 166.664 294.428 166.923C294.582 167.182 294.664 167.478 294.663 167.78V191.553C294.663 191.855 294.581 192.151 294.426 192.409C294.271 192.668 294.049 192.88 293.783 193.022C293.518 193.164 293.218 193.232 292.917 193.217C292.616 193.203 292.324 193.107 292.073 192.94L284.667 188V189.667C284.667 190.993 284.14 192.265 283.202 193.202C282.265 194.14 280.993 194.667 279.667 194.667H263C261.674 194.666 260.404 194.139 259.467 193.201C258.53 192.264 258.003 190.992 258.003 189.667V169.667H258Z" fill="#FC377E"/>
</mask>
<g mask="url(#mask0_28_367)">
<path d="M257 169C257 166.239 259.239 164 262 164H283.5L286.5 167.5L296 164V196H257V169Z" fill="#FC377E"/>
</g>
<path d="M117.193 233.2H118.873V250H117.193V242.152H108.073V250H106.393V233.2H108.073V240.568H117.193V233.2ZM132.785 238H134.369V250H132.785V247.648C131.681 249.408 130.065 250.288 127.937 250.288C126.225 250.288 124.761 249.68 123.545 248.464C122.345 247.248 121.745 245.76 121.745 244C121.745 242.24 122.345 240.752 123.545 239.536C124.761 238.32 126.225 237.712 127.937 237.712C130.065 237.712 131.681 238.592 132.785 240.352V238ZM124.697 247.384C125.609 248.296 126.729 248.752 128.057 248.752C129.385 248.752 130.505 248.296 131.417 247.384C132.329 246.456 132.785 245.328 132.785 244C132.785 242.672 132.329 241.552 131.417 240.64C130.505 239.712 129.385 239.248 128.057 239.248C126.729 239.248 125.609 239.712 124.697 240.64C123.785 241.552 123.329 242.672 123.329 244C123.329 245.328 123.785 246.456 124.697 247.384ZM152.219 238H153.803V250H137.723V238H139.307V248.464H144.971V238H146.555V248.464H152.219V238ZM165.889 238H167.233V250H165.649V240.76L158.497 250H157.153V238H158.737V247.24L165.889 238ZM188.342 238V250H186.758V240.424L182.558 247.24H182.366L178.166 240.424V250H176.582V238H178.406L182.462 244.576L186.518 238H188.342ZM201.756 248.488C200.54 249.688 199.052 250.288 197.292 250.288C195.532 250.288 194.036 249.688 192.804 248.488C191.588 247.272 190.98 245.776 190.98 244C190.98 242.224 191.588 240.736 192.804 239.536C194.036 238.32 195.532 237.712 197.292 237.712C199.052 237.712 200.54 238.32 201.756 239.536C202.988 240.736 203.604 242.224 203.604 244C203.604 245.776 202.988 247.272 201.756 248.488ZM193.932 247.384C194.844 248.296 195.964 248.752 197.292 248.752C198.62 248.752 199.74 248.296 200.652 247.384C201.564 246.456 202.02 245.328 202.02 244C202.02 242.672 201.564 241.552 200.652 240.64C199.74 239.712 198.62 239.248 197.292 239.248C195.964 239.248 194.844 239.712 193.932 240.64C193.02 241.552 192.564 242.672 192.564 244C192.564 245.328 193.02 246.456 193.932 247.384ZM215.865 248.464H217.545V253.216H215.961V250H206.169V253.216H204.585V248.464H206.049C206.865 247.392 207.273 245.88 207.273 243.928V238H215.865V248.464ZM207.969 248.464H214.281V239.536H208.857V243.928C208.857 245.768 208.561 247.28 207.969 248.464ZM225.017 237.712C226.793 237.712 228.225 238.344 229.313 239.608C230.417 240.856 230.969 242.336 230.969 244.048C230.969 244.224 230.953 244.472 230.921 244.792H220.385C220.545 246.008 221.057 246.976 221.921 247.696C222.801 248.4 223.881 248.752 225.161 248.752C226.073 248.752 226.857 248.568 227.513 248.2C228.185 247.816 228.689 247.32 229.025 246.712L230.417 247.528C229.889 248.376 229.169 249.048 228.257 249.544C227.345 250.04 226.305 250.288 225.137 250.288C223.249 250.288 221.713 249.696 220.529 248.512C219.345 247.328 218.753 245.824 218.753 244C218.753 242.208 219.337 240.712 220.505 239.512C221.673 238.312 223.177 237.712 225.017 237.712ZM225.017 239.248C223.769 239.248 222.721 239.624 221.873 240.376C221.041 241.112 220.545 242.072 220.385 243.256H229.337C229.177 241.992 228.689 241.008 227.873 240.304C227.057 239.6 226.105 239.248 225.017 239.248ZM242.86 238V250H241.276V239.536H235.852V244.888C235.852 246.888 235.468 248.264 234.7 249.016C233.948 249.768 232.908 250.096 231.58 250V248.512C232.492 248.608 233.164 248.392 233.596 247.864C234.044 247.336 234.268 246.344 234.268 244.888V238H242.86ZM254.951 238H256.295V250H254.711V240.76L247.559 250H246.215V238H247.799V247.24L254.951 238ZM272.077 237.712C273.789 237.712 275.245 238.32 276.445 239.536C277.661 240.752 278.269 242.24 278.269 244C278.269 245.76 277.661 247.248 276.445 248.464C275.245 249.68 273.789 250.288 272.077 250.288C269.949 250.288 268.333 249.408 267.229 247.648V254.8H265.645V238H267.229V240.352C268.333 238.592 269.949 237.712 272.077 237.712ZM268.597 247.384C269.509 248.296 270.629 248.752 271.957 248.752C273.285 248.752 274.405 248.296 275.317 247.384C276.229 246.456 276.685 245.328 276.685 244C276.685 242.672 276.229 241.552 275.317 240.64C274.405 239.712 273.285 239.248 271.957 239.248C270.629 239.248 269.509 239.712 268.597 240.64C267.685 241.552 267.229 242.672 267.229 244C267.229 245.328 267.685 246.456 268.597 247.384ZM291.223 238H292.807V250H291.223V247.648C290.119 249.408 288.503 250.288 286.375 250.288C284.663 250.288 283.199 249.68 281.983 248.464C280.783 247.248 280.183 245.76 280.183 244C280.183 242.24 280.783 240.752 281.983 239.536C283.199 238.32 284.663 237.712 286.375 237.712C288.503 237.712 290.119 238.592 291.223 240.352V238ZM283.135 247.384C284.047 248.296 285.167 248.752 286.495 248.752C287.823 248.752 288.943 248.296 289.855 247.384C290.767 246.456 291.223 245.328 291.223 244C291.223 242.672 290.767 241.552 289.855 240.64C288.943 239.712 287.823 239.248 286.495 239.248C285.167 239.248 284.047 239.712 283.135 240.64C282.223 241.552 281.767 242.672 281.767 244C281.767 245.328 282.223 246.456 283.135 247.384ZM301.488 250.288C299.76 250.288 298.32 249.72 297.168 248.584C296.016 247.432 295.44 245.944 295.44 244.12C295.44 242.072 295.744 240.504 296.352 239.416C296.96 238.312 298.192 237.312 300.048 236.416C300.4 236.24 300.864 236.032 301.44 235.792C302.032 235.552 302.472 235.36 302.76 235.216C303.064 235.072 303.392 234.888 303.744 234.664C304.096 234.424 304.36 234.16 304.536 233.872C304.712 233.584 304.824 233.24 304.872 232.84L306.12 233.56C306.056 233.944 305.928 234.304 305.736 234.64C305.544 234.976 305.344 235.248 305.136 235.456C304.944 235.664 304.632 235.896 304.2 236.152C303.784 236.392 303.456 236.568 303.216 236.68C302.992 236.776 302.592 236.944 302.016 237.184C301.456 237.424 301.08 237.584 300.888 237.664C299.768 238.144 298.944 238.648 298.416 239.176C297.888 239.688 297.512 240.36 297.288 241.192C297.832 240.472 298.52 239.944 299.352 239.608C300.2 239.256 301.024 239.08 301.824 239.08C303.424 239.08 304.744 239.608 305.784 240.664C306.84 241.704 307.368 243.04 307.368 244.672C307.368 246.288 306.808 247.632 305.688 248.704C304.584 249.76 303.184 250.288 301.488 250.288ZM301.488 248.704C302.736 248.704 303.76 248.328 304.56 247.576C305.376 246.808 305.784 245.84 305.784 244.672C305.784 243.488 305.4 242.52 304.632 241.768C303.88 241 302.872 240.616 301.608 240.616C300.472 240.616 299.44 240.976 298.512 241.696C297.584 242.4 297.12 243.344 297.12 244.528C297.12 245.744 297.536 246.744 298.368 247.528C299.216 248.312 300.256 248.704 301.488 248.704ZM319.834 248.488C318.618 249.688 317.13 250.288 315.37 250.288C313.61 250.288 312.114 249.688 310.882 248.488C309.666 247.272 309.058 245.776 309.058 244C309.058 242.224 309.666 240.736 310.882 239.536C312.114 238.32 313.61 237.712 315.37 237.712C317.13 237.712 318.618 238.32 319.834 239.536C321.066 240.736 321.682 242.224 321.682 244C321.682 245.776 321.066 247.272 319.834 248.488ZM312.01 247.384C312.922 248.296 314.042 248.752 315.37 248.752C316.698 248.752 317.818 248.296 318.73 247.384C319.642 246.456 320.098 245.328 320.098 244C320.098 242.672 319.642 241.552 318.73 240.64C317.818 239.712 316.698 239.248 315.37 239.248C314.042 239.248 312.922 239.712 312.01 240.64C311.098 241.552 310.642 242.672 310.642 244C310.642 245.328 311.098 246.456 312.01 247.384ZM332.504 238V239.536H328.256V250H326.672V239.536H322.424V238H332.504ZM344.285 238H345.869V250H344.285V247.648C343.181 249.408 341.565 250.288 339.437 250.288C337.725 250.288 336.261 249.68 335.045 248.464C333.845 247.248 333.245 245.76 333.245 244C333.245 242.24 333.845 240.752 335.045 239.536C336.261 238.32 337.725 237.712 339.437 237.712C341.565 237.712 343.181 238.592 344.285 240.352V238ZM336.197 247.384C337.109 248.296 338.229 248.752 339.557 248.752C340.885 248.752 342.005 248.296 342.917 247.384C343.829 246.456 344.285 245.328 344.285 244C344.285 242.672 343.829 241.552 342.917 240.64C342.005 239.712 340.885 239.248 339.557 239.248C338.229 239.248 337.109 239.712 336.197 240.64C335.285 241.552 334.829 242.672 334.829 244C334.829 245.328 335.285 246.456 336.197 247.384ZM359.471 237.712C361.231 237.712 362.719 238.32 363.935 239.536C365.167 240.736 365.783 242.224 365.783 244C365.783 245.776 365.167 247.272 363.935 248.488C362.719 249.688 361.231 250.288 359.471 250.288C357.855 250.288 356.463 249.768 355.295 248.728C354.143 247.672 353.479 246.352 353.303 244.768H350.807V250H349.223V238H350.807V243.232H353.303C353.479 241.648 354.143 240.336 355.295 239.296C356.463 238.24 357.855 237.712 359.471 237.712ZM356.111 247.384C357.023 248.296 358.143 248.752 359.471 248.752C360.799 248.752 361.919 248.296 362.831 247.384C363.743 246.456 364.199 245.328 364.199 244C364.199 242.672 363.743 241.552 362.831 240.64C361.919 239.712 360.799 239.248 359.471 239.248C358.143 239.248 357.023 239.712 356.111 240.64C355.199 241.552 354.743 242.672 354.743 244C354.743 245.328 355.199 246.456 356.111 247.384ZM376.59 238V239.536H372.342V250H370.758V239.536H366.51V238H376.59ZM393.016 238H394.6V250H393.016V244.768H386.104V250H384.52V238H386.104V243.232H393.016V238ZM408.27 238H409.854V250H408.27V247.648C407.166 249.408 405.55 250.288 403.422 250.288C401.71 250.288 400.246 249.68 399.03 248.464C397.83 247.248 397.23 245.76 397.23 244C397.23 242.24 397.83 240.752 399.03 239.536C400.246 238.32 401.71 237.712 403.422 237.712C405.55 237.712 407.166 238.592 408.27 240.352V238ZM400.182 247.384C401.094 248.296 402.214 248.752 403.542 248.752C404.87 248.752 405.99 248.296 406.902 247.384C407.814 246.456 408.27 245.328 408.27 244C408.27 242.672 407.814 241.552 406.902 240.64C405.99 239.712 404.87 239.248 403.542 239.248C402.214 239.248 401.094 239.712 400.182 240.64C399.27 241.552 398.814 242.672 398.814 244C398.814 245.328 399.27 246.456 400.182 247.384ZM148.304 278V290H145.712V280.496H141.704V284.96C141.704 286.864 141.288 288.216 140.456 289.016C139.624 289.816 138.44 290.144 136.904 290V287.576C137.64 287.704 138.192 287.552 138.56 287.12C138.928 286.688 139.112 285.928 139.112 284.84V278H148.304ZM159.413 278H162.173L157.565 290.384C157.005 291.904 156.221 293.04 155.213 293.792C154.205 294.544 153.037 294.88 151.709 294.8V292.376C152.525 292.424 153.181 292.256 153.677 291.872C154.189 291.504 154.597 290.904 154.901 290.072L154.973 289.904L149.933 278H152.693L156.341 286.736L159.413 278ZM171.089 278H173.681V290H171.089V285.944C170.129 286.296 169.121 286.472 168.065 286.472C166.577 286.472 165.401 286.104 164.537 285.368C163.673 284.632 163.241 283.552 163.241 282.128V278H165.833V281.888C165.833 283.328 166.689 284.048 168.401 284.048C169.409 284.048 170.305 283.864 171.089 283.496V278ZM190.915 278H193.507V290H176.707V278H179.299V287.552H183.811V278H186.403V287.552H190.915V278ZM205.2 278H207.192V290H204.648V282.368L198.504 290H196.512V278H199.056V285.608L205.2 278ZM220.928 290H217.928L214.952 285.896L211.952 290H208.928L213.44 283.832L209.168 278H212.168L214.928 281.792L217.688 278H220.712L216.44 283.856L220.928 290ZM237.356 278H239.348V290H236.804V282.368L230.66 290H228.668V278H231.212V285.608L237.356 278ZM250.444 278H253.036V290H250.444V285.224H244.948V290H242.356V278H244.948V282.776H250.444V278ZM261.707 290.312C259.947 290.312 258.451 289.704 257.219 288.488C255.987 287.272 255.371 285.776 255.371 284C255.371 282.224 255.987 280.728 257.219 279.512C258.451 278.296 259.947 277.688 261.707 277.688C263.483 277.688 264.979 278.296 266.195 279.512C267.427 280.728 268.043 282.224 268.043 284C268.043 285.776 267.427 287.272 266.195 288.488C264.979 289.704 263.483 290.312 261.707 290.312ZM259.043 286.712C259.763 287.432 260.651 287.792 261.707 287.792C262.763 287.792 263.651 287.432 264.371 286.712C265.091 285.992 265.451 285.088 265.451 284C265.451 282.912 265.091 282.008 264.371 281.288C263.651 280.568 262.763 280.208 261.707 280.208C260.651 280.208 259.763 280.568 259.043 281.288C258.323 282.008 257.963 282.912 257.963 284C257.963 285.088 258.323 285.992 259.043 286.712ZM276.051 290.312C274.243 290.312 272.731 289.704 271.515 288.488C270.315 287.272 269.715 285.776 269.715 284C269.715 282.208 270.315 280.712 271.515 279.512C272.731 278.296 274.243 277.688 276.051 277.688C277.219 277.688 278.283 277.968 279.243 278.528C280.203 279.088 280.923 279.84 281.403 280.784L279.171 282.08C278.899 281.504 278.483 281.056 277.923 280.736C277.379 280.4 276.747 280.232 276.027 280.232C274.971 280.232 274.083 280.592 273.363 281.312C272.659 282.032 272.307 282.928 272.307 284C272.307 285.072 272.659 285.968 273.363 286.688C274.083 287.408 274.971 287.768 276.027 287.768C276.731 287.768 277.363 287.6 277.923 287.264C278.499 286.928 278.931 286.48 279.219 285.92L281.451 287.192C280.939 288.152 280.203 288.912 279.243 289.472C278.283 290.032 277.219 290.312 276.051 290.312ZM292.375 278V280.496H288.463V290H285.871V280.496H281.935V278H292.375ZM300.921 277.688C302.569 277.688 303.977 278.304 305.145 279.536C306.313 280.752 306.897 282.24 306.897 284C306.897 285.776 306.313 287.272 305.145 288.488C303.977 289.704 302.569 290.312 300.921 290.312C299.097 290.312 297.697 289.64 296.721 288.296V294.8H294.129V278H296.721V279.728C297.697 278.368 299.097 277.688 300.921 277.688ZM297.801 286.76C298.521 287.48 299.425 287.84 300.513 287.84C301.601 287.84 302.505 287.48 303.225 286.76C303.945 286.024 304.305 285.104 304.305 284C304.305 282.896 303.945 281.984 303.225 281.264C302.505 280.528 301.601 280.16 300.513 280.16C299.425 280.16 298.521 280.528 297.801 281.264C297.081 281.984 296.721 282.896 296.721 284C296.721 285.104 297.081 286.024 297.801 286.76ZM318.75 278H321.342V290H318.75V288.272C317.774 289.632 316.374 290.312 314.55 290.312C312.902 290.312 311.494 289.704 310.326 288.488C309.158 287.256 308.574 285.76 308.574 284C308.574 282.224 309.158 280.728 310.326 279.512C311.494 278.296 312.902 277.688 314.55 277.688C316.374 277.688 317.774 278.36 318.75 279.704V278ZM312.246 286.76C312.966 287.48 313.87 287.84 314.958 287.84C316.046 287.84 316.95 287.48 317.67 286.76C318.39 286.024 318.75 285.104 318.75 284C318.75 282.896 318.39 281.984 317.67 281.264C316.95 280.528 316.046 280.16 314.958 280.16C313.87 280.16 312.966 280.528 312.246 281.264C311.526 281.984 311.166 282.896 311.166 284C311.166 285.104 311.526 286.024 312.246 286.76ZM332.452 278H335.044V290H332.452V285.224H326.956V290H324.364V278H326.956V282.776H332.452V278ZM346.139 278H348.731V290H346.139V285.224H340.643V290H338.051V278H340.643V282.776H346.139V278ZM356.971 282.08C358.251 282.08 359.299 282.448 360.115 283.184C360.931 283.904 361.339 284.856 361.339 286.04C361.339 287.208 360.931 288.16 360.115 288.896C359.299 289.632 358.251 290 356.971 290H351.739V278H354.331V282.08H356.971ZM362.779 278H365.371V290H362.779V278ZM356.995 287.672C357.507 287.672 357.931 287.52 358.267 287.216C358.619 286.912 358.795 286.52 358.795 286.04C358.795 285.544 358.619 285.152 358.267 284.864C357.931 284.56 357.507 284.408 356.995 284.408H354.331V287.672H356.995ZM379.107 290H376.107L373.131 285.896L370.131 290H367.107L371.619 283.832L367.347 278H370.347L373.107 281.792L375.867 278H378.891L374.619 283.856L379.107 290ZM171.019 323.832C172.331 324.312 172.987 325.248 172.987 326.64C172.987 327.616 172.659 328.424 172.003 329.064C171.363 329.688 170.435 330 169.219 330H163.387V318H168.739C169.907 318 170.811 318.304 171.451 318.912C172.091 319.504 172.411 320.272 172.411 321.216C172.411 322.416 171.947 323.288 171.019 323.832ZM168.739 319.536H164.971V323.184H168.739C170.131 323.184 170.827 322.56 170.827 321.312C170.827 320.752 170.643 320.32 170.275 320.016C169.923 319.696 169.411 319.536 168.739 319.536ZM169.219 328.464C169.923 328.464 170.459 328.296 170.827 327.96C171.211 327.624 171.403 327.152 171.403 326.544C171.403 325.984 171.211 325.544 170.827 325.224C170.459 324.888 169.923 324.72 169.219 324.72H164.971V328.464H169.219ZM180.931 317.712C182.707 317.712 184.139 318.344 185.227 319.608C186.331 320.856 186.883 322.336 186.883 324.048C186.883 324.224 186.867 324.472 186.835 324.792H176.299C176.459 326.008 176.971 326.976 177.835 327.696C178.715 328.4 179.795 328.752 181.075 328.752C181.987 328.752 182.771 328.568 183.427 328.2C184.099 327.816 184.603 327.32 184.939 326.712L186.331 327.528C185.803 328.376 185.083 329.048 184.171 329.544C183.259 330.04 182.219 330.288 181.051 330.288C179.163 330.288 177.627 329.696 176.443 328.512C175.259 327.328 174.667 325.824 174.667 324C174.667 322.208 175.251 320.712 176.419 319.512C177.587 318.312 179.091 317.712 180.931 317.712ZM180.931 319.248C179.683 319.248 178.635 319.624 177.787 320.376C176.955 321.112 176.459 322.072 176.299 323.256H185.251C185.091 321.992 184.603 321.008 183.787 320.304C182.971 319.6 182.019 319.248 180.931 319.248ZM194.731 330.288C193.003 330.288 191.563 329.72 190.411 328.584C189.259 327.432 188.683 325.944 188.683 324.12C188.683 322.072 188.987 320.504 189.595 319.416C190.203 318.312 191.435 317.312 193.291 316.416C193.643 316.24 194.107 316.032 194.683 315.792C195.275 315.552 195.715 315.36 196.003 315.216C196.307 315.072 196.635 314.888 196.987 314.664C197.339 314.424 197.603 314.16 197.779 313.872C197.955 313.584 198.067 313.24 198.115 312.84L199.363 313.56C199.299 313.944 199.171 314.304 198.979 314.64C198.787 314.976 198.587 315.248 198.379 315.456C198.187 315.664 197.875 315.896 197.443 316.152C197.027 316.392 196.699 316.568 196.459 316.68C196.235 316.776 195.835 316.944 195.259 317.184C194.699 317.424 194.323 317.584 194.131 317.664C193.011 318.144 192.187 318.648 191.659 319.176C191.131 319.688 190.755 320.36 190.531 321.192C191.075 320.472 191.763 319.944 192.595 319.608C193.443 319.256 194.267 319.08 195.067 319.08C196.667 319.08 197.987 319.608 199.027 320.664C200.083 321.704 200.611 323.04 200.611 324.672C200.611 326.288 200.051 327.632 198.931 328.704C197.827 329.76 196.427 330.288 194.731 330.288ZM194.731 328.704C195.979 328.704 197.003 328.328 197.803 327.576C198.619 326.808 199.027 325.84 199.027 324.672C199.027 323.488 198.643 322.52 197.875 321.768C197.123 321 196.115 320.616 194.851 320.616C193.715 320.616 192.683 320.976 191.755 321.696C190.827 322.4 190.363 323.344 190.363 324.528C190.363 325.744 190.779 326.744 191.611 327.528C192.459 328.312 193.499 328.704 194.731 328.704ZM203.26 323.352V321.816H211.9V323.352H203.26ZM225.569 318V330H223.985V319.536H217.073V330H215.489V318H225.569ZM238.758 318V330H237.174V319.536H231.75V324.888C231.75 326.888 231.366 328.264 230.598 329.016C229.846 329.768 228.806 330.096 227.478 330V328.512C228.39 328.608 229.062 328.392 229.494 327.864C229.942 327.336 230.166 326.344 230.166 324.888V318H238.758ZM252.434 318H254.018V330H252.434V327.648C251.33 329.408 249.714 330.288 247.586 330.288C245.874 330.288 244.41 329.68 243.194 328.464C241.994 327.248 241.394 325.76 241.394 324C241.394 322.24 241.994 320.752 243.194 319.536C244.41 318.32 245.874 317.712 247.586 317.712C249.714 317.712 251.33 318.592 252.434 320.352V318ZM244.346 327.384C245.258 328.296 246.378 328.752 247.706 328.752C249.034 328.752 250.154 328.296 251.066 327.384C251.978 326.456 252.434 325.328 252.434 324C252.434 322.672 251.978 321.552 251.066 320.64C250.154 319.712 249.034 319.248 247.706 319.248C246.378 319.248 245.258 319.712 244.346 320.64C243.434 321.552 242.978 322.672 242.978 324C242.978 325.328 243.434 326.456 244.346 327.384ZM266.011 318V319.536H261.763V330H260.179V319.536H255.931V318H266.011ZM279.185 319.728C280.337 320.896 280.913 322.32 280.913 324C280.913 325.68 280.337 327.104 279.185 328.272C278.033 329.44 276.513 330.104 274.625 330.264V334.8H273.041V330.264C271.153 330.104 269.633 329.44 268.481 328.272C267.329 327.104 266.753 325.68 266.753 324C266.753 322.32 267.329 320.896 268.481 319.728C269.633 318.56 271.153 317.896 273.041 317.736V313.2H274.625V317.736C276.513 317.896 278.033 318.56 279.185 319.728ZM269.609 320.832C268.761 321.696 268.337 322.752 268.337 324C268.337 325.248 268.761 326.312 269.609 327.192C270.457 328.056 271.601 328.56 273.041 328.704V319.296C271.601 319.44 270.457 319.952 269.609 320.832ZM274.625 328.704C276.065 328.56 277.209 328.056 278.057 327.192C278.905 326.312 279.329 325.248 279.329 324C279.329 322.752 278.905 321.696 278.057 320.832C277.209 319.952 276.065 319.44 274.625 319.296V328.704ZM293.607 328.488C292.391 329.688 290.903 330.288 289.143 330.288C287.383 330.288 285.887 329.688 284.655 328.488C283.439 327.272 282.831 325.776 282.831 324C282.831 322.224 283.439 320.736 284.655 319.536C285.887 318.32 287.383 317.712 289.143 317.712C290.903 317.712 292.391 318.32 293.607 319.536C294.839 320.736 295.455 322.224 295.455 324C295.455 325.776 294.839 327.272 293.607 328.488ZM285.783 327.384C286.695 328.296 287.815 328.752 289.143 328.752C290.471 328.752 291.591 328.296 292.503 327.384C293.415 326.456 293.871 325.328 293.871 324C293.871 322.672 293.415 321.552 292.503 320.64C291.591 319.712 290.471 319.248 289.143 319.248C287.815 319.248 286.695 319.712 285.783 320.64C284.871 321.552 284.415 322.672 284.415 324C284.415 325.328 284.871 326.456 285.783 327.384ZM304.538 317.712C306.25 317.712 307.706 318.32 308.906 319.536C310.122 320.752 310.73 322.24 310.73 324C310.73 325.76 310.122 327.248 308.906 328.464C307.706 329.68 306.25 330.288 304.538 330.288C302.41 330.288 300.794 329.408 299.69 327.648V334.8H298.106V318H299.69V320.352C300.794 318.592 302.41 317.712 304.538 317.712ZM301.058 327.384C301.97 328.296 303.09 328.752 304.418 328.752C305.746 328.752 306.866 328.296 307.778 327.384C308.69 326.456 309.146 325.328 309.146 324C309.146 322.672 308.69 321.552 307.778 320.64C306.866 319.712 305.746 319.248 304.418 319.248C303.09 319.248 301.97 319.712 301.058 320.64C300.146 321.552 299.69 322.672 299.69 324C299.69 325.328 300.146 326.456 301.058 327.384ZM325.124 318V330H323.54V320.424L319.34 327.24H319.148L314.948 320.424V330H313.364V318H315.188L319.244 324.576L323.3 318H325.124ZM338.801 318H340.385V330H338.801V327.648C337.697 329.408 336.081 330.288 333.953 330.288C332.241 330.288 330.777 329.68 329.561 328.464C328.361 327.248 327.761 325.76 327.761 324C327.761 322.24 328.361 320.752 329.561 319.536C330.777 318.32 332.241 317.712 333.953 317.712C336.081 317.712 337.697 318.592 338.801 320.352V318ZM330.713 327.384C331.625 328.296 332.745 328.752 334.073 328.752C335.401 328.752 336.521 328.296 337.433 327.384C338.345 326.456 338.801 325.328 338.801 324C338.801 322.672 338.345 321.552 337.433 320.64C336.521 319.712 335.401 319.248 334.073 319.248C332.745 319.248 331.625 319.712 330.713 320.64C329.801 321.552 329.345 322.672 329.345 324C329.345 325.328 329.801 326.456 330.713 327.384ZM353.819 330H351.923L348.179 325.056L344.435 330H342.539L347.243 323.784L342.851 318H344.747L348.179 322.536L351.611 318H353.507L349.139 323.784L353.819 330Z" fill="#5B5B87"/>
<defs>
<filter id="filter0_d_28_367" x="0.980667" y="0.254883" width="514.039" height="514.039" filterUnits="userSpaceOnUse" color-interpolation-filters="sRGB">
<feFlood flood-opacity="0" result="BackgroundImageFix"/>
<feColorMatrix in="SourceAlpha" type="matrix" values="0 0 0 0 0 0 0 0 0 0 0 0 0 0 0 0 0 0 127 0" result="hardAlpha"/>
<feOffset dy="15"/>
<feGaussianBlur stdDeviation="22"/>
<feColorMatrix type="matrix" values="0 0 0 0 0.0509804 0 0 0 0 0.0588235 0 0 0 0 0.109804 0 0 0 0.06 0"/>
<feBlend mode="normal" in2="BackgroundImageFix" result="effect1_dropShadow_28_367"/>
<feBlend mode="normal" in="SourceGraphic" in2="effect1_dropShadow_28_367" result="shape"/>
</filter>
</defs>
</svg>
