<svg width="516" height="515" viewBox="0 0 516 515" fill="none" xmlns="http://www.w3.org/2000/svg">
<g filter="url(#filter0_d_28_370)">
<rect x="258" y="16" width="320" height="320" rx="32" transform="rotate(45 258 16)" fill="white"/>
</g>
<g clip-path="url(#clip0_28_370)">
<path d="M277.512 119.128L278.904 123.412C279.337 124.715 280.069 125.898 281.041 126.868C282.012 127.838 283.197 128.568 284.5 129L288.784 130.392L288.868 130.416C289.198 130.532 289.485 130.748 289.687 131.034C289.889 131.32 289.998 131.662 289.998 132.012C289.998 132.362 289.889 132.704 289.687 132.99C289.485 133.276 289.198 133.492 288.868 133.608L284.584 135C283.281 135.432 282.097 136.163 281.126 137.133C280.154 138.103 279.422 139.286 278.988 140.588L277.596 144.868C277.48 145.198 277.264 145.485 276.978 145.687C276.692 145.889 276.35 145.998 276 145.998C275.65 145.998 275.308 145.889 275.022 145.687C274.736 145.485 274.52 145.198 274.404 144.868L273.008 140.588C272.575 139.283 271.847 138.097 270.88 137.12C269.907 136.147 268.721 135.413 267.416 134.976L263.132 133.584C262.802 133.468 262.515 133.252 262.313 132.966C262.111 132.68 262.002 132.338 262.002 131.988C262.002 131.638 262.111 131.296 262.313 131.01C262.515 130.724 262.802 130.508 263.132 130.392L267.416 129C268.703 128.556 269.869 127.821 270.825 126.851C271.78 125.882 272.499 124.705 272.924 123.412L274.316 119.132C274.431 118.8 274.647 118.513 274.934 118.309C275.22 118.105 275.563 117.996 275.914 117.996C276.265 117.996 276.608 118.105 276.894 118.309C277.181 118.513 277.397 118.796 277.512 119.128ZM297.132 150.852L294.068 149.86C293.138 149.55 292.293 149.027 291.6 148.334C290.907 147.64 290.385 146.794 290.076 145.864L289.076 142.808C288.993 142.572 288.839 142.367 288.635 142.222C288.431 142.077 288.186 142 287.936 142C287.686 142 287.441 142.077 287.237 142.222C287.033 142.367 286.879 142.572 286.796 142.808L285.804 145.864C285.501 146.789 284.988 147.631 284.305 148.324C283.622 149.017 282.788 149.543 281.868 149.86L278.808 150.852C278.574 150.937 278.371 151.091 278.228 151.295C278.084 151.499 278.008 151.743 278.008 151.992C278.008 152.241 278.084 152.484 278.228 152.688C278.371 152.892 278.574 153.047 278.808 153.132L281.868 154.128C282.801 154.438 283.648 154.962 284.343 155.658C285.037 156.354 285.559 157.203 285.868 158.136L286.86 161.192C286.943 161.428 287.097 161.633 287.301 161.778C287.505 161.923 287.75 162 288 162C288.25 162 288.495 161.923 288.699 161.778C288.903 161.633 289.057 161.428 289.14 161.192L290.136 158.136C290.445 157.205 290.967 156.359 291.661 155.665C292.355 154.971 293.201 154.449 294.132 154.14L297.192 153.148C297.426 153.063 297.629 152.908 297.772 152.704C297.916 152.5 297.992 152.257 297.992 152.008C297.992 151.759 297.916 151.515 297.772 151.311C297.629 151.107 297.426 150.953 297.192 150.868L297.132 150.852ZM288.008 166C286.944 165.999 285.904 165.679 285.024 165.08C284.144 164.44 283.504 163.596 283.104 162.596L282.064 159.388C281.955 159.052 281.762 158.749 281.504 158.508C281.252 158.263 280.953 158.072 280.624 157.948L277.576 156.948C276.496 156.548 275.616 155.904 274.976 155.024C274.336 154.144 274.016 153.1 274.016 152.016C274.016 151.256 274.176 150.496 274.496 149.816C273.848 149.652 273.237 149.367 272.696 148.976C271.746 148.277 271.021 147.314 270.612 146.208L269.172 141.84C268.812 140.92 268.452 140.4 268.012 139.96C267.474 139.442 266.832 139.045 266.128 138.796L261.884 137.396C260.684 136.996 259.724 136.232 259.044 135.268C258.364 134.308 258 133.188 258 131.988C258 130.784 258.36 129.66 259.04 128.7C259.72 127.74 260.68 127.02 261.8 126.616L262.668 126.336C258.12 125.665 253.48 125.983 249.066 127.266C244.651 128.55 240.565 130.769 237.086 133.774C233.606 136.779 230.815 140.498 228.902 144.679C226.989 148.859 225.999 153.403 226 158L226.028 159.384L226.132 160.912C226.494 164.937 227.619 168.856 229.448 172.46L229.7 172.94L226.06 187.516L226.004 187.848V188.176C226.029 188.464 226.117 188.743 226.261 188.995C226.405 189.246 226.601 189.462 226.837 189.63C227.073 189.798 227.342 189.912 227.626 189.966C227.911 190.019 228.203 190.011 228.484 189.94L243.064 186.3L243.544 186.556C247.819 188.719 252.526 189.895 257.316 189.996C262.107 190.098 266.859 189.123 271.222 187.143C275.585 185.164 279.449 182.23 282.527 178.558C285.605 174.886 287.82 170.57 289.008 165.928C288.677 165.976 288.343 166 288.008 166Z" fill="#FC377E"/>
<mask id="mask0_28_370" style="mask-type:alpha" maskUnits="userSpaceOnUse" x="226" y="117" width="72" height="74">
<path d="M277.512 119.128L278.904 123.412C279.337 124.715 280.069 125.898 281.041 126.868C282.012 127.838 283.197 128.568 284.5 129L288.784 130.392L288.868 130.416C289.198 130.532 289.485 130.748 289.687 131.034C289.889 131.32 289.998 131.662 289.998 132.012C289.998 132.362 289.889 132.704 289.687 132.99C289.485 133.276 289.198 133.492 288.868 133.608L284.584 135C283.281 135.432 282.097 136.163 281.126 137.133C280.154 138.103 279.422 139.286 278.988 140.588L277.596 144.868C277.48 145.198 277.264 145.485 276.978 145.687C276.692 145.889 276.35 145.998 276 145.998C275.65 145.998 275.308 145.889 275.022 145.687C274.736 145.485 274.52 145.198 274.404 144.868L273.008 140.588C272.575 139.283 271.847 138.097 270.88 137.12C269.907 136.147 268.721 135.413 267.416 134.976L263.132 133.584C262.802 133.468 262.515 133.252 262.313 132.966C262.111 132.68 262.002 132.338 262.002 131.988C262.002 131.638 262.111 131.296 262.313 131.01C262.515 130.724 262.802 130.508 263.132 130.392L267.416 129C268.703 128.556 269.869 127.821 270.825 126.851C271.78 125.882 272.499 124.705 272.924 123.412L274.316 119.132C274.431 118.8 274.647 118.513 274.934 118.309C275.22 118.105 275.563 117.996 275.914 117.996C276.265 117.996 276.608 118.105 276.894 118.309C277.181 118.513 277.397 118.796 277.512 119.128ZM297.132 150.852L294.068 149.86C293.138 149.55 292.293 149.027 291.6 148.334C290.907 147.64 290.385 146.794 290.076 145.864L289.076 142.808C288.993 142.572 288.839 142.367 288.635 142.222C288.431 142.077 288.186 142 287.936 142C287.686 142 287.441 142.077 287.237 142.222C287.033 142.367 286.879 142.572 286.796 142.808L285.804 145.864C285.501 146.789 284.988 147.631 284.305 148.324C283.622 149.017 282.788 149.543 281.868 149.86L278.808 150.852C278.574 150.937 278.371 151.091 278.228 151.295C278.084 151.499 278.008 151.743 278.008 151.992C278.008 152.241 278.084 152.484 278.228 152.688C278.371 152.892 278.574 153.047 278.808 153.132L281.868 154.128C282.801 154.438 283.648 154.962 284.343 155.658C285.037 156.354 285.559 157.203 285.868 158.136L286.86 161.192C286.943 161.428 287.097 161.633 287.301 161.778C287.505 161.923 287.75 162 288 162C288.25 162 288.495 161.923 288.699 161.778C288.903 161.633 289.057 161.428 289.14 161.192L290.136 158.136C290.445 157.205 290.967 156.359 291.661 155.665C292.355 154.971 293.201 154.449 294.132 154.14L297.192 153.148C297.426 153.063 297.629 152.908 297.772 152.704C297.916 152.5 297.992 152.257 297.992 152.008C297.992 151.759 297.916 151.515 297.772 151.311C297.629 151.107 297.426 150.953 297.192 150.868L297.132 150.852ZM288.008 166C286.944 165.999 285.904 165.679 285.024 165.08C284.144 164.44 283.504 163.596 283.104 162.596L282.064 159.388C281.955 159.052 281.762 158.749 281.504 158.508C281.252 158.263 280.953 158.072 280.624 157.948L277.576 156.948C276.496 156.548 275.616 155.904 274.976 155.024C274.336 154.144 274.016 153.1 274.016 152.016C274.016 151.256 274.176 150.496 274.496 149.816C273.848 149.652 273.237 149.367 272.696 148.976C271.746 148.277 271.021 147.314 270.612 146.208L269.172 141.84C268.812 140.92 268.452 140.4 268.012 139.96C267.474 139.442 266.832 139.045 266.128 138.796L261.884 137.396C260.684 136.996 259.724 136.232 259.044 135.268C258.364 134.308 258 133.188 258 131.988C258 130.784 258.36 129.66 259.04 128.7C259.72 127.74 260.68 127.02 261.8 126.616L262.668 126.336C258.12 125.665 253.48 125.983 249.066 127.266C244.651 128.55 240.565 130.769 237.086 133.774C233.606 136.779 230.815 140.498 228.902 144.679C226.989 148.859 225.999 153.403 226 158L226.028 159.384L226.132 160.912C226.494 164.937 227.619 168.856 229.448 172.46L229.7 172.94L226.06 187.516L226.004 187.848V188.176C226.029 188.464 226.117 188.743 226.261 188.995C226.405 189.246 226.601 189.462 226.837 189.63C227.073 189.798 227.342 189.912 227.626 189.966C227.911 190.019 228.203 190.011 228.484 189.94L243.064 186.3L243.544 186.556C247.819 188.719 252.526 189.895 257.316 189.996C262.107 190.098 266.859 189.123 271.222 187.143C275.585 185.164 279.449 182.23 282.527 178.558C285.605 174.886 287.82 170.57 289.008 165.928C288.677 165.976 288.343 166 288.008 166Z" fill="#FC377E"/>
</mask>
<g mask="url(#mask0_28_370)">
<path d="M267.5 125.5C268.7 124.7 273.333 118.167 275.5 115L299.5 125.5L300.5 156.5L287 164L283.5 157.5L277 154C276.5 152.333 275.1 148.3 273.5 145.5L269 138C266.833 137.167 262.2 135.3 261 134.5C259.8 133.7 259.5 132.167 259.5 131.5C261.667 129.833 266.3 126.3 267.5 125.5Z" fill="#18AFF0"/>
</g>
</g>
<path d="M112.381 233.2V250H110.701V234.784H102.061V250H100.381V233.2H112.381ZM122.417 237.712C124.129 237.712 125.585 238.32 126.785 239.536C128.001 240.752 128.609 242.24 128.609 244C128.609 245.76 128.001 247.248 126.785 248.464C125.585 249.68 124.129 250.288 122.417 250.288C120.289 250.288 118.673 249.408 117.569 247.648V254.8H115.985V238H117.569V240.352C118.673 238.592 120.289 237.712 122.417 237.712ZM118.937 247.384C119.849 248.296 120.969 248.752 122.297 248.752C123.625 248.752 124.745 248.296 125.657 247.384C126.569 246.456 127.025 245.328 127.025 244C127.025 242.672 126.569 241.552 125.657 240.64C124.745 239.712 123.625 239.248 122.297 239.248C120.969 239.248 119.849 239.712 118.937 240.64C118.025 241.552 117.569 242.672 117.569 244C117.569 245.328 118.025 246.456 118.937 247.384ZM141.299 248.488C140.083 249.688 138.595 250.288 136.835 250.288C135.075 250.288 133.579 249.688 132.347 248.488C131.131 247.272 130.523 245.776 130.523 244C130.523 242.224 131.131 240.736 132.347 239.536C133.579 238.32 135.075 237.712 136.835 237.712C138.595 237.712 140.083 238.32 141.299 239.536C142.531 240.736 143.147 242.224 143.147 244C143.147 245.776 142.531 247.272 141.299 248.488ZM133.475 247.384C134.387 248.296 135.507 248.752 136.835 248.752C138.163 248.752 139.283 248.296 140.195 247.384C141.107 246.456 141.562 245.328 141.562 244C141.562 242.672 141.107 241.552 140.195 240.64C139.283 239.712 138.163 239.248 136.835 239.248C135.507 239.248 134.387 239.712 133.475 240.64C132.563 241.552 132.107 242.672 132.107 244C132.107 245.328 132.563 246.456 133.475 247.384ZM153.968 238V250H152.384V245.392H150.32L146.624 250H144.608L148.4 245.344C147.44 245.2 146.648 244.8 146.024 244.144C145.4 243.488 145.088 242.68 145.088 241.72C145.088 240.632 145.472 239.744 146.24 239.056C147.024 238.352 147.976 238 149.096 238H153.968ZM149.096 243.904H152.384V239.536H149.096C148.424 239.536 147.848 239.736 147.368 240.136C146.904 240.536 146.672 241.064 146.672 241.72C146.672 242.376 146.904 242.904 147.368 243.304C147.848 243.704 148.424 243.904 149.096 243.904ZM164.96 243.832C166.272 244.312 166.928 245.248 166.928 246.64C166.928 247.616 166.6 248.424 165.944 249.064C165.304 249.688 164.376 250 163.16 250H157.328V238H162.68C163.848 238 164.752 238.304 165.392 238.912C166.032 239.504 166.352 240.272 166.352 241.216C166.352 242.416 165.888 243.288 164.96 243.832ZM162.68 239.536H158.912V243.184H162.68C164.072 243.184 164.768 242.56 164.768 241.312C164.768 240.752 164.584 240.32 164.216 240.016C163.864 239.696 163.352 239.536 162.68 239.536ZM163.16 248.464C163.864 248.464 164.4 248.296 164.768 247.96C165.152 247.624 165.344 247.152 165.344 246.544C165.344 245.984 165.152 245.544 164.768 245.224C164.4 244.888 163.864 244.72 163.16 244.72H158.912V248.464H163.16ZM178.064 238H179.408V250H177.824V240.76L170.672 250H169.328V238H170.912V247.24L178.064 238ZM191.398 238V239.536H187.15V250H185.566V239.536H181.318V238H191.398ZM198.404 237.712C200.18 237.712 201.612 238.344 202.7 239.608C203.804 240.856 204.356 242.336 204.356 244.048C204.356 244.224 204.34 244.472 204.308 244.792H193.772C193.932 246.008 194.444 246.976 195.308 247.696C196.188 248.4 197.268 248.752 198.548 248.752C199.46 248.752 200.244 248.568 200.9 248.2C201.572 247.816 202.076 247.32 202.412 246.712L203.804 247.528C203.276 248.376 202.556 249.048 201.644 249.544C200.732 250.04 199.692 250.288 198.524 250.288C196.636 250.288 195.1 249.696 193.916 248.512C192.732 247.328 192.14 245.824 192.14 244C192.14 242.208 192.724 240.712 193.892 239.512C195.06 238.312 196.564 237.712 198.404 237.712ZM198.404 239.248C197.156 239.248 196.108 239.624 195.26 240.376C194.428 241.112 193.932 242.072 193.772 243.256H202.724C202.564 241.992 202.076 241.008 201.26 240.304C200.444 239.6 199.492 239.248 198.404 239.248ZM220.507 243.832C221.819 244.312 222.475 245.248 222.475 246.64C222.475 247.616 222.147 248.424 221.491 249.064C220.851 249.688 219.923 250 218.707 250H212.875V238H218.227C219.395 238 220.299 238.304 220.939 238.912C221.579 239.504 221.899 240.272 221.899 241.216C221.899 242.416 221.435 243.288 220.507 243.832ZM218.227 239.536H214.459V243.184H218.227C219.619 243.184 220.315 242.56 220.315 241.312C220.315 240.752 220.131 240.32 219.763 240.016C219.411 239.696 218.899 239.536 218.227 239.536ZM218.707 248.464C219.411 248.464 219.947 248.296 220.315 247.96C220.699 247.624 220.891 247.152 220.891 246.544C220.891 245.984 220.699 245.544 220.315 245.224C219.947 244.888 219.411 244.72 218.707 244.72H214.459V248.464H218.707ZM230.467 250.288C228.659 250.288 227.155 249.688 225.955 248.488C224.755 247.272 224.155 245.776 224.155 244C224.155 242.224 224.755 240.736 225.955 239.536C227.155 238.32 228.659 237.712 230.467 237.712C231.651 237.712 232.715 238 233.659 238.576C234.603 239.136 235.291 239.896 235.723 240.856L234.427 241.6C234.107 240.88 233.587 240.312 232.867 239.896C232.163 239.464 231.363 239.248 230.467 239.248C229.139 239.248 228.019 239.712 227.107 240.64C226.195 241.552 225.739 242.672 225.739 244C225.739 245.328 226.195 246.456 227.107 247.384C228.019 248.296 229.139 248.752 230.467 248.752C231.363 248.752 232.163 248.544 232.867 248.128C233.571 247.696 234.123 247.12 234.523 246.4L235.843 247.168C235.347 248.128 234.619 248.888 233.659 249.448C232.699 250.008 231.635 250.288 230.467 250.288ZM243.544 237.712C245.32 237.712 246.752 238.344 247.84 239.608C248.944 240.856 249.496 242.336 249.496 244.048C249.496 244.224 249.48 244.472 249.448 244.792H238.912C239.072 246.008 239.584 246.976 240.448 247.696C241.328 248.4 242.408 248.752 243.688 248.752C244.6 248.752 245.384 248.568 246.04 248.2C246.712 247.816 247.216 247.32 247.552 246.712L248.944 247.528C248.416 248.376 247.696 249.048 246.784 249.544C245.872 250.04 244.832 250.288 243.664 250.288C241.776 250.288 240.24 249.696 239.056 248.512C237.872 247.328 237.28 245.824 237.28 244C237.28 242.208 237.864 240.712 239.032 239.512C240.2 238.312 241.704 237.712 243.544 237.712ZM243.544 239.248C242.296 239.248 241.248 239.624 240.4 240.376C239.568 241.112 239.072 242.072 238.912 243.256H247.864C247.704 241.992 247.216 241.008 246.4 240.304C245.584 239.6 244.632 239.248 243.544 239.248ZM265.648 243.832C266.96 244.312 267.616 245.248 267.616 246.64C267.616 247.616 267.288 248.424 266.632 249.064C265.992 249.688 265.064 250 263.848 250H258.016V238H263.368C264.536 238 265.44 238.304 266.08 238.912C266.72 239.504 267.04 240.272 267.04 241.216C267.04 242.416 266.576 243.288 265.648 243.832ZM263.368 239.536H259.6V243.184H263.368C264.76 243.184 265.456 242.56 265.456 241.312C265.456 240.752 265.272 240.32 264.904 240.016C264.552 239.696 264.04 239.536 263.368 239.536ZM263.848 248.464C264.552 248.464 265.088 248.296 265.456 247.96C265.84 247.624 266.032 247.152 266.032 246.544C266.032 245.984 265.84 245.544 265.456 245.224C265.088 244.888 264.552 244.72 263.848 244.72H259.6V248.464H263.848ZM280.336 238H281.92V250H280.336V247.648C279.232 249.408 277.616 250.288 275.488 250.288C273.776 250.288 272.312 249.68 271.096 248.464C269.896 247.248 269.296 245.76 269.296 244C269.296 242.24 269.896 240.752 271.096 239.536C272.312 238.32 273.776 237.712 275.488 237.712C277.616 237.712 279.232 238.592 280.336 240.352V238ZM272.248 247.384C273.16 248.296 274.28 248.752 275.608 248.752C276.936 248.752 278.056 248.296 278.968 247.384C279.88 246.456 280.336 245.328 280.336 244C280.336 242.672 279.88 241.552 278.968 240.64C278.056 239.712 276.936 239.248 275.608 239.248C274.28 239.248 273.16 239.712 272.248 240.64C271.336 241.552 270.88 242.672 270.88 244C270.88 245.328 271.336 246.456 272.248 247.384ZM299.77 238H301.354V250H285.274V238H286.858V248.464H292.522V238H294.106V248.464H299.77V238ZM313.439 238H314.783V250H313.199V240.76L306.047 250H304.703V238H306.287V247.24L313.439 238ZM333.133 238V240.496H329.221V250H326.629V240.496H322.693V238H333.133ZM343.922 238H346.514V250H343.922V248.272C342.946 249.632 341.546 250.312 339.722 250.312C338.074 250.312 336.666 249.704 335.498 248.488C334.33 247.256 333.746 245.76 333.746 244C333.746 242.224 334.33 240.728 335.498 239.512C336.666 238.296 338.074 237.688 339.722 237.688C341.546 237.688 342.946 238.36 343.922 239.704V238ZM337.418 246.76C338.138 247.48 339.042 247.84 340.13 247.84C341.218 247.84 342.122 247.48 342.842 246.76C343.562 246.024 343.922 245.104 343.922 244C343.922 242.896 343.562 241.984 342.842 241.264C342.122 240.528 341.218 240.16 340.13 240.16C339.042 240.16 338.138 240.528 337.418 241.264C336.698 241.984 336.338 242.896 336.338 244C336.338 245.104 336.698 246.024 337.418 246.76ZM359.663 238V250H357.071V240.496H353.063V244.96C353.063 246.864 352.647 248.216 351.815 249.016C350.983 249.816 349.799 250.144 348.263 250V247.576C348.999 247.704 349.551 247.552 349.919 247.12C350.287 246.688 350.471 245.928 350.471 244.84V238H359.663ZM372.188 238H374.78V250H372.188V248.272C371.212 249.632 369.812 250.312 367.988 250.312C366.34 250.312 364.932 249.704 363.764 248.488C362.596 247.256 362.012 245.76 362.012 244C362.012 242.224 362.596 240.728 363.764 239.512C364.932 238.296 366.34 237.688 367.988 237.688C369.812 237.688 371.212 238.36 372.188 239.704V238ZM365.684 246.76C366.404 247.48 367.308 247.84 368.396 247.84C369.484 247.84 370.388 247.48 371.108 246.76C371.828 246.024 372.188 245.104 372.188 244C372.188 242.896 371.828 241.984 371.108 241.264C370.388 240.528 369.484 240.16 368.396 240.16C367.308 240.16 366.404 240.528 365.684 241.264C364.964 241.984 364.604 242.896 364.604 244C364.604 245.104 364.964 246.024 365.684 246.76ZM385.889 238H388.481V250H385.889V245.224H380.393V250H377.801V238H380.393V242.776H385.889V238ZM400.657 238V240.496H396.745V250H394.153V240.496H390.217V238H400.657ZM407.642 242.08C408.922 242.08 409.97 242.448 410.786 243.184C411.602 243.904 412.01 244.856 412.01 246.04C412.01 247.208 411.602 248.16 410.786 248.896C409.97 249.632 408.922 250 407.642 250H402.41V238H405.002V242.08H407.642ZM413.45 238H416.042V250H413.45V238ZM407.666 247.672C408.178 247.672 408.602 247.52 408.938 247.216C409.29 246.912 409.466 246.52 409.466 246.04C409.466 245.544 409.29 245.152 408.938 244.864C408.602 244.56 408.178 244.408 407.666 244.408H405.002V247.672H407.666ZM199.446 278H201.438V290H198.894V282.368L192.75 290H190.758V278H193.302V285.608L199.446 278ZM219.95 278H222.542V290H219.95V288.272C218.974 289.632 217.574 290.312 215.75 290.312C214.102 290.312 212.694 289.704 211.526 288.488C210.358 287.256 209.774 285.76 209.774 284C209.774 282.224 210.358 280.728 211.526 279.512C212.694 278.296 214.102 277.688 215.75 277.688C217.574 277.688 218.974 278.36 219.95 279.704V278ZM213.446 286.76C214.166 287.48 215.07 287.84 216.158 287.84C217.246 287.84 218.15 287.48 218.87 286.76C219.59 286.024 219.95 285.104 219.95 284C219.95 282.896 219.59 281.984 218.87 281.264C218.15 280.528 217.246 280.16 216.158 280.16C215.07 280.16 214.166 280.528 213.446 281.264C212.726 281.984 212.366 282.896 212.366 284C212.366 285.104 212.726 286.024 213.446 286.76ZM232.355 277.688C234.003 277.688 235.411 278.304 236.579 279.536C237.747 280.752 238.331 282.24 238.331 284C238.331 285.776 237.747 287.272 236.579 288.488C235.411 289.704 234.003 290.312 232.355 290.312C230.531 290.312 229.131 289.64 228.155 288.296V294.8H225.563V278H228.155V279.728C229.131 278.368 230.531 277.688 232.355 277.688ZM229.235 286.76C229.955 287.48 230.859 287.84 231.947 287.84C233.035 287.84 233.939 287.48 234.659 286.76C235.379 286.024 235.739 285.104 235.739 284C235.739 282.896 235.379 281.984 234.659 281.264C233.939 280.528 233.035 280.16 231.947 280.16C230.859 280.16 229.955 280.528 229.235 281.264C228.515 281.984 228.155 282.896 228.155 284C228.155 285.104 228.515 286.024 229.235 286.76ZM249.379 278V280.496H245.467V290H242.875V280.496H238.939V278H249.379ZM259.821 278H261.813V290H259.269V282.368L253.125 290H251.133V278H253.677V285.608L259.821 278ZM270.485 290.312C268.677 290.312 267.165 289.704 265.949 288.488C264.749 287.272 264.149 285.776 264.149 284C264.149 282.208 264.749 280.712 265.949 279.512C267.165 278.296 268.677 277.688 270.485 277.688C271.653 277.688 272.717 277.968 273.677 278.528C274.637 279.088 275.357 279.84 275.837 280.784L273.605 282.08C273.333 281.504 272.917 281.056 272.357 280.736C271.813 280.4 271.181 280.232 270.461 280.232C269.405 280.232 268.517 280.592 267.797 281.312C267.093 282.032 266.741 282.928 266.741 284C266.741 285.072 267.093 285.968 267.797 286.688C268.517 287.408 269.405 287.768 270.461 287.768C271.165 287.768 271.797 287.6 272.357 287.264C272.933 286.928 273.365 286.48 273.653 285.92L275.885 287.192C275.373 288.152 274.637 288.912 273.677 289.472C272.717 290.032 271.653 290.312 270.485 290.312ZM286.809 278V280.496H282.897V290H280.305V280.496H276.369V278H286.809ZM297.251 278H299.243V290H296.699V282.368L290.555 290H288.563V278H291.107V285.608L297.251 278ZM308.994 283.856C310.274 284.432 310.914 285.384 310.914 286.712C310.914 287.736 310.498 288.592 309.666 289.28C308.834 289.968 307.674 290.312 306.186 290.312C303.77 290.312 302.138 289.352 301.29 287.432L303.402 286.184C303.834 287.384 304.77 287.984 306.21 287.984C306.882 287.984 307.41 287.848 307.794 287.576C308.178 287.288 308.37 286.912 308.37 286.448C308.37 286.032 308.218 285.704 307.914 285.464C307.61 285.208 307.186 285.08 306.642 285.08H304.938V282.8H306.21C306.738 282.8 307.146 282.68 307.434 282.44C307.738 282.184 307.89 281.84 307.89 281.408C307.89 280.992 307.722 280.656 307.386 280.4C307.05 280.128 306.602 279.992 306.042 279.992C304.842 279.992 304.01 280.52 303.546 281.576L301.434 280.376C302.33 278.584 303.85 277.688 305.994 277.688C307.338 277.688 308.402 278.032 309.186 278.72C309.986 279.392 310.386 280.216 310.386 281.192C310.386 282.392 309.922 283.28 308.994 283.856ZM325.272 278V290H322.752V282.104L319.296 287.6H318.984L315.552 282.128V290H313.032V278H315.672L319.152 283.544L322.632 278H325.272Z" fill="#5B5B87"/>
<defs>
<filter id="filter0_d_28_370" x="0.980682" y="0.254883" width="514.039" height="514.039" filterUnits="userSpaceOnUse" color-interpolation-filters="sRGB">
<feFlood flood-opacity="0" result="BackgroundImageFix"/>
<feColorMatrix in="SourceAlpha" type="matrix" values="0 0 0 0 0 0 0 0 0 0 0 0 0 0 0 0 0 0 127 0" result="hardAlpha"/>
<feOffset dy="15"/>
<feGaussianBlur stdDeviation="22"/>
<feColorMatrix type="matrix" values="0 0 0 0 0.0509804 0 0 0 0 0.0588235 0 0 0 0 0.109804 0 0 0 0.06 0"/>
<feBlend mode="normal" in2="BackgroundImageFix" result="effect1_dropShadow_28_370"/>
<feBlend mode="normal" in="SourceGraphic" in2="effect1_dropShadow_28_370" result="shape"/>
</filter>
<clipPath id="clip0_28_370">
<rect width="80" height="80" fill="white" transform="translate(218 118)"/>
</clipPath>
</defs>
</svg>
