<svg width="80" height="80" viewBox="0 0 80 80" fill="none" xmlns="http://www.w3.org/2000/svg">
<path d="M0 24C0 10.7452 10.7452 0 24 0H56C69.2548 0 80 10.7452 80 24V56C80 69.2548 69.2548 80 56 80H24C10.7452 80 0 69.2548 0 56V24Z" fill="#18AFF0"/>
<g clip-path="url(#clip0_42_652)">
<path d="M54.495 25.5427L54.4575 25.5327L52.545 24.9127C51.9628 24.7194 51.4337 24.393 50.9997 23.9595C50.5657 23.5259 50.2388 22.9972 50.045 22.4152L49.425 20.5052C49.3732 20.3575 49.2769 20.2295 49.1492 20.139C49.0216 20.0485 48.869 19.9999 48.7125 19.9999C48.556 19.9999 48.4034 20.0485 48.2758 20.139C48.1481 20.2295 48.0518 20.3575 48 20.5052L47.375 22.4152C47.1858 22.9928 46.8655 23.5188 46.4392 23.9521C46.0128 24.3854 45.492 24.7141 44.9175 24.9127L43.4325 25.3952H43.425L42.995 25.5327C42.8473 25.5848 42.7197 25.6818 42.63 25.8102C42.5616 25.9051 42.5164 26.0148 42.498 26.1303C42.4796 26.2459 42.4885 26.3642 42.524 26.4757C42.5594 26.5872 42.6205 26.6889 42.7023 26.7726C42.7841 26.8562 42.8843 26.9196 42.995 26.9577L44.9125 27.5802L45.12 27.6552L45.14 27.6602C45.6718 27.8751 46.1504 28.2035 46.5425 28.6223C46.9345 29.0411 47.2306 29.5403 47.41 30.0852L48.035 31.9952C48.086 32.1428 48.1819 32.2708 48.3092 32.3613C48.4364 32.4519 48.5888 32.5004 48.745 32.5002H48.7575C48.9122 32.4981 49.0626 32.4486 49.1883 32.3583C49.3139 32.2679 49.4088 32.1412 49.46 31.9952L50.0825 30.0852C50.2757 29.5032 50.6021 28.9744 51.0357 28.5409C51.4693 28.1073 51.9981 27.7809 52.58 27.5877L54.4925 26.9677C54.639 26.9148 54.7657 26.818 54.8552 26.6905C54.9448 26.563 54.9928 26.411 54.9928 26.2552C54.9928 26.0994 54.9448 25.9474 54.8552 25.8199C54.7657 25.6923 54.639 25.5956 54.4925 25.5427H54.495ZM58.035 33.9302L59.565 34.4277L59.5975 34.4352C59.7143 34.4775 59.8153 34.5548 59.8866 34.6566C59.958 34.7584 59.9962 34.8796 59.9962 35.0039C59.9962 35.1282 59.958 35.2494 59.8866 35.3512C59.8153 35.453 59.7143 35.5303 59.5975 35.5727L58.065 36.0727C57.6 36.2272 57.1774 36.488 56.8307 36.8343C56.4839 37.1806 56.2227 37.6028 56.0675 38.0677L55.57 39.5977C55.5271 39.718 55.4471 39.8216 55.3415 39.8935C55.2359 39.9654 55.1102 40.0019 54.9825 39.9977C54.8592 39.9972 54.7391 39.9585 54.6388 39.8868C54.5385 39.8152 54.4629 39.7141 54.4225 39.5977L53.9225 38.0677C53.7674 37.6018 53.5059 37.1786 53.1588 36.8314C52.8116 36.4842 52.3883 36.2227 51.9225 36.0677L50.39 35.5677C50.2718 35.5269 50.1695 35.4499 50.0975 35.3477C50.0476 35.2694 50.0158 35.181 50.0044 35.0889C49.993 34.9968 50.0022 34.9033 50.0314 34.8152C50.0606 34.7271 50.109 34.6466 50.1732 34.5796C50.2374 34.5125 50.3157 34.4606 50.4025 34.4277L51.935 33.9277C52.3946 33.7693 52.8113 33.5068 53.1526 33.1608C53.4939 32.8147 53.7505 32.3944 53.9025 31.9327L54.4 30.4027C54.4419 30.285 54.5191 30.1831 54.6212 30.1111C54.7232 30.0391 54.8451 30.0004 54.97 30.0004C55.0949 30.0004 55.2168 30.0391 55.3188 30.1111C55.4209 30.1831 55.4981 30.285 55.54 30.4027L56.0375 31.9327C56.192 32.3981 56.453 32.8211 56.7998 33.1679C57.1466 33.5147 57.5695 33.7757 58.035 33.9302ZM40 55.0002C43.5464 55 46.9782 53.7437 49.6865 51.4541C52.3949 49.1645 54.2047 45.9896 54.795 42.4927C54.1813 42.4498 53.5942 42.225 53.1089 41.8469C52.6235 41.4688 52.2618 40.9547 52.07 40.3702L51.57 38.8502C51.5377 38.7559 51.4841 38.6704 51.4134 38.6002C51.3428 38.53 51.2569 38.4769 51.1625 38.4452L49.57 37.9302C48.9642 37.716 48.4398 37.3191 48.069 36.7944C47.6983 36.2696 47.4995 35.6427 47.5 35.0002V34.7502C47.0692 34.5715 46.6819 34.3022 46.3644 33.9605C46.0469 33.6189 45.8067 33.2129 45.66 32.7702L45.04 30.8677C44.9732 30.6525 44.8538 30.4574 44.6925 30.3002C44.5367 30.148 44.35 30.0311 44.145 29.9577L42.1725 29.3152C41.7554 29.1687 41.3726 28.9387 41.0474 28.6392C40.7222 28.3398 40.4616 27.9771 40.2814 27.5734C40.1012 27.1697 40.0053 26.7336 39.9994 26.2915C39.9936 25.8495 40.078 25.4109 40.2475 25.0027L40 25.0002C38.0302 25.0002 36.0796 25.3881 34.2597 26.142C32.4399 26.8958 30.7863 28.0007 29.3934 29.3936C28.0005 30.7864 26.8956 32.44 26.1418 34.2599C25.388 36.0798 25 38.0303 25 40.0002C25 41.97 25.388 43.9205 26.1418 45.7404C26.8956 47.5603 28.0005 49.2139 29.3934 50.6068C30.7863 51.9996 32.4399 53.1045 34.2597 53.8583C36.0796 54.6122 38.0302 55.0002 40 55.0002ZM35.625 39.3752C35.1277 39.3752 34.6508 39.1776 34.2992 38.826C33.9475 38.4743 33.75 37.9974 33.75 37.5002C33.75 37.0029 33.9475 36.526 34.2992 36.1743C34.6508 35.8227 35.1277 35.6252 35.625 35.6252C36.1223 35.6252 36.5992 35.8227 36.9508 36.1743C37.3025 36.526 37.5 37.0029 37.5 37.5002C37.5 37.9974 37.3025 38.4743 36.9508 38.826C36.5992 39.1776 36.1223 39.3752 35.625 39.3752ZM35.34 44.1677C35.9258 44.824 36.6439 45.3489 37.447 45.7078C38.2502 46.0667 39.1203 46.2516 40 46.2502C41.85 46.2502 43.5125 45.4477 44.66 44.1677C44.769 44.0436 44.9015 43.9424 45.0498 43.8699C45.1982 43.7973 45.3594 43.7549 45.5243 43.745C45.6891 43.7351 45.8542 43.758 46.0102 43.8123C46.1661 43.8667 46.3097 43.9513 46.4328 44.0615C46.5558 44.1716 46.6558 44.3051 46.7269 44.4541C46.7981 44.6031 46.839 44.7647 46.8474 44.9296C46.8557 45.0945 46.8313 45.2595 46.7756 45.4149C46.7198 45.5703 46.6338 45.7132 46.5225 45.8352C45.7023 46.7534 44.6971 47.4878 43.573 47.9902C42.4489 48.4926 41.2313 48.7516 40 48.7502C38.7687 48.7516 37.5511 48.4926 36.427 47.9902C35.3029 47.4878 34.2977 46.7534 33.4775 45.8352C33.26 45.5876 33.149 45.2642 33.1687 44.9353C33.1884 44.6064 33.3372 44.2985 33.5827 44.0788C33.8282 43.859 34.1505 43.745 34.4796 43.7616C34.8087 43.7783 35.1179 43.9242 35.34 44.1677ZM44.375 39.3752C43.8777 39.3752 43.4008 39.1776 43.0492 38.826C42.6975 38.4743 42.5 37.9974 42.5 37.5002C42.5 37.0029 42.6975 36.526 43.0492 36.1743C43.4008 35.8227 43.8777 35.6252 44.375 35.6252C44.8723 35.6252 45.3492 35.8227 45.7008 36.1743C46.0525 36.526 46.25 37.0029 46.25 37.5002C46.25 37.9974 46.0525 38.4743 45.7008 38.826C45.3492 39.1776 44.8723 39.3752 44.375 39.3752Z" fill="white"/>
</g>
<defs>
<clipPath id="clip0_42_652">
<rect width="40" height="40" fill="white" transform="translate(20 20)"/>
</clipPath>
</defs>
</svg>
