<svg width="80" height="80" viewBox="0 0 80 80" fill="none" xmlns="http://www.w3.org/2000/svg">
<path d="M0 24C0 10.7452 10.7452 0 24 0H56C69.2548 0 80 10.7452 80 24V56C80 69.2548 69.2548 80 56 80H24C10.7452 80 0 69.2548 0 56V24Z" fill="#FC377E"/>
<path d="M25 26.875C25 24.46 26.96 22.5 29.375 22.5H40.625C43.04 22.5 45 24.46 45 26.875V28.2325L52.4375 35.67C53.25 36.4826 53.8945 37.4472 54.3342 38.5089C54.7738 39.5705 55.0001 40.7084 55 41.8575V56.25C55 56.5815 54.8683 56.8995 54.6339 57.1339C54.3995 57.3683 54.0815 57.5 53.75 57.5C53.4185 57.5 53.1005 57.3683 52.8661 57.1339C52.6317 56.8995 52.5 56.5815 52.5 56.25V41.8575C52.5002 41.0367 52.3386 40.2239 52.0246 39.4655C51.7106 38.7071 51.2503 38.018 50.67 37.4375L45 31.7675V38.23L47.135 40.365C47.3697 40.5994 47.5017 40.9174 47.5019 41.2491C47.5022 41.5808 47.3706 41.899 47.1362 42.1338C46.9019 42.3685 46.5838 42.5005 46.2521 42.5007C45.9204 42.5009 45.6022 42.3694 45.3675 42.135L40.295 37.06L39.305 36.195C38.9139 35.9946 38.4641 35.9405 38.0366 36.0422C37.6091 36.144 37.232 36.3949 36.973 36.75C36.7141 37.1051 36.5904 37.5409 36.6243 37.979C36.6581 38.4172 36.8472 38.8289 37.1575 39.14L40.885 42.865C41.0015 42.9811 41.0939 43.119 41.1569 43.2709C41.22 43.4228 41.2525 43.5856 41.2525 43.75V46.25C41.2525 46.913 41.5159 47.5489 41.9847 48.0178C42.4536 48.4866 43.0895 48.75 43.7525 48.75C44.0836 48.7507 44.4009 48.8827 44.6348 49.117C44.8686 49.3513 45 49.6689 45 50V53.125C45 54.2853 44.5391 55.3981 43.7186 56.2186C42.8981 57.0391 41.7853 57.5 40.625 57.5H29.375C28.2147 57.5 27.1019 57.0391 26.2814 56.2186C25.4609 55.3981 25 54.2853 25 53.125V26.875ZM42.5 51.875V51.0925C41.7731 50.9047 41.098 50.5551 40.525 50.07C39.6725 50.238 38.9048 50.6968 38.3531 51.368C37.8014 52.0392 37.4998 52.8811 37.5 53.75V55H39.375C39.59 55 39.8 54.9775 40 54.9375V53.75C40 53.4185 40.1317 53.1005 40.3661 52.8661C40.6005 52.6317 40.9185 52.5 41.25 52.5H42.4375C42.4775 52.3 42.5 52.09 42.5 51.875ZM38.2675 43.785L35.3925 40.9075C34.6162 40.1332 34.1614 39.094 34.1192 37.9984C34.077 36.9028 34.4506 35.8317 35.165 35H35C34.1933 35.0001 33.3985 35.1953 32.6836 35.5692C31.9687 35.943 31.3549 36.4842 30.8945 37.1467C30.4341 37.8092 30.1409 38.5732 30.0398 39.3736C29.9388 40.174 30.0328 40.9869 30.3141 41.743C30.5953 42.4992 31.0553 43.176 31.6549 43.7158C32.2544 44.2556 32.9757 44.6423 33.7571 44.8429C34.5384 45.0435 35.3568 45.0521 36.1422 44.8679C36.9276 44.6837 37.6568 44.3121 38.2675 43.785ZM32.5 26.25V25H30.625C30.41 25 30.2 25.0225 30 25.0625V26.25C30 26.5815 29.8683 26.8995 29.6339 27.1339C29.3995 27.3683 29.0815 27.5 28.75 27.5H27.5625C27.5225 27.7 27.5 27.91 27.5 28.125V30H28.75C29.7446 30 30.6984 29.6049 31.4017 28.9017C32.1049 28.1984 32.5 27.2446 32.5 26.25ZM28.75 50H27.5V51.875C27.5 52.09 27.5225 52.3 27.5625 52.5H28.75C29.0815 52.5 29.3995 52.6317 29.6339 52.8661C29.8683 53.1005 30 53.4185 30 53.75V54.9375C30.2 54.9775 30.41 55 30.625 55H32.5V53.75C32.5 52.7554 32.1049 51.8016 31.4017 51.0983C30.6984 50.3951 29.7446 50 28.75 50ZM40 26.25V25.0625C39.7943 25.0208 39.5849 24.9999 39.375 25H37.5V26.25C37.5 27.2446 37.8951 28.1984 38.5983 28.9017C39.3016 29.6049 40.2554 30 41.25 30H42.5V28.125C42.5 27.91 42.4775 27.7 42.4375 27.5H41.25C40.9185 27.5 40.6005 27.3683 40.3661 27.1339C40.1317 26.8995 40 26.5815 40 26.25Z" fill="white"/>
</svg>
