<svg width="80" height="80" viewBox="0 0 80 80" fill="none" xmlns="http://www.w3.org/2000/svg">
<path d="M0 24C0 10.7452 10.7452 0 24 0H56C69.2548 0 80 10.7452 80 24V56C80 69.2548 69.2548 80 56 80H24C10.7452 80 0 69.2548 0 56V24Z" fill="#FC377E"/>
<path d="M30.4167 25C28.9801 25 27.6023 25.5707 26.5865 26.5865C25.5707 27.6023 25 28.9801 25 30.4167V49.5833C25 51.0199 25.5707 52.3977 26.5865 53.4135C27.6023 54.4293 28.9801 55 30.4167 55H41.9533C41.7626 54.3933 41.666 53.761 41.6667 53.125V52.9533C41.6667 52.3465 41.7862 51.7456 42.0185 51.1849C42.2508 50.6243 42.5912 50.1149 43.0204 49.6859C43.4496 49.2569 43.9591 48.9166 44.5198 48.6845C45.0805 48.4525 45.6815 48.3331 46.2883 48.3333H46.75C45.656 47.2393 45.0414 45.7555 45.0414 44.2083C45.0414 42.6612 45.656 41.1774 46.75 40.0833C47.844 38.9893 49.3278 38.3747 50.875 38.3747C52.4222 38.3747 53.906 38.9893 55 40.0833V30.4167C55 28.9801 54.4293 27.6023 53.4135 26.5865C52.3977 25.5707 51.0199 25 49.5833 25H30.4167ZM48.8 35.4667L37.5433 46.7117C37.309 46.9458 36.9913 47.0772 36.66 47.0772C36.3287 47.0772 36.011 46.9458 35.7767 46.7117L31.2 42.1333C30.9792 41.8964 30.859 41.583 30.8647 41.2591C30.8704 40.9353 31.0016 40.6263 31.2306 40.3973C31.4597 40.1683 31.7686 40.0371 32.0925 40.0314C32.4163 40.0257 32.7297 40.1459 32.9667 40.3667L36.6617 44.06L47.0333 33.6983C47.1496 33.5823 47.2875 33.4904 47.4392 33.4277C47.591 33.365 47.7536 33.3328 47.9178 33.3329C48.0821 33.3331 48.2446 33.3656 48.3963 33.4286C48.5479 33.4915 48.6857 33.5838 48.8017 33.7C48.9177 33.8162 49.0096 33.9541 49.0723 34.1059C49.135 34.2577 49.1672 34.4203 49.1671 34.5845C49.1669 34.7487 49.1344 34.9113 49.0714 35.0629C49.0085 35.2146 48.9162 35.3523 48.8 35.4683V35.4667ZM55 44.1667C55 45.2717 54.561 46.3315 53.7796 47.1129C52.9982 47.8943 51.9384 48.3333 50.8333 48.3333C49.7283 48.3333 48.6685 47.8943 47.8871 47.1129C47.1057 46.3315 46.6667 45.2717 46.6667 44.1667C46.6667 43.0616 47.1057 42.0018 47.8871 41.2204C48.6685 40.439 49.7283 40 50.8333 40C51.9384 40 52.9982 40.439 53.7796 41.2204C54.561 42.0018 55 43.0616 55 44.1667ZM58.3333 53.125C58.3333 55.7183 56.19 58.3333 50.8333 58.3333C45.4767 58.3333 43.3333 55.7283 43.3333 53.125V52.9533C43.3333 51.32 44.6567 50 46.2883 50H55.3783C57.0117 50 58.3333 51.3217 58.3333 52.9533V53.125Z" fill="white"/>
</svg>
