<svg width="80" height="80" viewBox="0 0 80 80" fill="none" xmlns="http://www.w3.org/2000/svg">
<path d="M0 24C0 10.7452 10.7452 0 24 0H56C69.2548 0 80 10.7452 80 24V56C80 69.2548 69.2548 80 56 80H24C10.7452 80 0 69.2548 0 56V24Z" fill="#18AFF0"/>
<path d="M29.375 25C29.0351 24.9999 28.7015 25.0922 28.41 25.267C28.1185 25.4418 27.88 25.6926 27.72 25.9925L22.72 35.3675C22.5491 35.6878 22.475 36.0509 22.5065 36.4126C22.538 36.7743 22.6738 37.119 22.8975 37.405L35.2325 53.195C35.0771 52.5584 34.9991 51.9053 35 51.25C34.9996 50.0564 35.3411 48.8877 35.9839 47.8821C36.6267 46.8764 37.5441 46.0758 38.6275 45.575L36.495 38.75H38.8525C39.0877 37.3541 39.7145 36.0536 40.66 35H35.995L37.5575 28.75H42.4425L43.51 33.0175C44.7009 32.5492 45.9921 32.3943 47.26 32.5675L46.31 28.75H49.5L52.8325 35H51.84C52.6871 35.943 53.2804 37.086 53.5643 38.3215C53.8481 39.557 53.8131 40.8443 53.4625 42.0625L57.1025 37.405C57.3258 37.1188 57.4611 36.7739 57.4922 36.4122C57.5233 36.0505 57.4487 35.6876 57.2775 35.3675L52.2775 25.9925C52.1177 25.693 51.8796 25.4424 51.5885 25.2676C51.2975 25.0928 50.9645 25.0003 50.625 25H29.375ZM27.1675 35L30.5 28.75H33.6925L32.13 35H27.1675ZM28.7075 38.75H32.5675L35.14 46.9825L28.7075 38.75ZM51.25 40C51.25 41.3261 50.7232 42.5979 49.7855 43.5355C48.8478 44.4732 47.5761 45 46.25 45C44.9239 45 43.6521 44.4732 42.7144 43.5355C41.7768 42.5979 41.25 41.3261 41.25 40C41.25 38.6739 41.7768 37.4021 42.7144 36.4645C43.6521 35.5268 44.9239 35 46.25 35C47.5761 35 48.8478 35.5268 49.7855 36.4645C50.7232 37.4021 51.25 38.6739 51.25 40ZM55 51.25C55 54.3625 52.5 57.5 46.25 57.5C40 57.5 37.5 54.375 37.5 51.25C37.5 50.2554 37.8951 49.3016 38.5983 48.5983C39.3016 47.8951 40.2554 47.5 41.25 47.5H51.25C52.2445 47.5 53.1984 47.8951 53.9016 48.5983C54.6049 49.3016 55 50.2554 55 51.25Z" fill="white"/>
</svg>
