<svg width="80" height="80" viewBox="0 0 80 80" fill="none" xmlns="http://www.w3.org/2000/svg">
<path d="M0 24C0 10.7452 10.7452 0 24 0H56C69.2548 0 80 10.7452 80 24V56C80 69.2548 69.2548 80 56 80H24C10.7452 80 0 69.2548 0 56V24Z" fill="#FC377E"/>
<path d="M38.3334 47.5H34.84L34.9367 47.9917C36 53.175 38.005 56.6667 40 56.6667C40.825 56.6667 41.6534 56.07 42.415 55.0017H41.6667C40.7826 55.0017 39.9348 54.6505 39.3097 54.0254C38.6845 53.4002 38.3334 52.5524 38.3334 51.6683V47.5ZM38.3334 45H34.4567C34.1654 42.5045 34.0918 39.9883 34.2367 37.48L34.2934 36.6667H45.7084C45.7917 37.7433 45.8367 38.8567 45.8367 40H41.6667C40.7826 40 39.9348 40.3512 39.3097 40.9763C38.6845 41.6014 38.3334 42.4493 38.3334 43.3333V45ZM56.67 40H48.3367C48.3367 39.2433 48.3184 38.4967 48.2834 37.7617L48.22 36.6667H56.3367C56.5534 37.7417 56.67 38.8567 56.67 39.9983V40ZM32.2867 47.5L25.11 47.5017L25.3534 47.9667C27.4691 51.8475 31.0359 54.7324 35.2734 55.99C33.9234 53.9233 32.8934 50.97 32.2867 47.5ZM31.7817 36.6667H23.665C23.1023 39.4361 23.2497 42.3029 24.0934 45H31.9334L31.8384 44.0333C31.6268 41.583 31.6079 39.1199 31.7817 36.6667ZM44.7267 24.0117L44.9067 24.295C46.3734 26.6783 47.4434 30.14 47.9684 34.1667H55.62C54.713 31.747 53.2572 29.5707 51.3671 27.8087C49.4769 26.0466 47.2039 24.7469 44.7267 24.0117ZM35.2734 24.0117L35.07 24.0733C32.6366 24.8295 30.4084 26.1321 28.5556 27.8814C26.7028 29.6308 25.2745 31.7807 24.38 34.1667H32.0334L32.1367 33.4333C32.715 29.56 33.8067 26.26 35.275 24.0117H35.2734ZM45.3567 33.6417C44.41 27.5733 42.2 23.3367 40 23.3367C37.74 23.3367 35.465 27.8183 34.5667 34.1667H45.4334L45.3567 33.6417ZM40 43.3333C40 42.8913 40.1756 42.4674 40.4882 42.1548C40.8007 41.8423 41.2247 41.6667 41.6667 41.6667H56.6667C57.1087 41.6667 57.5326 41.8423 57.8452 42.1548C58.1578 42.4674 58.3334 42.8913 58.3334 43.3333V51.6667C58.3334 52.1087 58.1578 52.5326 57.8452 52.8452C57.5326 53.1577 57.1087 53.3333 56.6667 53.3333H51.6667V56.6667H52.5C52.721 56.6667 52.933 56.7545 53.0893 56.9107C53.2456 57.067 53.3334 57.279 53.3334 57.5C53.3334 57.721 53.2456 57.933 53.0893 58.0893C52.933 58.2455 52.721 58.3333 52.5 58.3333H45.8334C45.6123 58.3333 45.4004 58.2455 45.2441 58.0893C45.0878 57.933 45 57.721 45 57.5C45 57.279 45.0878 57.067 45.2441 56.9107C45.4004 56.7545 45.6123 56.6667 45.8334 56.6667H46.6667V53.3333H41.6667C41.2247 53.3333 40.8007 53.1577 40.4882 52.8452C40.1756 52.5326 40 52.1087 40 51.6667V43.3333Z" fill="white"/>
</svg>
