<svg width="80" height="80" viewBox="0 0 80 80" fill="none" xmlns="http://www.w3.org/2000/svg">
<path d="M0 24C0 10.7452 10.7452 0 24 0H56C69.2548 0 80 10.7452 80 24V56C80 69.2548 69.2548 80 56 80H24C10.7452 80 0 69.2548 0 56V24Z" fill="#18AFF0"/>
<path d="M53.9675 24.98C54.2834 24.9116 54.5605 24.7234 54.7407 24.4551C54.9208 24.1867 54.99 23.859 54.9337 23.5407C54.8775 23.2224 54.7001 22.9383 54.4388 22.748C54.1775 22.5577 53.8527 22.476 53.5325 22.52L42.9075 24.395C42.6642 24.438 42.4392 24.5522 42.2608 24.7231C42.0823 24.8939 41.9585 25.1138 41.905 25.355L41.43 27.5H28.75C28.4185 27.5 28.1005 27.6317 27.8661 27.8661C27.6317 28.1005 27.5 28.4185 27.5 28.75V36.25C27.5 37.5761 28.0268 38.8479 28.9645 39.7855C29.9021 40.7232 31.1739 41.25 32.5 41.25C32.4996 43.0235 33.1278 44.7398 34.2729 46.0941C35.418 47.4484 37.0061 48.3531 38.755 48.6475C38.752 48.6816 38.7503 48.7158 38.75 48.75V55H33.75C33.4185 55 33.1005 55.1317 32.8661 55.3661C32.6317 55.6005 32.5 55.9185 32.5 56.25C32.5 56.5815 32.6317 56.8995 32.8661 57.1339C33.1005 57.3683 33.4185 57.5 33.75 57.5H46.25C46.5815 57.5 46.8995 57.3683 47.1339 57.1339C47.3683 56.8995 47.5 56.5815 47.5 56.25C47.5 55.9185 47.3683 55.6005 47.1339 55.3661C46.8995 55.1317 46.5815 55 46.25 55H41.25V48.75C41.2497 48.7158 41.248 48.6816 41.245 48.6475C42.9939 48.3531 44.582 47.4484 45.7271 46.0941C46.8722 44.7398 47.5004 43.0235 47.5 41.25C48.8261 41.25 50.0979 40.7232 51.0355 39.7855C51.9732 38.8479 52.5 37.5761 52.5 36.25V28.75C52.5 28.4185 52.3683 28.1005 52.1339 27.8661C51.8995 27.6317 51.5815 27.5 51.25 27.5H43.99L44.165 26.71L53.9675 24.98ZM40.8725 30L40.3175 32.5H30V30H40.8725ZM50 32.5H42.8775L43.4325 30H50V32.5Z" fill="white"/>
</svg>
